/* XPM */
static char *_2ad6566e8764480aa11955d9350568dic1fSDiTqP8CAfm2[] = {
/* columns rows colors chars-per-pixel */
"64 64 180 2 ",
"   c None",
".  c #17251E",
"X  c #19261C",
"o  c #1C291F",
"O  c #1D2A20",
"+  c #222C21",
"@  c #273024",
"#  c #2D3325",
"$  c #2C352A",
"%  c #2E382E",
"&  c #333625",
"*  c #363926",
"=  c #3A3A27",
"-  c #313729",
";  c #343A2A",
":  c #3D3C2B",
">  c #343C32",
",  c #413E2B",
"<  c #3D412F",
"1  c #3A413A",
"2  c #45432C",
"3  c #4B442B",
"4  c #4E4A2F",
"5  c #51472C",
"6  c #554A2E",
"7  c #584B2E",
"8  c #434531",
"9  c #4D4432",
"0  c #474933",
"q  c #4A4A34",
"w  c #47483C",
"e  c #4D4F3E",
"r  c #49463B",
"t  c #514634",
"y  c #544B35",
"u  c #5B4E32",
"i  c #574F3E",
"p  c #5D4D38",
"a  c #5D5233",
"s  c #575238",
"d  c #5B553B",
"f  c #5D593D",
"g  c #604F32",
"h  c #634F38",
"j  c #625534",
"k  c #695537",
"l  c #655936",
"z  c #6A5935",
"x  c #65533C",
"c  c #6B563D",
"v  c #655D3F",
"b  c #6D5A3B",
"n  c #715D36",
"m  c #70573B",
"M  c #735C3D",
"N  c #785F3E",
"B  c #75623B",
"V  c #7B663C",
"C  c #7C693C",
"Z  c #454943",
"A  c #4D524B",
"S  c #53574B",
"D  c #5C5448",
"F  c #565C52",
"G  c #5A5954",
"H  c #635640",
"J  c #6C5A44",
"K  c #645B4C",
"L  c #6B5D4A",
"P  c #745C40",
"I  c #785F44",
"U  c #635E51",
"Y  c #5B605C",
"T  c #6E6545",
"R  c #746143",
"E  c #7B6340",
"W  c #7C6A43",
"Q  c #77674A",
"!  c #766A49",
"~  c #7A6C4A",
"^  c #7C674A",
"/  c #666056",
"(  c #6D6452",
")  c #6E6953",
"_  c #676158",
"`  c #6C6359",
"'  c #7E6E52",
"]  c #766E5E",
"[  c #7D6D59",
"{  c #6E6A67",
"}  c #636463",
"|  c #716D66",
" . c #6B706C",
".. c #797769",
"X. c #7F7365",
"o. c #767878",
"O. c gray47",
"+. c #777B75",
"@. c #80673E",
"#. c #846D3E",
"$. c #896F3D",
"%. c #8A713F",
"&. c #806740",
"*. c #846C40",
"=. c #886F41",
"-. c #836C4B",
";. c #886F4B",
":. c #867042",
">. c #8A7141",
",. c #82724B",
"<. c #8B754B",
"1. c #8E794E",
"2. c #907541",
"3. c #937A47",
"4. c #937B4B",
"5. c #877750",
"6. c #897452",
"7. c #877851",
"8. c #8C7853",
"9. c #897A5C",
"0. c #927C53",
"q. c #877F6F",
"w. c #8A7A62",
"e. c #877F70",
"r. c #887F70",
"t. c #7E8178",
"y. c #9A814F",
"u. c #958054",
"i. c #9C8454",
"p. c #96835D",
"a. c #9E8658",
"s. c #8B8065",
"d. c #948566",
"f. c #97886B",
"g. c #9B8B69",
"h. c #86837D",
"j. c #968878",
"k. c #9E9072",
"l. c #A08E68",
"z. c #A09172",
"x. c #A99977",
"c. c #A6977C",
"v. c #AB9C7E",
"b. c #8B8E8E",
"n. c #918B82",
"m. c #979182",
"M. c #9A9182",
"N. c #8D8F91",
"B. c #909092",
"V. c #9E9C95",
"C. c #9B9A97",
"Z. c #A89D86",
"A. c #A1998A",
"S. c #A29782",
"D. c #A79F95",
"F. c #B2A486",
"G. c #A9A59F",
"H. c #AEA89C",
"J. c #B0A795",
"K. c #BFB59F",
"L. c #A9A6A0",
"P. c #A6A7A9",
"I. c #B7AEA3",
"U. c #B6B3AF",
"Y. c #BAB2A2",
"T. c #B6B6B6",
"R. c #BAB6B0",
"E. c #C0B59F",
"W. c #C3BAAA",
"Q. c #BABDC0",
"!. c #C7C5C1",
"~. c #C6C8CA",
"^. c #C9C8C7",
"/. c #D2CCC0",
"(. c #D3D1CD",
"). c #D8D4CE",
"_. c #CCCED3",
"`. c #D5D7D9",
"'. c #D7D8DA",
"]. c #DDDDDD",
/* pixels */
"                                o o o o o o o o o o o o o o o o o o o o o o o o o o o o o o o o                                 ",
"                                + + + + + + + + + + + + + + + + @ O + + + + + + o @ @ o + + + +                                 ",
"                                # # # # # @ # # # # # & # & - & # # # # # # # # # & # # # & # #                                 ",
"                              * < 2 2 2 2 : : , 2 2 2 2 2 2 8 2 2 2 2 2 < : : 2 8 2 2 2 2 2 2 < *                               ",
"                          o @ < 4 a a a y y t y a a j j a j a a a j a u y y y y s a j j a a a 4 < # O                           ",
"                        o + & 2 a b B B M c k b M V V C C C C C V V V M b k c b M V C C C C n a 2 # + O                         ",
"                        # # = 4 l C *.&.I M P I E *.>.%.>.>.>.>.>.:.*.&.I P P I E *.>.>.>.>.V l 4 ; # +                         ",
"                      & < 2 6 a M #.=.*.E I P E &.>.<.%.>.>.>.2.>.>.=.*.V P P E *.>.>.2.3.>.#.b u 2 : & -                       ",
"                  @ # < 4 a l B C #.:.*.E P P E &.=.%.%.%.%.%.%.>.>.>.&.E P I V &.=.>.2.>.>.#.V x p t , ; # +                   ",
"                o o # 2 a n C C %.>.#.&.E P N I &.#.%.$.%.%.%.$.>.>.*.&.P N M I &.*.>.>.>.>.*.C M c p 9 : @ + O                 ",
"                o + # 2 a C $.%.>.>.*.&.I P P P C &.#.#.#.#.#.$.#.=.:.@.N M m M V @.#.=.%.*.*.&.E P x t : @ + o                 ",
"                o + & 2 l C %.%.%.%.*.&.V P P m N V V V V C V #.#.>.*.C B m m n M V C @.#.=.*.*.E P x t : # + O                 ",
"                o + # 2 j C $.%.%.%.$.&.E P m m b M n n n n n @.#.#.#.C M z z z z n B V @.$.$.*.&.P H t : # + O                 ",
"                o + # 2 a C %.%.>.>.*.&.E P m c k j j g j j z n C #.#.V n k g g g j z B V #.$.@.E P x t : @ + O                 ",
"                o + # 0 v ~ u.1.<.,.W E P P c h g 7 7 7 6 7 g z B V C B k a 7 6 7 7 g z n C #.C I P x t : # + o                 ",
"                o + < e ) s.d.d.9.' Q R P c k u 6 3 3 2 2 2 3 g z B n z g 3 2 2 , 3 3 7 z n B V N P x t : # + o                 ",
"                X + < A ..m.V.k.h.] ( J v x a y 3 = = & & * = 3 a z z a 3 < * & & = = 5 a z m M M J h t , @ + o                 ",
"                X O < F t.V.G.V.h.| Y T x j 7 3 = & @ @ @ @ & 2 5 g 7 5 2 & @ @ @ @ & = 5 7 z z M m x t , $ + .                 ",
"                . O < F t.V.L.V.h.| / D x g 7 3 = @ + o o + # = 3 5 5 3 * # O O X + @ = 3 6 g z m m x t : @ + o                 ",
"                . o < S ..m.A.m.s.] ( K x j 6 2 & + o o X o + & = = 2 = & + o o X X + & , 6 g k m J x t , # + o                 ",
"                o + < e ) s.d.d.9.' ! R z j 7 2 & + o . o     # = = & & #     o X X @ & 2 5 g k m J H , , - + o                 ",
"                o + # 8 v ~ 1.u.<.*.W B b j 7 2 = @ + o         @ @ @ @         + + # * 3 7 g k m m H t , - + o                 ",
"                o + # 2 l C $.%.>.>.#.V n k 7 5 2 ; - -         + + + +         ; ; = 2 6 a k z m m h t , # + o                 ",
"                o + # 2 j B $.%.>.>.#.C M k k a s s s q <         + X         < 0 q d a l z m m M J h t , @ + o                 ",
"                o o # 2 j B $.%.%.%.#.C M m b P ! ! T D 0 # o             o $ 0 H T ~ ~ C V V N P P P , : # + o                 ",
"                o @ & 2 j C $.%.>.>.#.@.I m P ^ <.8.1.T s ; + o         o + ; q R 8.u.0.<.:.@.V &.P H h : # + o                 ",
"                o + # 2 f C >.2.>.=.*.C N P I -.u.i.u.~ f 2 ; #         # ; 0 f -.0.a.0.4.>.*.C P P H , : @ + o                 ",
"                o + - 2 a C >.>.>.=.*.&.N M I -.1.y.u.7.T f q 8 ;     : 8 y f T 4.4.a.0.3.%.#.#.@.m x , , @ + O                 ",
"                o + & 2 l C >.>.2.>.*.W V P I ^ <.4.4.1.,.~ T f 8 # $ 8 f T ~ ,.<.0.3.3.2.$.@.@.m m h , : @ + O                 ",
"                o + # 2 a C >.>.>.>.*.&.I P P E &.:.3.4.i.u.7.T q ; - q T 7.u.u.0.3.2.2.=.=.=.;.&.P P , : $ + O                 ",
"                o @ # 2 a C $.>.>.>.*.&.N P P N E *.<.4.i.a.u.~ f 8 8 d ! 0.i.i.4.2.3.4.4.0.0.6.6.-.I D , - + O                 ",
"                o o # 2 l C :.%.>.>.*.&.N P M P C *.%.3.y.i.u.,.T f d T ~ 8.u.1.;.2.3.0.w.x.S.S.n.r.w./ Z - + +                 ",
"                O + # 2 a C >.>.>.>.#.W P P P V C #.$.3.3.y.1.1.~ ~ ! ~ ,.-.<.-.#.=.1.l.F.W.W.W.I.D.n.{ A > + X                 ",
"                O + & 2 f C $.2.>.>.#.&.I P P P E #.:.>.>.2.<.4.u.u.0.8.-.^ I V @.*.0.x.E./.).(.!.R.C.+.A > + .                 ",
"                o O # 2 l C >.>.>.>.*.&.N P P E W *.:.$.$.:.>.4.i.a.i.8.-.P M M N =.0.v.W.).].'.~.T.C.+.F > + X                 ",
"                o + # 2 a C >.>.>.>.*.@.P P M P W *.>.>.#.$.>.3.y.i.i.1.-.P M M V =.0.v.W.(.)._.Q.P.N. .A > + X                 ",
"                o + # 2 l C $.>.2.>.*.@.N P P E @.*.>.%.:.#.>.3.3.4.4.=.&.P P M N #.0.x.Y.!.~.Q.P.N.O.G Z > + X                 ",
"                o + # 2 a C $.>.>.>.*.&.E P P P @.*.$.>.$.%.>.>.2.;.=.-.I P M N V *.0.z.J.R.T.P.B.O.} A > $ + O                 ",
"                O + & 2 f C >.2.>.$.*.&.P P P P C *.:.>.>.:.:.%.=.=.*.&.M P P N V =.0.g.Z.H.L.C.h.| G Z > $ + O                 ",
"                O + # 2 a C >.>.>.%.:.&.E P P E &.#.:.%.%.:.$.:.>.$.#.&.P P P N C *.<.p.z.S.M.j...` D Z > $ + O                 ",
"                o + # 2 j C $.>.>.>.*.@.E P P N &.*.>.%.>.:.%.$.$.#.*.C P P N V E *.<.0.p.g.d.w.[ L D r : # + O                 ",
"                o + # 2 a C >.>.>.>.*.@.I M P P @.*.>.>.%.%.:.>.>.>.=.E E P P P C *.$.<.<.1.,.,.^ I h t : @ + o                 ",
"                o o # 2 j C $.%.>.>.>.W P P P E W #.%.:.:.:.$.%.>.>.*.&.P P M R C *.$.>.%.:.*.&.E P H t : $ + o                 ",
"                o @ & 2 a C $.%.>.%.#.&.E N P P &.*.#.%.%.$.:.>.%.>.*.&.N P P E &.*.$.%.$.$.$.@.I P h t : @ + O                 ",
"                o + # 2 j B #.%.%.%.*.@.E M P I &.*.>.>.>.$.%.:.:.#.*.@.E P P P &.*.$.:.%.#.#.@.I M x t : @ + O                 ",
"                o + & 2 j C %.>.>.>.*.C P P P V &.*.>.>.>.:.$.>.%.>.*.&.P P P N &.*.%.:.%.%.:.&.&.P h t : # + O                 ",
"                o o & q v ~ 8.4.<.:.^ ^ P P P P C *.%.:.:.%.$.>.>.:.*.@.E P P E &.*.>.%.:.:.#.&.I P x t : # + o                 ",
"                o + ; e ) s.f.d.9.' Q R P P M I W *.$.%.%.:.:.%.>.$.#.W N P P P &.*.>.>.%.$.*.&.&.P x t : # + o                 ",
"                o @ % A ..m.A.m.q.] ( L J P P N @.*.=.$.%.:.$.>.>.%.*.&.P P P E W *.:.%.>.>.*.*.I P h t , @ + .                 ",
"                X O < F t.V.G.V.h.| ` K L J M I &.=.=.=.%.:.:.%.>.>.*.&.P P M N C #.%.>.>.>.*.&.&.P J , , @ . +                 ",
"                X + < Y t.V.G.V.h.| _ U L J P N @.*.=.=.>.%.$.:.:.%.#.&.E P P I &.*.$.:.>.:.*.&.&.P x , , @ + O                 ",
"                X + < A t.m.A.j.q.| ( L J J P P @.#.=.%.>.*.>.%.:.$.*.&.P P M N &.*.%.:.%.%.*.&.&.P H h , - O O                 ",
"                o + % e ) s.g.d.9.' Q R J P P N &.*.>.%.>.>.>.>.%.%.#.W V P P I &.*.>.%.>.%.*.&.I P H , , - + O                 ",
"                o + # 4 f ~ 7.u.<.:.*.^ P P P I &.*.>.>.>.#.%.>.>.:.*.C I M P P &.*.:.>.>.%.*.&.@.P P , , - + .                 ",
"                o + # 2 j C $.%.2.>.*.&.E P P E W *.%.>.>.>.>.>.>.>.*.&.I P P E &.*.%.%.>.>.=.@.I P h p , @ + +                 ",
"                o + # 2 j C %.%.%.%.>.&.E P P I &.=.>.>.>.>.>.>.>.>.=.&.E P P E &.=.>.>.>.>.=.-.&.P H , , @ + .                 ",
"                o + & 2 j C $.%.2.>.>.*.E P P E *.:.>.>.>.>.>.>.2.>.>.&.E P I E &.=.>.>.2.>.>.*.&.P P , , $ + O                 ",
"                o + # 2 j C %.%.>.:.#.W I P P E E *.$.:.>.:.>.:.>.>.*.W R P P N E *.>.>.>.>.*.E &.P J p : @ + O                 ",
"                o + # < s n C C C C V M b k c b B V C C C C C C V V V b c c c c M V C @.C C V B J H h , - @ + O                 ",
"                o + # * 2 7 j l l a a a u t t y a a j j j j j j j j a a y y y y u j j k j j a a h , , , - @ + O                 ",
"                O + @ # < < 2 2 2 2 2 2 , : : : < 2 2 2 2 2 2 2 2 2 2 , , : , , , , , , , , , , , , , # @ @ + O                 ",
"                + + + @ @ # & & & # # # # # # # # # # & & & # & # & # & # # # # # # - - - & & - - # @ + + + + +                 ",
"                + + + o + + + + + + + + + + + + + + + + + + + + + + + + + + + + + + + + @ + + + + + + + + + + @                 ",
"                + + + + o o X X O o . O O O o o o o O O . o o . O O o o o o o . o o o o o o . O O O O O + + + $                 "
};
