/* XPM */
static char *_51c0139863a440bd418d0cb7cd6b12ccJm0BmlifeZ0qsbo[] = {
/* columns rows colors chars-per-pixel */
"64 64 160 2 ",
"   c None",
".  c #1F2126",
"X  c #222427",
"o  c #262628",
"O  c #292828",
"+  c #312F2A",
"@  c #36332B",
"#  c #3F3A2D",
"$  c #433D2F",
"%  c #49412F",
"&  c #4D4430",
"*  c #46423D",
"=  c #4D463B",
"-  c #504731",
";  c #574836",
":  c #5B4E35",
">  c #554A39",
",  c #5A4C3B",
"<  c #5F5335",
"1  c #654D2E",
"2  c #664F31",
"3  c #665435",
"4  c #6C5431",
"5  c #675836",
"6  c #695A37",
"7  c #63553C",
"8  c #6D5B39",
"9  c #755C35",
"0  c #785F36",
"q  c #775F38",
"w  c #785F38",
"e  c #796136",
"r  c #74633C",
"t  c #7E6639",
"y  c #7F6A3C",
"u  c #464342",
"i  c #484543",
"p  c #4D4B49",
"a  c #534B42",
"s  c #5C5446",
"d  c #54514C",
"f  c #59554E",
"g  c #5E584D",
"h  c #5F5D57",
"j  c #675A43",
"k  c #6A5C41",
"l  c #645D4D",
"z  c #625F56",
"x  c #6D624B",
"c  c #756646",
"v  c #7B6B46",
"b  c #70654C",
"n  c #73694E",
"m  c #7C6D4A",
"M  c #7F714F",
"N  c #686253",
"B  c #796F55",
"V  c #756D59",
"C  c #806738",
"Z  c #826B3B",
"A  c #886F3D",
"S  c #86703F",
"D  c #8B733E",
"F  c #90773F",
"G  c #91793F",
"H  c #856E42",
"J  c #847146",
"K  c #8B7442",
"L  c #8F7841",
"P  c #847349",
"I  c #907742",
"U  c #937B42",
"Y  c #987F46",
"T  c #947D49",
"R  c #807250",
"E  c #907E51",
"W  c #9A8146",
"Q  c #9C844C",
"!  c #928052",
"~  c #9D8550",
"^  c #91825B",
"/  c #918158",
"(  c #91835D",
")  c #91825B",
"_  c #A0874B",
"`  c #A1874A",
"'  c #A0884C",
"]  c #A0884D",
"[  c #A1894D",
"{  c #A1894C",
"}  c #A28A4D",
"|  c #A38A4D",
" . c #A1894F",
".. c #A28A4E",
"X. c #A38B4E",
"o. c #A38B4F",
"O. c #A58D4F",
"+. c #A28A4D",
"@. c #A08950",
"#. c #A18A51",
"$. c #A58D51",
"%. c #A78F53",
"&. c #A28C54",
"*. c #A38B52",
"=. c #A89053",
"-. c #A99153",
";. c #AA9253",
":. c #A99154",
">. c #A89054",
",. c #AA9255",
"<. c #AB9355",
"1. c #AB9355",
"2. c #A99156",
"3. c #AA9156",
"4. c #AC9455",
"5. c #AD9555",
"6. c #AC9456",
"7. c #AD9556",
"8. c #AC9457",
"9. c #AE9657",
"0. c #AC9455",
"q. c #A7925A",
"w. c #A7925A",
"e. c #AD9559",
"r. c #AE9658",
"t. c #AF9758",
"y. c #AE965A",
"u. c #AA955E",
"i. c #AD965B",
"p. c #B29A5B",
"a. c #B29A5C",
"s. c #B29B5C",
"d. c #B39B5C",
"f. c #B49C5C",
"g. c #B59C5C",
"h. c #B49C5D",
"j. c #B59D5D",
"k. c #B69D5C",
"l. c #B69D5D",
"z. c #B79E5D",
"x. c #B39B5C",
"c. c #AC9760",
"v. c #AC9760",
"b. c #B79F60",
"n. c #B79F60",
"m. c #B7A060",
"M. c #B7A060",
"N. c #B8A060",
"B. c #B9A161",
"V. c #BAA260",
"C. c #BBA260",
"Z. c #BAA262",
"A. c #BBA362",
"S. c #BBA363",
"D. c #BCA361",
"F. c #BDA462",
"G. c #BCA463",
"H. c #BEA562",
"J. c #BFA663",
"K. c #BAA261",
/* pixels */
"                                                                                                                                ",
"                                                                                                                                ",
"                                                                                                                                ",
"                                                                                                                                ",
"                          D U Q :.f.N.G.D.N.S.N.G.S.N.S.N.S.N.S.S.S.N.S.S.N.S.S.S.Z.Z.S.S.S.j.7.[ W U                           ",
"                        D U W ` :.p.N.N.N.N.N.M.N.M.N.N.N.N.N.n.n.N.N.N.N.N.N.N.M.M.M.M.V.M.s.1.[ U L F                         ",
"                        U W W Q :.i.s.f.j.f.f.f.f.f.s.s.j.d.d.s.d.d.d.d.d.d.d.d.f.s.f.f.f.s.7.~ T K Z y                         ",
"                        Q Q [ X.$.:.:.:.4.4.1.1.:.4.:.i.4.:.4.4.4.4.:.4.4.:.4.4.4.:.4.4.4.1.Q W H r 8 5                         ",
"                        :.:.%.$.X.[ Q Q X.Q ` X.[ O.[ [ [ [ [ [ [ *.[ [ [ [ [ [ [ $.[ [ X.Q W v 6 : - %                         ",
"                        j.p.t.%.[ W W U U W W G U U U U U Y U U U U U U U U U W U U U W W U J r : % @ @                         ",
"                        N.N.f.:.} W G D D D D D K D K D K D D D D D K D K D D D D D K G U G y 6 & @ O X                         ",
"                        J.D.j.7.` U D S S Z t t C C C C C C C C C C C C t C C C C C Z A D F y 5 % + o .                         ",
"                        J.D.j.7.#.U K A t e 9 0 9 e 9 9 0 9 9 0 9 9 9 9 9 9 9 9 9 9 e C D D Z 6 & @ X .                         ",
"                        S.N.f.4.Q W D Z e 9 4 4 4 4 4 4 4 4 4 4 4 4 4 4 4 4 4 4 4 4 9 C A D Z 6 & @ O X                         ",
"                        v.v.q.&.Q U D C 9 4 1 1 1 4 4 3 4 2 2 4 4 4 1 4 4 4 1 4 2 4 4 e Z D C 6 - @ O .                         ",
"                        ( / / ! T I D C 0 4 4 1 1 1 1 1 1 1 1 2 2 2 1 1 1 2 1 1 1 2 4 e Z D Z 8 - @ O X                         ",
"                        V V B M P L D C e 4 3 1 2                             1 2 2 4 e y D y 6 & @ O X                         ",
"                        z z N n M K K C e 4 2 1                                 2 2 4 e Z D S 6 & @ O X                         ",
"                        z z N n m K K C e 4 2 1                                 1 4 4 e Z D S 6 - @ O X                         ",
"                        V V B M P L D C 0 4 1 1 2                             1 1 1 4 e Z D y 6 & @ O X                         ",
"                        ( / / E T I D C 9 4 1 1 1 1 1 1 1 1 1 1 1 1 1 1 1 1 1 1 1 1 4 e C D Z 6 & @ O X                         ",
"                        v.u.q.&.Q U D C 0 4 4 1 1 1 1 2 1 2 2 2 2 2 2 1 2 2 1 2 1 2 4 e A D Z 8 - @ O X                         ",
"                        S.n.g.:.[ U D A C w 9 9 9 9 8 9 9 9 q q q 9 9 9 9 8 9 9 9 9 e C S D y 5 & @ O X                         ",
"                        D.S.j.4.*.U I K H H H Z H H H H H H H H H H H H H H H H H H K I L L S 8 & @ O X                         ",
"                        S.S.g.;.[ U U U W Q ~ ~ Q Q ~ ~ Q Q ~ T T ~ ~ Y ~ Y ~ ~ ~ Q Q W Y I S 5 & @ O X                         ",
"                        S.n.g.-.Q W U W *.:.q.i.i.i.e.q.i.i.e.e.e.i.e.e.i.i.y.v.i.4.q.$.Q U Z 5 & @ O X                         ",
"                        S.n.s.:.Q W T Q %.t.f.f.d.d.s.s.s.s.s.s.a.a.a.a.a.a.a.a.k.f.5.;.[ U S 5 & @ O X                         ",
"                        S.n.s.:.Q U U W Q :.4.t.i.4.4.4.7.7.7.7.e.4.7.7.7.7.e.e.5.7.1.O.Q U Z 5 & @ O X                         ",
"                        N.N.s.:.[ W U U W [ X.X.| | $.[ O.[ [ [ [ O.[ | | | +.| ` } ` Q W U y 5 & @ O X                         ",
"                        S.N.j.:.Q U U G U U U W Y U U U W U W U U U Y U Y Y Y Y W U W U U G J 6 & @ O X                         ",
"                        N.N.j.:.[ W G D D D D D D K D D D K D D K D D D D D A D D D D G G G y 6 & @ O X                         ",
"                        G.N.s.:.[ U D D S C C C C C t C t C t t C C t C C C C C t t A S G D H 6 & @ O X                         ",
"                        N.N.j.:.` W D Z t e 9 e 9 9 9 e 9 9 9 e 9 9 9 9 9 e 9 0 9 0 e Z D D Z 5 & @ O X                         ",
"                        N.N.s.i.` U D Z e 9 4 4 4 4 4 4 4 4 4 4 4 4 4 4 4 4 4 4 4 4 9 e A D Z 6 - @ O X                         ",
"                        G.N.s.:.} W D t e 4 2 2 4 4 4 4 9 4 4 4 9 4 4 4 3 2 3 2 : 2 4 r Z D Z 6 & @ O X                         ",
"                        N.N.f.4.Q U D t 9 4 4 4 4 9 9 e 9 9 9 e 9 9 9 8 7 7 , > ; ; < 8 C D Z 6 - @ O X                         ",
"                        N.N.j.:.} U D t 9 4 4 4 e e C Z C C Z C Z C c q j j a a * = > j r J S 6 - @ O X                         ",
"                        G.N.f.4.} W D t 9 4 4 9 t A D D D D D D D A A c l l d p i * = < r D y 6 & @ O X                         ",
"                        N.N.f.4.Q U D t 9 4 4 9 C D G G G D U G G I K m c z d d i * = < y S S 6 - @ O .                         ",
"                        N.M.s.4.} W D t e 4 4 e Z D G G U G U G G U K J v l l s a = > 7 y S y 6 - @ O X                         ",
"                        S.V.f.-.} W D t e 4 4 e C D U U G G U F G G I L J v c k 7 : : 8 t D y 6 - @ O X                         ",
"                        S.M.f.1.Q U D t 9 4 4 9 t D L U G U G L I G U K L K J e 8 3 3 q C D S 6 & @ O X                         ",
"                        S.M.f.1.} U D t 9 4 4 e C K D U G G L G G I K U U G K C 9 4 4 0 Z D S 6 & @ O X                         ",
"                        S.V.k.5.} W D t 9 4 4 e C D G L G L G L G G G G G G D C 0 9 4 e Z D y 6 - @ O X                         ",
"                        J.V.j.1.| U A y 9 4 4 e t D U U D U D G I G G G G G D C 0 4 4 e A D Z 6 & @ O X                         ",
"                        V.M.s.1.` U F C 9 4 4 e t D D U U G U U K G U G U U D C 0 4 4 0 C D S 6 & @ O X                         ",
"                        v.u.w.~ Q U A y 9 4 4 9 C D U G G G U D G U G G D U D t 0 4 4 0 A D C 6 - @ O X                         ",
"                        ( ( / ! W W A t 9 4 4 9 t D D G U D G G G D D U G G A t 9 4 4 0 C D Z 8 & @ O X                         ",
"                        V V V R P L D C 9 4 3 9 t A I F F F D D G D D I F F A C 9 2 4 9 Z S y 6 & @ O X                         ",
"                        z N N n P K S C e 4 4 q C D F U I D U F G G U U U I D C 9 9 4 e Z F y 6 = @ O X                         ",
"                        h z N n P J D A t e e y K I Y U Y Y Y Y U W U Y Y U Y H C e 9 t D D S 6 & @ O X                         ",
"                        V V B M P K L K K H K I T W +.[ _ +.Q +.[ [ Q +.+.+.W T I K J D G G y 6 - @ O X                         ",
"                        ( ( E E T K L T W Q Q X.%.%.4.4.4.3.4.4.:.:.7.:.4.3.3.%.&.@.~ Y W G S 6 & @ O X                         ",
"                        v.v.v.~ Q U U W ~ q.t.s.s.d.d.d.d.y.d.d.s.s.s.j.d.a.g.t.u.y.e.*.Q G y 5 & @ O X                         ",
"                        N.N.s.:.Q W W W %.t.s.s.d.d.d.d.d.d.d.d.d.d.s.d.g.d.d.g.d.g.e.-.` W S 5 & @ O X                         ",
"                        J.S.z.q.Q W W W X.4.5.5.t.e.7.4.t.7.7.7.t.7.7.7.7.7.7.7.t.7.4.O.` U Z 6 & @ O X                         ",
"                        J.D.z.7.X.W W W W ~ ~ O.$.[ X.X.O.O.O.O.| | [ [ X.O.O.O.X.X.X.Q W W S 6 & @ O X                         ",
"                        S.N.j.:.Q U F F G W W W U W U U U U U U U U W U U U U U U W U W G G Z 6 & @ O X                         ",
"                        j.s.7.*.W D Z y y y S y Z Z Z S Z Z Z Z A Z H Z Z Z Z J S y y S S Z r < % @ O X                         ",
"                        7.:.Q T v r 6 5 5 5 5 5 5 5 5 5 5 6 5 5 5 5 5 5 5 5 5 5 5 5 5 5 8 6 < - $ O O o                         ",
"                        [ [ T H 8 > & % % & & & & & & & % & & & & & % & & & % & & & & & & % % # @ O O O                         ",
"                        W U K r < $ @ @ @ @ @ @ @ @ @ @ @ @ @ @ @ @ @ @ @ @ @ @ @ @ @ @ @ @ @ @ O O O O                         ",
"                        U G y 6 & @ O o X o O O O O O O O O O O O O O O O O O O O O O O O O O O O O O O                         ",
"                        U G Z 5 & + X . . X X X X X X X X X X X X X X X X X X X X X X X X X X X X O O O                         "
};
