/* XPM */
static char *_7b478d0326e41a1f0ad19515d7a3ee2L5RTZ3QRbIOIGlEC[] = {
/* columns rows colors chars-per-pixel */
"64 64 215 2 ",
"   c None",
".  c #000001",
"X  c #0C0604",
"o  c #020C05",
"O  c #070809",
"+  c #140D08",
"@  c #071205",
"#  c #081B07",
"$  c #16130C",
"%  c #18120A",
"&  c #171907",
"*  c #171410",
"=  c #1B1A18",
"-  c #061219",
";  c #25150C",
":  c #241712",
">  c #371E0E",
",  c #06240A",
"<  c #0A3D0B",
"1  c #083D15",
"2  c #063D14",
"3  c #133011",
"4  c #262119",
"5  c #392213",
"6  c #34210F",
"7  c #18283A",
"8  c #102521",
"9  c #28323D",
"0  c #59361C",
"q  c #462918",
"w  c #663A1D",
"e  c #6C3B1C",
"r  c #64371A",
"t  c #713E1E",
"y  c #482922",
"u  c #483421",
"i  c #5F3520",
"p  c #673C23",
"a  c #743E20",
"s  c #783E20",
"d  c #14440E",
"f  c #0B4517",
"g  c #184A13",
"h  c #0E5315",
"j  c #304915",
"k  c #266F1C",
"l  c #2A5527",
"z  c #3C5B23",
"x  c #0D6E25",
"c  c #0D6321",
"v  c #0C7A27",
"b  c #0E7B29",
"n  c #0F7226",
"m  c #117C29",
"M  c #187427",
"N  c #1A6925",
"B  c #217C28",
"V  c #41501E",
"C  c #6A411E",
"Z  c #73401F",
"A  c #415E25",
"S  c #484F24",
"D  c #6C4A22",
"F  c #684425",
"G  c #754321",
"H  c #7D4C2A",
"J  c #7A4724",
"K  c #724F37",
"L  c #4B6628",
"P  c #5A7525",
"I  c #54732D",
"U  c #6D7032",
"Y  c #273646",
"T  c #33506E",
"R  c #065674",
"E  c #564C5D",
"W  c #795543",
"Q  c #716C71",
"!  c #536D61",
"~  c #83551B",
"^  c #86582E",
"/  c #825332",
"(  c #8B5D31",
")  c #885B3A",
"_  c #936A37",
"`  c #9C763D",
"'  c #8D6738",
"]  c #A47A3E",
"[  c #A9773A",
"{  c #9B7B41",
"}  c #997353",
"|  c #916C47",
" . c #A17642",
".. c #A47A42",
"X. c #A97D43",
"o. c #A87F49",
"O. c #A47A55",
"+. c #817C77",
"@. c #14812A",
"#. c #1B8329",
"$. c #0F802A",
"%. c #278827",
"&. c #299029",
"*. c #3B9325",
"=. c #3A9A27",
"-. c #368922",
";. c #3CA129",
":. c #3FA92A",
">. c #658E1D",
",. c #469B2A",
"<. c #41852F",
"1. c #42A529",
"2. c #4AA32B",
"3. c #56AE25",
"4. c #52A62A",
"5. c #768F36",
"6. c #73985A",
"7. c #6D9154",
"8. c #AF9D13",
"9. c #89BE15",
"0. c #BBA10F",
"q. c #BEA513",
"w. c #8D8930",
"e. c #AC863B",
"r. c #AE893A",
"t. c #A28C38",
"y. c #B89733",
"u. c #B69133",
"i. c #D3BD1F",
"p. c #CFBA1F",
"a. c #CAB824",
"s. c #D2BD21",
"d. c #CDB335",
"f. c #D6C41D",
"g. c #E7DF0D",
"h. c #E6E609",
"j. c #E9F504",
"k. c #F6F206",
"l. c #FFFE01",
"z. c #FBF608",
"x. c #EEF00F",
"c. c #D7C122",
"v. c #E4CB29",
"b. c #EED529",
"n. c #E9D026",
"m. c #F1D828",
"M. c #98854C",
"N. c #AB834A",
"B. c #AB8143",
"V. c #B48A44",
"C. c #AB8359",
"Z. c #B69352",
"A. c #BB9569",
"S. c #AB9170",
"D. c #B5936B",
"F. c #BEA17D",
"G. c #C1934B",
"H. c #C79A49",
"J. c #D29F4E",
"K. c #CBA74B",
"L. c #D9AA4A",
"P. c #D8A751",
"I. c #DDAA54",
"U. c #D8A755",
"Y. c #DCB047",
"T. c #E2B54A",
"R. c #E2AE54",
"E. c #E4B65B",
"W. c #C19D74",
"Q. c #C7A57C",
"!. c #D4B27F",
"~. c #2A4E9B",
"^. c #385191",
"/. c #005D82",
"(. c #4563A6",
"). c #70A7A7",
"_. c #1DACD0",
"`. c #04B2F0",
"'. c #6BBAC9",
"]. c #18C3E7",
"[. c #878383",
"{. c #80B086",
"}. c #B5A696",
"|. c #979CAD",
" X c #939CAE",
".X c #A3A5B2",
"XX c #A3A1A8",
"oX c #CDAA81",
"OX c #D0AE84",
"+X c #D5B58C",
"@X c #D9B68D",
"#X c #D9B98F",
"$X c #D3B183",
"%X c #DBBA91",
"&X c #D7BA94",
"*X c #8AC197",
"=X c #E2C49B",
"-X c #EACDA4",
";X c #E5CFAA",
":X c #E9D0AB",
">X c #F1D6AE",
",X c #F5D8A8",
"<X c #F7DDB4",
"1X c #FDE4BB",
"2X c #FEE5B8",
"3X c #99A9CE",
"4X c #D4D6D6",
"5X c #FFEBC2",
"6X c #FCEACE",
"7X c #FFF3DF",
"8X c #F5E9D7",
"9X c #EBEAE6",
"0X c #F3EEEA",
"qX c #FFFFFE",
"wX c #F0F0EF",
/* pixels */
"                                                                                                                                ",
"                                                                                                                                ",
"                                                                                                                                ",
"                                                                                                                                ",
"                                                                                                                                ",
"                                              . o n m b b m b m m b n o .                                                       ",
"                                              . o x b b b m b b b b x o .                                                       ",
"                                            , 1 f %.&.&.&.&.&.&.&.&.%.f 1 ,                                                     ",
"                                        . . 1 b #.;.1.1.1.1.1.2.1.1.;.@.m 1 . .                                                 ",
"                                        o o f m @.=.=.1.;.;.;.=.;.;.;.m b f o o                                                 ",
"                                    . o c n b m m m m m @.@.m m m m m m b n x c o .                                             ",
"                                    . o x b b b b m b b m m b b m b m m b b b x o .                                             ",
"                                  , 1 f %.&.&.&.&.&.&.&.&.&.&.&.&.&.&.&.&.&.&.%.f 1 8                                           ",
"                              . . 1 @.@.;.1.1.1.1.1.1.1.1.:.1.1.1.2.:.1.1.1.:.;.@.$.1 . .                                       ",
"                              o o f B B 2.4.2.,.2.3.3.3.3.3.4.,.4.3.3.3.3.4.2.,.#.@.f o o                                       ",
"                          . o c n I { M.K.K.Z.{ t.h.j.j.j.h.t.{ a.j.j.j.j.a.{ w.,.;.%.x c @ .                                   ",
"                        . . o x v I ..X.I.R.G. .r.k.l.l.l.z.e. .s.l.l.l.l.s. .t.,.,.&.b x o . .                                 ",
"                        . . O z z w.s.s.H.G.d.p.f.z.l.g.s.a.e...y.s.f.z.l.s. .{ 5.7.*.b x o . .                                 ",
"                          . X r Z 0.l.k.e. .p.l.l.l.l.s. ...........e.k.l.s. ...X.X.I b x o .                                   ",
"                        : X % G H q.l.k.r.X.s.l.l.k.k.s.e.e.e.r.r.r.y.h.k.s.e.r.r.e.>.M N $ X :                                 ",
"                ..N.OX@X} r Z H.J.n.l.z.T.P.n.l.k.u.e.s.k.k.k.k.k.k.h.y.e.i.k.k.k.z.8.F C e r } @XOXN...                        ",
"              ..X.N.oX@XO.e ~ J.R.b.l.z.T.I.b.l.z.e. .s.l.l.l.l.l.l.z.e.] i.l.l.l.l.8.a t t t O.#XoXN.....                      ",
"              ( ( _ =X-XA.^ _ n.b.v.s.s.n.b.v.s.a.e. .s.l.l.m.b.v.p.s.W.A.K.i.f.k.l.i.[ X.D.D.+X-X=X_ ( (                       ",
"              Z t / >X5XOX] r.k.l.s. .e.k.l.s.{  ... .s.l.z.R.R.V. ...!.+XA.] e.k.l.b.R.E.2X5X1X5X>X/ t Z                       ",
"                G / =X>XOXo.V.g.k.p.X.r.k.l.c.r.r.r.e.c.z.z.L.P.H.o.N.$X@XW.N.Z.x.z.b.U.I.<X<X<X>X=X/ Z                         ",
"                    / / O.+XQ.( Z r.I.Y.z.l.z.k.k.k.k.n.T.Y.V.X.A.OX$X+X+X=X,X,XT.T.H.X.N.+X%XC./ /                             ",
"                    G Z O.&XoXH e [ R.T.z.l.l.l.l.l.l.m.R.P.B.] W.@X+X+X+X-X1X2XE.R.G. .o.+X#X .t Z                             ",
"                    5 > ! '.).| ( [ G.H.n.b.b.b.b.b.m.d.G.V._ ^ C.@X@X=X-X-X-X=XB.[ y.s.d.).'.).                                ",
"                    . . /.`.`.M.] ....X.P.I.R.I.R.I.R.G.] ` t t O.@X%X2X2X-X#XQ.H p q.l.x.].`.                                  ",
"                    . . R `._.M.e.e.`  .G.H.J.P.P.P.I.V.` ` / / C.@X@X:X,X&X}.D.H G q.l.x._.`.`.                                ",
"                    . . 5 W U h.z.8.J G ; + F X.B.B.B._ Z / W.Q.oX@XoX' / 0 % : _ { a.l.h.1 - -                                 ",
"                    . . 5 J Z k.l.0.a r X . S ] ] ....( t H Q.+X+X#XQ.H Z 6 . X _ ..i.l.h.& . .                                 ",
"                        ; > u c.n.u.a J +.).Q Q Q ) ^ | O.C.=X-XQ.O.O.E E Q (.S.' ( y.m.s.& . .                                 ",
"                          . % H.R.[ a ) 8XqX3X~.^.p t O.#X%X1X5XD.e p ^.~.3XqX0X/ t [ R.H.% . .                                 ",
"                          . % V.H._ r K 8XwX3X~.^.K / D.%X&X1X5XW./ W ^.~.3XqX8XK e _ H.V.% .                                   ",
"                              % % + X : :X6X|.~.(.9X0X8X<X1X1X1X8X0X4X(.~.|.6X;X4 X + % %                                       ",
"                              . . . . = ;X5X|.~.(.wXqX0X1X1X5X1X7XqXwX(.~.|.5X;X= . . . .                                       ",
"                                  . . % A.!.}.|..X8X7X6X1X5X1X1X6X7X9X.X|.}.$XA.* . .                                           ",
"                                    . + _ ] $X5X5X5X2X1X5X1X5X1X1X1X2X2X1X!.] _ + .                                             ",
"                                  o o & _ ` Q.>X>X<X<X<X1X<X<X1X2X2X2X>X<XQ.` ' & o o                                           ",
"                              . . 1 v N C D ~ ^ ) OX&X#X&X#X@X@X%X&XoX' / / Z D N n 2 . .                                       ",
"                              . . 2 $.k C Z Z Z H oX@X@X@X+X+X+X@X@XoXH Z Z Z Z M $.2 . .                                       ",
"                      . .   O 7 7 ! *X).A 5 V A L 7.6.6.6.6.6.6.6.6.7.L L j 5 S {.{.! ; : .   . .                               ",
"                    . . . . O T T 3XqX9Xl d c b b b b b b b b v b b b b v c h l wXwX}.q q O . . . .                             ",
"                    X X X X - T T  X9X4Xl d h $.b m b b b m b b b b m b m c < z 4X9X[.y y * X X X X                             ",
"                . X 0 e w w i T T Y = : C C z $.m b m m m b b b b b b m b z e r 4 = Y T T p w p e 0 X .                         ",
"              . . X w Z Z Z F T T 7 . X r t z $.b b b b b n v v b b b b b A t r X . 7 T T G a a G e X . .                       ",
"              . . + | O.O.O.} Y 7 8 # , P P L L A A z >.9.9.9.9.>.A A A A L P P , , 8 7 9 } O.O.O.| + . .                       ",
"              . . * oX#X+X#X}.+ . , d h =.:.P Z Z Z Z q.l.l.l.l.0.t J t Z P 1.=.d d , . * Q.#X#X#XW.$ . .                       ",
"                . * S.Q.F.F.S.% . # < d *.1.P C Z D F 8.j.j.j.j.8.F C C C P 1.*.d < , . * S.F.F.}.D.$ .                         ",
"                    * $ * $ %     o . # *.1.1.,.,.B M #.%.%.%.-.M M B ,.2.1.1.*.# o .     * * * * *                             ",
"                    . . . . .       . @ *.1.1.1.=.m b b b v v b b m m 1.1.1.1.,.@ .       . . . . .                             ",
"                      . . . . .   . . O g g k &.&.&.&.&.&.&.&.&.&.&.&.k k k g g o . .       . . .                               ",
"                              . . . . . . . 1 b @.;.1.1.1.1.1.1.1.1.=.h d # . . . . .                                           ",
"                              . . . X X + X 1 M M *.,.*.*.*.*.*.*.*.-.g d , . . . .                                             ",
"                              . . > p r e p 0 u u u u 4 @ @ @ @ @ @ & w F 6 . .                                                 ",
"                              . . 5 G Z Z Z r y y y y : . . . . . . X e G 5 . .                                                 ",
"                                  ; 5 q t Z p i i : ; %   . . . .   X 6 5 ;                                                     ",
"                                    . X e G Z G e X .                 . .                                                       ",
"                                    . X 0 e w w r X .                 . .                                                       ",
"                                        X X X X X                                                                               ",
"                                        . . . . .                                                                               ",
"                                          .   .                                                                                 ",
"                                                                                                                                "
};
