/* XPM */
static char *result[] = {
/* columns rows colors chars-per-pixel */
"64 64 192 2 ",
"   c #000101",
".  c #0C0604",
"X  c #020C04",
"o  c #0A0A09",
"O  c #110C08",
"+  c #061205",
"@  c #051F07",
"#  c #031909",
"$  c #1A1B01",
"%  c #16110B",
"&  c #1A1919",
"*  c #091713",
"=  c #381E0F",
"-  c #341D0E",
";  c #361F10",
":  c #391F10",
">  c #072107",
",  c #072C0C",
"<  c #08280A",
"1  c #142809",
"2  c #0B350B",
"3  c #0C3D0C",
"4  c #083C14",
"5  c #053C13",
"6  c #072B15",
"7  c #27210A",
"8  c #392211",
"9  c #382617",
"0  c #3D3D15",
"q  c #223906",
"w  c #172738",
"e  c #302B23",
"r  c #43281C",
"t  c #542F1D",
"y  c #41341E",
"u  c #5B341A",
"i  c #663A1D",
"p  c #6A3B1D",
"a  c #653719",
"s  c #713E1D",
"d  c #523E21",
"f  c #5E3520",
"g  c #4A2920",
"h  c #743F20",
"j  c #633F21",
"k  c #0C420D",
"l  c #14430F",
"z  c #18400E",
"x  c #0D4910",
"c  c #0A4416",
"v  c #134C10",
"b  c #1D4913",
"n  c #1D4711",
"m  c #0E5D1A",
"M  c #0D5216",
"N  c #1A5B14",
"B  c #26570C",
"V  c #234F1A",
"C  c #3D4116",
"Z  c #215115",
"A  c #23501B",
"S  c #30550E",
"D  c #0F611C",
"F  c #14661D",
"G  c #27731B",
"H  c #28741B",
"J  c #306D1C",
"K  c #135129",
"L  c #285420",
"P  c #0E6D24",
"I  c #186B24",
"U  c #0F7225",
"Y  c #0E7B29",
"T  c #0B7C26",
"R  c #117526",
"E  c #117927",
"W  c #117C29",
"Q  c #1C7729",
"!  c #247132",
"~  c #5B471E",
"^  c #43470A",
"/  c #66431E",
"(  c #73401F",
")  c #777703",
"_  c #425E25",
"`  c #475B24",
"'  c #584728",
"]  c #6D4B21",
"[  c #6C4320",
"{  c #744120",
"}  c #784622",
"|  c #734A25",
" . c #684F39",
".. c #67533B",
"X. c #6C5426",
"o. c #486324",
"O. c #597A35",
"+. c #597225",
"@. c #2C4D6E",
"#. c #077679",
"$. c #6A5C4D",
"%. c #6A6B54",
"&. c #405B75",
"*. c #82561D",
"=. c #85572F",
"-. c #8C5E31",
";. c #835431",
":. c #8E6333",
">. c #926E3A",
",. c #8C723A",
"<. c #93733A",
"1. c #987B3C",
"2. c #98702B",
"3. c #A0763E",
"4. c #A2793F",
"5. c #A57B41",
"6. c #A97E43",
"7. c #8A7966",
"8. c #198229",
"9. c #278927",
"0. c #358C24",
"q. c #299129",
"w. c #269029",
"e. c #3A9325",
"r. c #3B9A26",
"t. c #379C29",
"y. c #3DA229",
"u. c #469928",
"i. c #408F25",
"p. c #41A529",
"a. c #43A82A",
"s. c #759239",
"d. c #2B8C42",
"f. c #608F4B",
"g. c #78C873",
"h. c #818100",
"j. c #AE9512",
"k. c #BDA10E",
"l. c #AE893A",
"z. c #A68237",
"x. c #B28D3B",
"c. c #91AB3C",
"v. c #9ECD19",
"b. c #A0D215",
"n. c #CCCC00",
"m. c #D7D806",
"M. c #E8E701",
"N. c #F1EA07",
"B. c #F5F107",
"V. c yellow",
"C. c #FDF808",
"Z. c #EBF101",
"A. c #AD864E",
"S. c #B58F6A",
"D. c #B9946F",
"F. c #BD9866",
"G. c #AD9B72",
"H. c #BD9671",
"J. c #BEA678",
"K. c #C5964A",
"L. c #D5A84B",
"P. c #E4B54A",
"I. c #E5AE55",
"U. c #C4A06F",
"Y. c #C4A279",
"T. c #037E89",
"R. c #456382",
"E. c #7FAC86",
"W. c #0EA2D0",
"Q. c #08ADED",
"!. c #00B0EA",
"~. c #00BDFF",
"^. c #999E9A",
"/. c #A69482",
"(. c #BDA393",
"). c #A1A39D",
"_. c #C4AB82",
"`. c #D6B588",
"'. c #DCBB92",
"]. c #8AC197",
"[. c #81E182",
"{. c #E5CDA4",
"}. c #E6D4AC",
"|. c #F2D7AF",
" X c #F7DCB3",
".X c #FDE2B9",
"XX c #CFD6D4",
"oX c #E8D8C5",
"OX c #FFEBC1",
"+X c white",
"@X c #E9EDEC",
"#X c None",
/* pixels */
"#X#X#X#X#X#X#X#X#X#X#X#X#X#X#X#X#X#X#X#X#X#X#X#X#X#X#X#X#X#X#X#X#X#X#X#X#X#X#X#X#X#X#X#X#X#X#X#X#X#X#X#X#X#X#X#X#X#X#X#X#X#X#X#X",
"#X#X#X#X#X#X#X#X#X#X#X#X#X#X#X#X#X#X#X#X#X#X#X#X#X#X#X#X#X#X#X#X#X#X#X#X#X#X#X#X#X#X#X#X#X#X#X#X#X#X#X#X#X#X#X#X#X#X#X#X#X#X#X#X",
"#X#X#X#X#X#X#X#X#X#X#X#X#X#X#X#X#X#X#X#X#X#X#X#X#X  O <.5.5.5.5.5.5.-.h #X#X#X#X#X#X#X#X#X#X#X#X#X#X#X#X#X#X#X#X#X#X#X#X#X#X#X#X",
"#X#X#X#X#X#X#X#X#X#X#X#X#X#X#X#X#X#X#X#X#X#X#X#X    O >.5.5.5.5.5.5.-.s { #X#X#X#X#X#X#X#X#X#X#X#X#X#X#X#X#X#X#X#X#X#X#X#X#X#X#X",
"#X#X#X#X#X#X#X#X#X#X#X#X#X#X#X#X#X#X#X#X#X#X#X#X% % 7 1.l.l.l.l.l.l.2.*.*.#X#X#X#X#X#X#X#X#X#X#X#X#X#X#X#X#X#X#X#X#X#X#X#X#X#X#X",
"#X#X#X#X#X#X#X#X#X#X#X#X#X#X#X#X#X#X#X#X#X#X    X.K.L.N.B.B.B.B.B.B.N.N.N.P.I.K.5.5.#X#X#X#X#X#X#X#X#X#X#X#X#X#X#X#X#X#X#X#X#X#X",
"#X#X#X#X#X#X#X#X#X#X#X#X#X#X#X#X#X#X#X#X#X#X    X.I.P.C.V.V.V.V.V.V.V.V.C.P.I.A.6.6.#X#X#X#X#X#X#X#X#X#X#X#X#X#X#X#X#X#X#X#X#X#X",
"#X#X#X#X#X#X#X#X#X#X#X#X#X#X#X#X#X#X#X#X    @ @ o.c.c.b.b.b.b.b.b.b.b.b.b.c.c.s.O.O.1.6.#X#X#X#X#X#X#X#X#X#X#X#X#X#X#X#X#X#X#X#X",
"#X#X#X#X#X#X#X#X#X#X#X#X#X#X#X#X#X#X#X    X 3 k H y.y.y.y.y.y.y.y.y.y.y.y.y.p.w.T Q 1.6.6.#X#X#X#X#X#X#X#X#X#X#X#X#X#X#X#X#X#X#X",
"#X#X#X#X#X#X#X#X#X#X#X#X#X#X#X#X#X#X#X      l v H r.r.r.t.r.r.r.r.r.r.r.r.r.r.9.U Q ,.<.<.#X#X#X#X#X#X#X#X#X#X#X#X#X#X#X#X#X#X#X",
"#X#X#X#X#X#X#X#X#X#X#X#X#X#X#X#X#X#X#X    + 0.r.H v v v v v v v v v v v v v v v x x b b ^ h ( #X#X#X#X#X#X#X#X#X#X#X#X#X#X#X#X#X",
"#X#X#X#X#X#X#X#X#X#X#X#X#X#X#X#X#X#X#X#X  + e.a.G k 3 k 3 l 3 3 k 3 k k k 3 3 k k k k k C { ( #X#X#X#X#X#X#X#X#X#X#X#X#X#X#X#X#X",
"#X#X#X#X#X#X#X#X#X#X#X#X#X#X#X#X#X#X#X+ > < G G G G G G G G G G H G H G H G H N k c m D ` :.-.#X#X#X#X#X#X#X#X#X#X#X#X#X#X#X#X#X",
"#X#X#X#X#X#X#X#X#X#X#X#X#X#X#X#X#X    > k k 3 3 G a.a.p.a.p.a.p.p.p.p.p.p.p.a.H 3 x U Y O.6.A.#X#X#X#X#X#X#X#X#X#X#X#X#X#X#X#X#X",
"#X#X#X#X#X#X#X#X#X#X#X#X#X#X#X#X#X    > k k k k G a.p.y.p.p.a.y.p.p.p.p.p.t.p.H k x U T O.<.<.#X#X#X#X#X#X#X#X#X#X#X#X#X#X#X#X#X",
"#X#X#X#X#X#X#X#X#X#X#X#X#X#X#X#X#X    > k k k k G p.p.p.p.p.y.u.p.p.p.p.y.8.W W Y P x x l n n #X#X#X#X#X#X#X#X#X#X#X#X#X#X#X#X#X",
"#X#X#X#X#X#X#X#X#X#X#X#X#X#X#X#X#X    > k k k 3 H a.a.p.p.p.p.p.p.p.p.p.p.W Y W Y U x k k k k #X#X#X#X#X#X#X#X#X#X#X#X#X#X#X#X#X",
"#X#X#X#X#X#X#X#X#X#X#X#X#X5.F.#XG.1 > k m D D m H p.a.y.p.p.p.p.p.p.p.p.t.W W Y Y U x k k k b G.#XH.5.#X#X#X#X#X#X#X#X#X#X#X#X#X",
"#X#X#X#X#X#X#X#X#X#X#X#X5.4.F.`.(.A k D W Y Y Y q.p.p.p.p.p.p.p.p.p.p.p.p.W Y W Y Y x k k k Z _.`.F.4.5.#X#X#X#X#X#X#X#X#X#X#X#X",
"#X#X#X#X#X#X#X#X#X#X#X#XA.A.U.'.Y.A k m P U E E q.y.t.p.p.p.p.y.p.p.y.y.t.Q Y U P P x x x k A _.'.U.A.A.#X#X#X#X#X#X#X#X#X#X#X#X",
"#X#X#X#X#X#X#X#X#X#X( ;.{..X.X.X{.L k < X # U Y W 8.8.y.p.p.p.p.p.p.q.W 8.Y Y c X # P R m 3 A {..X X|.{.=.s #X#X#X#X#X#X#X#X#X#X",
"#X#X#X#X#X#X#X#X#X{ ( ;.|.OX.XOX}.A k >   X P W W E W y.p.p.p.p.p.p.q.W W W W c   X P Y D k L }.OXOXOX|.;.s { #X#X#X#X#X#X#X#X#X",
"#X#X#X#X#X#X#X#X#X#X( ;.S.F.Y.Y.J.Z k >   X M D P E W w.q.q.q.q.q.q.8.W E D D ,   X M D x k Z J.`.Y.F.D.;.( #X#X#X#X#X#X#X#X#X#X",
"#X#X#X#X#X#X#X#X#X#X#X#Xs p -.5.<.b k @   X 3 k D W E Y E U Y Y E E W W R x k >     3 k k k n <.4.=.p s #X#X#X#X#X#X#X#X#X#X#X#X",
"#X#X#X#X#X#X#X#X#X#X#X#X{ ( -.3.,.K K 6   X 2 3 m W W Y W W Y R W W E R P k 4 >   + 3 k x K K <.3.-.( { #X#X#X#X#X#X#X#X#X#X#X#X",
"#X#X#X#X#X#X#X#X#X#X#X#X#X#X} }  .W.!.#.3 2 X   c Y W W W Y W W W W D x k X   > 3 3 k k #.!.W. .} } #X#X#X#X#X#X#X#X#X#X#X#X#X#X",
"#X#X#X#X#X#X#X#X#X#X#X#X#X#X#X(  .Q.~.T.k 3     c W W Y W R W W W W D k 3 X   < k k k k T.~.Q. .( #X#X#X#X#X#X#X#X#X#X#X#X#X#X#X",
"#X#X#X#X#X#X#X#X#X#X#X#X#X#X8 = y g.[.f.C 0 .   , D D R W Y W Y E W m k 3     > k l C 0 f.[.g.y : 8 #X#X#X#X#X#X#X#X#X#X#X#X#X#X",
"#X#X#X#X#X#X#X#X#X#X#X#X#X#X    $ M.V.k.h p .   > k x R W W W W Y W D k 3     > x z / h k.V.M.$     #X#X#X#X#X#X#X#X#X#X#X#X#X#X",
"#X#X#X#X#X#X#X#X#X#X#X#X#X#X#X  $ n.M.j.} [ 7 $ 1 3 k R W W W U R U m 3 2 $ $ q B S | } j.M.n.$   #X#X#X#X#X#X#X#X#X#X#X#X#X#X#X",
"#X#X#X#X#X#X#X#X#X#X#X#X#X#X#X#X#X$ $ ~ 5.4.m.M.)   + P Y W Y R x x <   $ n.M.M.M.m.z.3.~ $ $ #X#X#X#X#X#X#X#X#X#X#X#X#X#X#X#X#X",
"#X#X#X#X#X#X#X#X#X#X#X#X#X#X#X#X#X    d 6.l.C.V.s.  X P W W W R x k @   $ M.V.V.V.C.x.6.d     #X#X#X#X#X#X#X#X#X#X#X#X#X#X#X#X#X",
"#X#X#X#X#X#X#X#X#X#X#X#X#X#X#X#X#X#X#X9 d ~ ) h.y   X P W Y W P , > ^ h.h.) h.h.*.s.^ ~ 8 #X#X#X#X#X#X#X#X#X#X#X#X#X#X#X#X#X#X#X",
"#X#X#X#X#X#X#X#X#X#X#X#X#X#X#X#X#X#X#X#X            X P W E W P X   h.V.Z.$         .   #X#X#X#X#X#X#X#X#X#X#X#X#X#X#X#X#X#X#X#X",
"#X#X#X#X#X#X#X#X#X#X#X#X#X#X#X#X#X#X#X      . . X   X P E R E P X   ) Z.n.1 X     X       #X#X#X#X#X#X#X#X#X#X#X#X#X#X#X#X#X#X#X",
"#X#X#X#X#X#X#X#X#X#X#X#X#X#X#X#X#X#X#X    . u p -   X 3 x x x k X   1 B B 3 3 3 2 2 X     #X#X#X#X#X#X#X#X#X#X#X#X#X#X#X#X#X#X#X",
"#X#X#X#X#X#X#X#X#X#X#X#X#X#X#X#X#X#X#X    . i s =     3 k k k 3     > k k k k k 5 2 X     #X#X#X#X#X#X#X#X#X#X#X#X#X#X#X#X#X#X#X",
"#X#X#X#X#X#X#X#X#X#X#X#X#X#X#X#X#X#X#X    % /.(.%.5 4 > > > > > > > 2 k l k k x P M X     #X#X#X#X#X#X#X#X#X#X#X#X#X#X#X#X#X#X#X",
"#X#X#X#X#X#X#X#X#X#X#X#X#X#X#X#X#X#X#X    & @X+X].Y U X         3 k k k k c k D 8.U X   #X#X#X#X#X#X#X#X#X#X#X#X#X#X#X#X#X#X#X#X",
"#X#X#X#X#X#X#X#X#X#X#X#X#X#X#X#X#X#X#X#X  % XX@XE.R I @ X X + + k x c x v l q I d.! * o o #X#X#X#X#X#X#X#X#X#X#X#X#X#X#X#X#X#X#X",
"#X#X#X#X#X#X#X#X#X#X#X#X#X#X#X#X#X#X#X#X#X#X& & y ( ~ I R P U P R R R U I ~ p /.@XXX&.@.w     #X#X#X#X#X#X#X#X#X#X#X#X#X#X#X#X#X",
"#X#X#X#X#X#X#X#X#X#X#X#X#X#X#X#X#X#X#X#X#X#X    r ( / Q Y Y Y Y 8.T Y T W [ ( (.+X@XR.@.w     #X#X#X#X#X#X#X#X#X#X#X#X#X#X#X#X#X",
"#X#X#X#X#X#X#X#X#X#X#X#X#X#X#X#X#X#X#X#X  + V Z J +.+.o.o._ _ _ ` ` J ` ` 8 8 7.oXoX).).$.; : .   #X#X#X#X#X#X#X#X#X#X#X#X#X#X#X",
"#X#X#X#X#X#X#X#X#X#X#X#X#X#X#X#X#X#X#X    + e.a.y.y.u.( s { h h { h h h i .   $.'.'..XOXH.h p .     #X#X#X#X#X#X#X#X#X#X#X#X#X#X",
"#X#X#X#X#X#X#X#X#X#X#X#X#X#X#X#X#X#X#X    + 0.y.y.a.u.X.( | / ] | | ] ] [ +   ..J._. XOXD.h i .     #X#X#X#X#X#X#X#X#X#X#X#X#X#X",
"#X#X#X#X#X#X#X#X#X#X#X#X#X#X#X#X#X#X#X    X R 8.q.a.p.u.p.u.p.u.u.u.u.u.e.l 3 1 % e }.OXD.s i .     #X#X#X#X#X#X#X#X#X#X#X#X#X#X",
"#X#X#X#X#X#X#X#X#X#X#X#X#X#X#X#X#X#X#X    X P Y q.a.a.a.a.a.p.p.y.y.a.a.r.v l >   & }.OXH.p i .     #X#X#X#X#X#X#X#X#X#X#X#X#X#X",
"#X#X#X#X#X#X#X#X#X#X#X#X#X#X#X#X#X#X#X#X  X 4 4 b Z Z Z Z H p.p.y.a.a.y.t.F D ,   o %.7. .; ; .   #X#X#X#X#X#X#X#X#X#X#X#X#X#X#X",
"#X#X#X#X#X#X#X#X#X#X#X#X#X#X#X#X#X#X#X#X#X#X              Z a.p.p.p.p.p.p.W W 4               #X#X#X#X#X#X#X#X#X#X#X#X#X#X#X#X#X",
"#X#X#X#X#X#X#X#X#X#X#X#X#X#X#X#X#X#X#X#X#X#X    . . . O O S e.e.e.e.e.e.0.R U 4               #X#X#X#X#X#X#X#X#X#X#X#X#X#X#X#X#X",
"#X#X#X#X#X#X#X#X#X#X#X#X#X#X#X#X#X#X#X#X#X#X    ; i [ :.>.y + + + + + + + X X X #X#X#X#X#X#X#X#X#X#X#X#X#X#X#X#X#X#X#X#X#X#X#X#X",
"#X#X#X#X#X#X#X#X#X#X#X#X#X#X#X#X#X#X#X#X#X#X    ; { } 5.A.d                     #X#X#X#X#X#X#X#X#X#X#X#X#X#X#X#X#X#X#X#X#X#X#X#X",
"#X#X#X#X#X#X#X#X#X#X#X#X#X#X#X#X#X#X#X#X  . ; : j -.:.3.5.d       #X          #X#X#X#X#X#X#X#X#X#X#X#X#X#X#X#X#X#X#X#X#X#X#X#X#X",
"#X#X#X#X#X#X#X#X#X#X#X#X#X#X#X#X#X#X#X    . i h -.6.5.5.5.d     #X#X#X#X#X#X#X#X#X#X#X#X#X#X#X#X#X#X#X#X#X#X#X#X#X#X#X#X#X#X#X#X",
"#X#X#X#X#X#X#X#X#X#X#X#X#X#X#X#X#X#X#X    o p h -.5.5.5.6.t     #X#X#X#X#X#X#X#X#X#X#X#X#X#X#X#X#X#X#X#X#X#X#X#X#X#X#X#X#X#X#X#X",
"#X#X#X#X#X#X#X#X#X#X#X#X#X#X#X#X#X#X#X    . j h -.5.5.5.5.'     #X#X#X#X#X#X#X#X#X#X#X#X#X#X#X#X#X#X#X#X#X#X#X#X#X#X#X#X#X#X#X#X",
"#X#X#X#X#X#X#X#X#X#X#X#X#X#X#X#X#X#X#X    . p h -.6.5.5.6.~     #X#X#X#X#X#X#X#X#X#X#X#X#X#X#X#X#X#X#X#X#X#X#X#X#X#X#X#X#X#X#X#X",
"#X#X#X#X#X#X#X#X#X#X#X#X#X#X#X#X#X#X#X    . g f | -.-.-.-.r     #X#X#X#X#X#X#X#X#X#X#X#X#X#X#X#X#X#X#X#X#X#X#X#X#X#X#X#X#X#X#X#X",
"#X#X#X#X#X#X#X#X#X#X#X#X#X#X#X#X#X#X#X    . r g f { h { { 8     #X#X#X#X#X#X#X#X#X#X#X#X#X#X#X#X#X#X#X#X#X#X#X#X#X#X#X#X#X#X#X#X",
"#X#X#X#X#X#X#X#X#X#X#X#X#X#X#X#X#X#X#X#X  . ; r t i i i i ;     #X#X#X#X#X#X#X#X#X#X#X#X#X#X#X#X#X#X#X#X#X#X#X#X#X#X#X#X#X#X#X#X",
"#X#X#X#X#X#X#X#X#X#X#X#X#X#X#X#X#X#X#X#X#X#X. . . . . . . . #X#X#X#X#X#X#X#X#X#X#X#X#X#X#X#X#X#X#X#X#X#X#X#X#X#X#X#X#X#X#X#X#X#X",
"#X#X#X#X#X#X#X#X#X#X#X#X#X#X#X#X#X#X#X#X#X#X                #X#X#X#X#X#X#X#X#X#X#X#X#X#X#X#X#X#X#X#X#X#X#X#X#X#X#X#X#X#X#X#X#X#X",
"#X#X#X#X#X#X#X#X#X#X#X#X#X#X#X#X#X#X#X#X#X#X#X  #X#X#X#X  #X#X#X#X#X#X#X#X#X#X#X#X#X#X#X#X#X#X#X#X#X#X#X#X#X#X#X#X#X#X#X#X#X#X#X",
"#X#X#X#X#X#X#X#X#X#X#X#X#X#X#X#X#X#X#X#X#X#X#X#X#X#X#X#X#X#X#X#X#X#X#X#X#X#X#X#X#X#X#X#X#X#X#X#X#X#X#X#X#X#X#X#X#X#X#X#X#X#X#X#X"
};
