/* XPM */
static char *result[] = {
/* columns rows colors chars-per-pixel */
"64 64 215 2 ",
"   c #000101",
".  c #0B0604",
"X  c #020C05",
"o  c #09090B",
"O  c #130D0A",
"+  c #061205",
"@  c #051F06",
"#  c #0B1809",
"$  c #15120D",
"%  c #1B1A03",
"&  c #181614",
"*  c #01121C",
"=  c #361E0F",
"-  c #241410",
";  c #2B1D15",
":  c #381F10",
">  c #21120F",
",  c #072107",
"<  c #072409",
"1  c #0B3D0B",
"2  c #0A350B",
"3  c #063C14",
"4  c #093C15",
"5  c #093A17",
"6  c #3A2211",
"7  c #392416",
"8  c #2F2D1D",
"9  c #172838",
"0  c #1E2226",
"q  c #42251D",
"w  c #412B1D",
"e  c #4D381C",
"r  c #59361B",
"t  c #542F1D",
"y  c #663A1D",
"u  c #6B3B1D",
"i  c #713E1E",
"p  c #4B2920",
"a  c #503627",
"s  c #633821",
"d  c #743F20",
"f  c #0C420D",
"g  c #124B0F",
"h  c #0C4413",
"j  c #0D4911",
"k  c #0B4E18",
"l  c #124C10",
"z  c #134017",
"x  c #0E5E1B",
"c  c #0D5418",
"v  c #195413",
"b  c #244D1B",
"n  c #215215",
"m  c #3C4A1F",
"M  c #0F621D",
"N  c #1A671E",
"B  c #27731B",
"V  c #2A781D",
"C  c #325722",
"Z  c #0E6E24",
"A  c #0D6221",
"S  c #0E7325",
"D  c #0E7B29",
"F  c #097925",
"G  c #107526",
"H  c #107B29",
"J  c #127727",
"K  c #1C6423",
"L  c #247725",
"P  c #74411F",
"I  c #62451E",
"U  c #7B730D",
"Y  c #564526",
"T  c #425E25",
"R  c #5F503E",
"E  c #6E4B21",
"W  c #684326",
"Q  c #754321",
"!  c #7A4927",
"~  c #6A5429",
"^  c #715828",
"/  c #577324",
"(  c #2D455E",
")  c #2C4B6A",
"_  c #315476",
"`  c #34516F",
"'  c #524A4E",
"]  c #685844",
"[  c #717C4C",
"{  c #756E53",
"}  c #4E667D",
"|  c #797878",
" . c #776F6D",
".. c #50665C",
"X. c #82551C",
"o. c #875833",
"O. c #83532A",
"+. c #956E38",
"@. c #9E743D",
"#. c #A8783B",
"$. c #8F671A",
"%. c #977752",
"&. c #8F7749",
"*. c #A47A41",
"=. c #A67D45",
"-. c #A67C58",
";. c #8B7D67",
":. c #188329",
">. c #258425",
",. c #278A29",
"<. c #299029",
"1. c #27902A",
"2. c #3A9225",
"3. c #3C9A26",
"4. c #369627",
"5. c #328931",
"6. c #3DA229",
"7. c #788F18",
"8. c #469A28",
"9. c #449925",
"0. c #5B8E2C",
"q. c #72913C",
"w. c #41A529",
"e. c #4BA525",
"r. c #56AF25",
"t. c #7AB617",
"y. c #75945C",
"u. c #808000",
"i. c #B99E17",
"p. c #B9A010",
"a. c #AE893A",
"s. c #AC873B",
"d. c #B28A39",
"f. c #95AB3C",
"g. c #93B234",
"h. c #89BF14",
"j. c #D2BD21",
"k. c #CCB12F",
"l. c #D1BD1F",
"z. c #9ACD18",
"x. c #A2D414",
"c. c #E4DD09",
"v. c #D7E709",
"b. c #EAE508",
"n. c #F1EC05",
"m. c #EAF504",
"M. c #F6F206",
"N. c #FFFE01",
"B. c #FBF609",
"V. c #FEFA08",
"C. c #F8ED12",
"Z. c #FDFA18",
"A. c #D7C128",
"S. c #EFD529",
"D. c #E4D12B",
"F. c #EED329",
"G. c #90844F",
"H. c #AB8143",
"J. c #AC844C",
"K. c #B68F4C",
"L. c #869465",
"P. c #BB9567",
"I. c #BF9C75",
"U. c #BEA07C",
"Y. c #C49648",
"T. c #C8A449",
"R. c #D9AB4A",
"E. c #DDAA53",
"W. c #D8A752",
"Q. c #CDAB50",
"!. c #E2B54A",
"~. c #E5BA45",
"^. c #E2AD54",
"/. c #E5B354",
"(. c #C1A37E",
"). c #C09A64",
"_. c #2B4F9D",
"`. c #4765A8",
"'. c #456281",
"]. c #6FB1A1",
"[. c #04B1F1",
"{. c #10A0D1",
"}. c #7ED2E2",
"|. c #838495",
" X c #87868B",
".X c #8FAF92",
"XX c #99ABB9",
"oX c #BFB39F",
"OX c #CDAA82",
"+X c #C4A782",
"@X c #D6B58C",
"#X c #D9B78D",
"$X c #DCBA8D",
"%X c #D5B383",
"&X c #DBBB91",
"*X c #CDB287",
"=X c #8AC096",
"-X c #DDC69D",
";X c #E7CCA5",
":X c #F1D5AD",
">X c #F5DAB0",
",X c #EBD5AB",
"<X c #FCE5A9",
"1X c #FEE4BB",
"2X c #FFE8BF",
"3X c #FBE1B7",
"4X c #88CDD4",
"5X c #CFD5D3",
"6X c #FFEAC2",
"7X c #FFECCE",
"8X c #FFF3DF",
"9X c #F1E6D6",
"0X c white",
"qX c #ECEEEF",
"wX c None",
/* pixels */
"wXwXwXwXwXwXwXwXwXwXwXwXwXwXwXwXwXwXwXwXwXwXwXwXwXwXwXwXwXwXwXwXwXwXwXwXwXwXwXwXwXwXwXwXwXwXwXwXwXwXwXwXwXwXwXwXwXwXwXwXwXwXwXwX",
"wXwXwXwXwXwXwXwXwXwXwXwXwXwXwXwXwXwXwXwXwXwXwXwXwXwXwXwXwXwXwXwXwXwXwXwXwXwXwXwXwXwXwXwXwXwXwXwXwXwXwXwXwXwXwXwXwXwXwXwXwXwXwXwX",
"wXwXwXwXwXwXwXwXwXwXwXwXwXwXwXwXwXwXwXwXwXwXwXwXwXwXwXwXwXwXwXwXwXwXwXwXwXwXwXwXwXwXwXwXwXwXwXwXwXwXwXwXwXwXwXwXwXwXwXwXwXwXwXwX",
"wXwXwXwXwXwXwXwXwXwXwXwXwXwXwXwXwXwXwXwXwXwXwXwXwXwXwXwXwXwXwXwXwXwXwXwXwXwXwXwXwXwXwXwXwXwXwXwXwXwXwXwXwXwXwXwXwXwXwXwXwXwXwXwX",
"wXwXwXwXwXwXwXwXwXwXwXwXwXwXwXwXwXwXwXwXwXwXwXwXwXwXwXwXwXwXwXwXwXwXwXwXwXwXwXwXwXwXwXwXwXwXwXwXwXwXwXwXwXwXwXwXwXwXwXwXwXwXwXwX",
"wXwXwXwXwXwXwXwXwXwXwXwXwXwXwXwXwXwXwXwXwXwXwXwXwXwXwXwXwXwXwXwXwXwXwXwXwXwXwXwXwXwXwXwXwXwXwXwXwXwXwXwXwXwXwXwXwXwXwXwXwXwXwXwX",
"wXwXwXwXwXwXwXwXwXwXwXwXwXwXwXwXwXwXwXwXwXwXwXwXH H 6.w.w.w.w.w.w.B f j S D T d ! @.*.wXwXwXwXwXwXwXwXwXwXwXwXwXwXwXwXwXwXwXwXwX",
"wXwXwXwXwXwXwXwXwXwXwXwXwXwXwXwXwXwXwXwXwXwXwXH H :.6.w.w.w.w.w.w.B f j S D T d Q @.*.*.wXwXwXwXwXwXwXwXwXwXwXwXwXwXwXwXwXwXwXwX",
"wXwXwXwXwXwXwXwXwXwXwXwXwXwXwXwXwXwXwXwXwXwXwXH :.:.6.w.w.w.w.3.3.B g v >.,./ ! X.s.H.H.wXwXwXwXwXwXwXwXwXwXwXwXwXwXwXwXwXwXwXwX",
"wXwXwXwXwXwXwXwXwXwXwXwXwXwXwXwXwXwXwXH H H D 1.6.3.6.w.w.w.3.v l B 3.e.v.m.n.n.n.R.W.R.E.W.H.*.wXwXwXwXwXwXwXwXwXwXwXwXwXwXwXwX",
"wXwXwXwXwXwXwXwXwXwXwXwXwXwXwXwXwXwXwXH D D D <.w.w.w.w.w.w.3.g 1 B 6.r.m.N.N.N.V.!.E.E.E.W.=.s.wXwXwXwXwXwXwXwXwXwXwXwXwXwXwXwX",
"wXwXwXwXwXwXwXwXwXwXwXwXwXwXf j S wX,.<.<.<.,.4.w.w.6.6.2.B B B B 0.f.f.D.S.S.S.S.S.S.S.S.S.Y.K.K.wXwXwXwXwXwXwXwXwXwXwXwXwXwXwX",
"wXwXwXwXwXwXwXwXwXwXwXwXwXf f j G H <.w.w.w.w.w.w.w.w.w.B 1 g 3.6.f.^.^.^.E.E.E.!.B.N.N.N.B.!.^.Y.#.#.wXwXwXwXwXwXwXwXwXwXwXwXwX",
"wXwXwXwXwXwXwXwXwXwXwXwXwXj j j S H <.w.w.w.w.w.w.w.w.w.B 1 g 9.6.f.!.!.!.!.R.W.R.C.V.B.B.M.~.!.Y.d.a.wXwXwXwXwXwXwXwXwXwXwXwXwX",
"wXwXwXwXwXwXwXwXwXwXwXf f x G G H H <.w.w.w.w.w.w.w.w.w.B f g 3.6.z.V.B.B.V.j.=.H.!.!.~.!.~.C.B.B.M.b.a.*.wXwXwXwXwXwXwXwXwXwXwX",
"wXwXwXwXwXwXwXwXwXwXwXf f M H H J G <.w.w.w.w.w.w.w.w.w.B f g 3.6.x.N.N.N.N.j.*.H.E.E.E.E.!.V.N.N.V.B.a.*.*.wXwXwXwXwXwXwXwXwXwX",
"wXwXwXwXwXwXwXwXwX  X f f x H H H H :.<.,.V B B B V 3.w.B f g 3.6.g.S.S.B.N.j.*.#.#.#.Y.E.^.S.S.C.N.M.s.*.*.wXwXwXwXwXwXwXwXwXwX",
"wXwXwXwXwXwXwXwX      1 f x H H H H J D G f 1 f f j 3.w.B f g 3.6.f.^.!.B.N.j.*.@.P i #.^.E.E.E.S.N.M.s.*.*.wXwXwXwXwXwXwXwXwXwX",
"wXwXwXwXwXwXwXwX      1 j M H H H D H H G k j l g v 2.3.B g v e.r.g.E.!.C.M.j.=.=.O.! #.E.W.W.W.D.n.b.s.*.wXwXwXwXwXwXwXwXwXwXwX",
"wXwXwXwXwXwXwXwX    + Z G J H H H H H H H G S >.3.2.v g B 3.e.v.m.D.E.R.d.a.).*XOXOX(.P.H.H.H.H.+.X.X.wXwXwXwXwXwXwXwXwXwXwXwXwX",
"wXwXwXwXwXwXwXwX    X Z D S H H H D H H H H D <.w.3.g f B 6.r.m.N.S.^.R.H.#.P.@X@X@X#XP.*.=.#.*.o.i Q wXwXwXwXwXwXwXwXwXwXwXwXwX",
"wXwXwXwXwXwXwXwX    X Z H H H H H J H H H H H :.<.,.g f N ,.9.m.N.S.E.E.P.P.%X;X;X@X#X%.e Y +.wXo.i wXwXwXwXwXwXwXwXwXwXwXwXwXwX",
"wXwXwXwXwXwXwXwXwX  X Z H H H H H H H H H H H H D G h f M D >.m.N.S.E.E.%X@X;X6X1X&X$X]     wXwXwXwXwXwXwXwXwXwXwXwXwXwXwXwXwXwX",
"wXwXwXwXwXwXwXwXX   + S H H H H D H H H J G G G S S j h K >.2.b.B.D.!./.@X&X-X,X-XOXOX]     wXwXwXwXwXwXwXwXwXwXwXwXwXwXwXwXwXwX",
"wXwXwXwXwXwX    @ 1 h G H H H H H H H H G j j j j j S F q.T.T.d.s.A.V.Z.<X1X;.& ; ! O.q     wXwXwXwXwXwXwXwXwXwXwXwXwXwXwXwXwXwX",
"wXwXwXwXwXwX    , f f G H H H H H H H H G 1 1 1 1 f S F q.^.^.=.@.l.V.Z.<X6X{   . u d =     wXwXwXwXwXwXwXwXwXwXwXwXwXwXwXwXwXwX",
"wXwXwXwXwXwX    < f j G H H H G M x M x K y.L.L.L.L.y.y.&.#.#.Y.K.k.j.j.<X2XoX X'. .' ' ] ] $   wXwXwXwXwXwXwXwXwXwXwXwXwXwXwXwX",
"wXwXwXwXwXwX    < f j G H H H G f f f f K ,X6X6X2X1X&X@X-.i d W./.Y.*.-.>X1X8X0X0X`._.|.$X(.&     wXwXwXwXwXwXwXwXwXwXwXwXwXwXwX",
"wXwXwXwXwXwX    @ 1 h G H J S S f 1 1 1 b -X3X3X2X3X-X-X=.u X.R.!.Y.#.-.>X6X8X0XqX`._.|.#XU.$     wXwXwXwXwXwXwXwXwXwXwXwXwXwXwX",
"wXwXwXwXwXwXwXwX    + Z D M j 4 +   X   $ *.J.%X2X2X3X1XP.i X.b.V.i.Q o.,X1X8X0XqX`._.|.#XU.&     wXwXwXwXwXwXwXwXwXwXwXwXwXwXwX",
"wXwXwXwXwXwXwXwXwX  + Z :.x f 1 X       o +.*.%X6X2X2X2XP.u X.n.N.p.i O.:X1X8X0XqX`._.|.$X(.&     wXwXwXwXwXwXwXwXwXwXwXwXwXwXwX",
"wXwXwXwXwXwXwXwX    X c x h @ @   wX    . e e %.(.@X4X}..X#.#.M.N.p.s o.:X1X7X8X9X|.|. .] ] $   wXwXwXwXwXwXwXwXwXwXwXwXwXwXwXwX",
"wXwXwXwXwXwXwXwX      1 f ,     wXwXwX        e =.G.[.[.].^.!.B.N.p.d ! >X6X1X1X>X&X&X]     wXwXwXwXwXwXwXwXwXwXwXwXwXwXwXwXwXwX",
"wXwXwXwXwXwXwXwXwX  X 1 1 @     wXwX% % % $ $ Y +.&.{.[.].~.~.b.n.i.! o.,X6X6X>X:X+X+X]     wXwXwXwXwXwXwXwXwXwXwXwXwXwXwXwXwXwX",
"wXwXwXwXwXwXwXwXwXwXwX    X wXwXwXwXb.b.c.k.Y.^ o $ * * u.V.b.$.! =.OXOX#X&X#X&X+X8 $ $ wXwXwXwXwXwXwXwXwXwXwXwXwXwXwXwXwXwXwXwX",
"wXwXwXwXwXwXwXwXwXwXwX      wXwXwXwXN.N.V././.^         u.V.n.X.P J.&X#X#X@X#X#X+X$   wXwXwXwXwXwXwXwXwXwXwXwXwXwXwXwXwXwXwXwXwX",
"wXwXwXwXwXwXwXwXwXwXwXwX  wXwXwXwXwXu.u.U ^ ^ m 3 3     U S.A.t = Y [ [ [ [ { ] R o     wXwXwXwXwXwXwXwXwXwXwXwXwXwXwXwXwXwXwXwX",
"wXwXwXwXwXwXwXwXwXwXwXwXwXwXwXwXwXwX          h :.S X   ^ ^.Y.&   , f f 3 f @               wXwXwXwXwXwXwXwXwXwXwXwXwXwXwXwXwXwX",
"wXwXwXwXwXwXwXwXwXwXwXwXwXwXwXwXwXwXwX        5 S A X   ~ Q.K.$   < j f f f @     o o   . . wXwXwXwXwXwXwXwXwXwXwXwXwXwXwXwXwXwX",
"wXwXwXwXwXwXwXwXwXwXwXwXwXwXwXwXwXwXwXwXwXwXwXX X X     5 5.J X   3 G G j f ,   X ( ) ' u y .   wXwXwXwXwXwXwXwXwXwXwXwXwXwXwXwX",
"wXwXwXwXwXwXwXwXwXwXwXwXwXwXwXwXwXwXwXwXwXwXwXwX      O z :.Z o   3 H G j f ,   o ) _ ' P u .     wXwXwXwXwXwXwXwXwXwXwXwXwXwXwX",
"wXwXwXwXwXwXwXwXwXwXwXwXwXwXwXwXwXwXwXwXwXwXwX    $ | '.0.J Z 8 6 b D J M M k 4 5 9 9 a P y .     wXwXwXwXwXwXwXwXwXwXwXwXwXwXwX",
"wXwXwXwXwXwXwXwXwXwXwXwXwXwXwXwXwXwXwXwXwX        & qX0X.XD D W ! T D H H H D F Z X   6 Q y .     wXwXwXwXwXwXwXwXwXwXwXwXwXwXwX",
"wXwXwXwXwXwXwXwXwXwXwXwXwXwXwXwXwXwXwXwXwX    X X 0 5X8X.X5.5.R u C D H D D :.>.L , + 7 y y .   wXwXwXwXwXwXwXwXwXwXwXwXwXwXwXwX",
"wXwXwXwXwXwXwXwXwXwXwXwXwXwXwXwXwXwXwX        9 ) ) } _.XXqX5X0 . z D D H D t.m.v.9.3.n . . wXwXwXwXwXwXwXwXwXwXwXwXwXwXwXwXwXwX",
"wXwXwXwXwXwXwXwXwXwXwXwXwXwXwXwXwXwXwX        9 _ _ _ ) XX0XqX&   3 D :.D F z.V.m.r.w.n     wXwXwXwXwXwXwXwXwXwXwXwXwXwXwXwXwXwX",
"wXwXwXwXwXwXwXwXwXwXwXwXwXwXwXwXwXwX      ; : a ' ' ` _ } L.| q : e C T T T 7.x.z.e.w.n     wXwXwXwXwXwXwXwXwXwXwXwXwXwXwXwXwXwX",
"wXwXwXwXwXwXwXwXwXwXwXwXwXwXwXwX        . y Q Q d d ` _ 9     y P P Q Q Q d / 6.w.w.w.n     wXwXwXwXwXwXwXwXwXwXwXwXwXwXwXwXwXwX",
"wXwXwXwXwXwXwXwXwXwXwXwXwXwXwXwX    . . O Q ! ! d W ) ) 9 X # W E E E E E E / w.w.3.6.v     wXwXwXwXwXwXwXwXwXwXwXwXwXwXwXwXwXwX",
"wXwXwXwXwXwXwXwXwXwXwXwXwXwXwXwX    = y Q U.OX-.d s O o 5 S G 9.8.8.8.8.8.8.w.w.6.:.:.4               wXwXwXwXwXwXwXwXwXwXwXwXwX",
"wXwXwXwXwXwXwXwXwXwXwXwXwXwXwXwX    : d ! *X&X-.P y .   3 D :.3.w.w.w.w.w.w.w.w.6.:.H h               wXwXwXwXwXwXwXwXwXwXwXwXwX",
"wXwXwXwXwXwXwXwXwXwXwXwXwXwXwXwX    ; s s ] ] Y : 7 5 5 N <.<.w.w.w.w.w.w.w.4.,.>.k 4 <     = 6 6 6 : .   wXwXwXwXwXwXwXwXwXwXwX",
"wXwXwXwXwXwXwXwXwXwXwXwXwXwXwXwX    - p 7 .       X S H <.w.w.w.w.w.w.w.w.w.<.D Z X       . s Q Q Q u .     wXwXwXwXwXwXwXwXwXwX",
"wXwXwXwXwXwXwXwXwXwXwXwXwXwXwXwX    - p : . . .   X A Z >.2.2.2.2.2.2.2.2.2.>.Z A o o . . o y d i Q y .     wXwXwXwXwXwXwXwXwXwX",
"wXwXwXwXwXwXwXwXwXwXwXwXwXwXwXwXwXwX. . O q q -     X X + + + + + + + + + + + X O r s t q q p p s P y .     wXwXwXwXwXwXwXwXwXwX",
"wXwXwXwXwXwXwXwXwXwXwXwXwXwXwXwXwXwX    . q p -                                 . u Q s p p p p s Q y .     wXwXwXwXwXwXwXwXwXwX",
"wXwXwXwXwXwXwXwXwXwXwXwXwXwXwXwXwXwXwX  . - - O       wX                  wX    o t s p p p p p q 6 : .   wXwXwXwXwXwXwXwXwXwXwX",
"wXwXwXwXwXwXwXwXwXwXwXwXwXwXwXwXwXwXwXwXwX          wXwXwXwXwXwXwXwXwXwXwXwXwX    p p p p p p p >     wXwXwXwXwXwXwXwXwXwXwXwXwX",
"wXwXwXwXwXwXwXwXwXwXwXwXwXwXwXwXwXwXwXwXwX          wXwXwXwXwXwXwXwXwXwXwXwXwX  . : q q p p 7 q -     wXwXwXwXwXwXwXwXwXwXwXwXwX",
"wXwXwXwXwXwXwXwXwXwXwXwXwXwXwXwXwXwXwXwXwXwXwXwXwXwXwXwXwXwXwXwXwXwXwXwXwXwXwXwXwX. . . .   . .   wXwXwXwXwXwXwXwXwXwXwXwXwXwXwX",
"wXwXwXwXwXwXwXwXwXwXwXwXwXwXwXwXwXwXwXwXwXwXwXwXwXwXwXwXwXwXwXwXwXwXwXwXwXwXwXwXwX                wXwXwXwXwXwXwXwXwXwXwXwXwXwXwX",
"wXwXwXwXwXwXwXwXwXwXwXwXwXwXwXwXwXwXwXwXwXwXwXwXwXwXwXwXwXwXwXwXwXwXwXwXwXwXwXwXwXwX            wXwXwXwXwXwXwXwXwXwXwXwXwXwXwXwX",
"wXwXwXwXwXwXwXwXwXwXwXwXwXwXwXwXwXwXwXwXwXwXwXwXwXwXwXwXwXwXwXwXwXwXwXwXwXwXwXwXwXwXwXwXwXwXwXwXwXwXwXwXwXwXwXwXwXwXwXwXwXwXwXwX",
"wXwXwXwXwXwXwXwXwXwXwXwXwXwXwXwXwXwXwXwXwXwXwXwXwXwXwXwXwXwXwXwXwXwXwXwXwXwXwXwXwXwXwXwXwXwXwXwXwXwXwXwXwXwXwXwXwXwXwXwXwXwXwXwX"
};
