/* XPM */
static char *result[] = {
/* columns rows colors chars-per-pixel */
"64 64 220 2 ",
"   c #000001",
".  c #0B0604",
"X  c #010C05",
"o  c #0E0B09",
"O  c #130C08",
"+  c #051205",
"@  c #061F06",
"#  c #091809",
"$  c #16120E",
"%  c #1A1906",
"&  c #181715",
"*  c #23140D",
"=  c #20180E",
"-  c #361E0F",
";  c #251411",
":  c #221B14",
">  c #361F10",
",  c #072107",
"<  c #072A0C",
"1  c #0C3D0C",
"2  c #093D15",
"3  c #063C14",
"4  c #192819",
"5  c #27211B",
"6  c #3A2111",
"7  c #362415",
"8  c #35322E",
"9  c #44251C",
"0  c #47291D",
"q  c #4E3A1F",
"w  c #65391D",
"e  c #6B3B1D",
"r  c #63361C",
"t  c #723E1F",
"y  c #4B2A21",
"u  c #452C23",
"i  c #5B3720",
"p  c #57372E",
"a  c #6D3D20",
"s  c #623A25",
"d  c #743F20",
"f  c #0C420D",
"g  c #124B0F",
"h  c #0C4314",
"j  c #0D4810",
"k  c #0B4E18",
"l  c #134C10",
"z  c #0E5E1B",
"x  c #0E5216",
"c  c #1C5214",
"v  c #125213",
"b  c #224C19",
"n  c #215215",
"m  c #37511E",
"M  c #0F611C",
"N  c #12631C",
"B  c #27731B",
"V  c #2A781D",
"C  c #275420",
"Z  c #3B5A23",
"A  c #0E6E24",
"S  c #0E6322",
"D  c #176924",
"F  c #0E7B29",
"G  c #0D7325",
"H  c #117526",
"J  c #107827",
"K  c #1A7528",
"L  c #117C29",
"P  c #16782A",
"I  c #1E5826",
"U  c #5D411E",
"Y  c #74411F",
"T  c #524F2C",
"R  c #684721",
"E  c #6C4724",
"W  c #744221",
"Q  c #7B4926",
"!  c #6B5327",
"~  c #75552E",
"^  c #5A7425",
"/  c #5B7A35",
"(  c #417728",
")  c #776B15",
"_  c #225C64",
"`  c #404041",
"'  c #6A5945",
"]  c #645542",
"[  c #655450",
"{  c #6E6E51",
"}  c #757574",
"|  c #82551C",
" . c #87572E",
".. c #885A34",
"X. c #936C36",
"o. c #9C773E",
"O. c #866131",
"+. c #A97A3D",
"@. c #9C7846",
"#. c #967251",
"$. c #A37A41",
"%. c #A77C45",
"&. c #A57C56",
"*. c #8B7D67",
"=. c #14812A",
"-. c #1B8328",
";. c #278928",
":. c #299129",
">. c #3C9A26",
",. c #369B29",
"<. c #399626",
"1. c #26853A",
"2. c #348729",
"3. c #3DA229",
"4. c #6FAC18",
"5. c #489C2A",
"6. c #79943B",
"7. c #688836",
"8. c #41A529",
"9. c #47A72A",
"0. c #55A928",
"q. c #548815",
"w. c #798E5D",
"e. c #808001",
"r. c #B69C16",
"t. c #B89F0F",
"y. c #B9A00F",
"u. c #BFA613",
"i. c #AE893A",
"p. c #A9873A",
"a. c #B18C3C",
"s. c #B89733",
"d. c #B18F25",
"f. c #8E873F",
"g. c #D4BD1E",
"h. c #D2BD22",
"j. c #C9B02A",
"k. c #93C716",
"l. c #A3D414",
"z. c #A0C819",
"x. c #D6C41D",
"c. c #E8E508",
"v. c #F1EB05",
"b. c #ECF604",
"n. c #F6F206",
"m. c #FFFF00",
"M. c #FCF708",
"N. c #D9CC2E",
"B. c #E5CA29",
"V. c #EDD429",
"C. c #F2D829",
"Z. c #DAE108",
"A. c #AB8143",
"S. c #AB834A",
"D. c #B48A47",
"F. c #B88F53",
"G. c #BEA754",
"H. c #BA946D",
"J. c #B39979",
"K. c #AD967A",
"L. c #BEA57C",
"P. c #889667",
"I. c #C1944A",
"U. c #C59A48",
"Y. c #D39E4D",
"T. c #CCA84B",
"R. c #D4A24D",
"E. c #D8AD4A",
"W. c #D8A751",
"Q. c #DEAC53",
"!. c #E3B749",
"~. c #E1AE54",
"^. c #E7B156",
"/. c #C2A37E",
"(. c #C5A67C",
"). c #CEB371",
"_. c #E6D545",
"`. c #FAED59",
"'. c #FAEB62",
"]. c #005D82",
"[. c #2B4E9A",
"{. c #395393",
"}. c #435D9A",
"|. c #47598C",
" X c #506497",
".X c #5CA0A3",
"XX c #0CBDF8",
"oX c #30BBE5",
"OX c #18C0FC",
"+X c #828283",
"@X c #A49791",
"#X c #9DAB9A",
"$X c #C9AB88",
"%X c #D6B48C",
"&X c #DBB98F",
"*X c #D4B385",
"=X c #DBBB92",
"-X c #D0AE84",
";X c #89C097",
":X c #D8C299",
">X c #EBCEA4",
",X c #E5CCA9",
"<X c #E7D3AB",
"1X c #F6DBB1",
"2X c #EFDAB3",
"3X c #FFE6BD",
"4X c #FFE8BF",
"5X c #FAE0B6",
"6X c #D8D1B3",
"7X c #98A9CE",
"8X c #A1ACC9",
"9X c #D2D3CE",
"0X c #FFE9C2",
"qX c #FEE7C2",
"wX c #E5E3D3",
"eX c #E8E8E8",
"rX c #FFFEFD",
"tX c #FFFAF1",
"yX c #F0F0ED",
"uX c None",
/* pixels */
"uXuXuXuXuXuXuXuXuXuXuXuXuXuXuXuXuXuXuXuXuXuXuXuXuXuXuXuXuXuXuXuXuXuXuXuXuXuXuXuXuXuXuXuXuXuXuXuXuXuXuXuXuXuXuXuXuXuXuXuXuXuXuXuX",
"uXuXuXuXuXuXuXuXuXuXuXuXuXuXuXuXuXuXuXuXuXuXuXuXuXuXuXuXuXuXuXuXuXuXuXuXuXuXuXuXuXuXuXuXuXuXuXuXuXuXuXuXuXuXuXuXuXuXuXuXuXuXuXuX",
"uXuXuXuXuXuXuXuXuXuXuXuXuXuXuXuXuXuXuXuXuXuXuXuXuXuXuXuXuXuXuXuXuXuXuXuXuXuXuXuXuXuXuXuXuXuXuXuXuXuXuXuXuXuXuXuXuXuXuXuXuXuXuXuX",
"uXuXuXuXuXuXuXuXuXuXuXuXuXuXuXuXuXuXuXuXuXuXuXuXuXuXuXuXuXuXuXuXuXuXuXuXuXuXuXuXuXuXuXuXuXuXuXuXuXuXuXuXuXuXuXuXuXuXuXuXuXuXuXuX",
"uXuXuXuXuXuXuXuXuXuXuXuXuXuXuXuXuXuXuXuXuXuXuXuXuXuXuXuXuXuXuXuXuXuXuXuXuXuXuXuXuXuXuXuXuXuXuXuXuXuXuXuXuXuXuXuXuXuXuXuXuXuXuXuX",
"uXuXuXuXuXuXuXuXuXuXuXuXuXuXuXuXuXuXuXuXuXuXuXuXuXuXuXuXuXuXuXuXuXuXuXuXuXuXuXuXuXuXuXuXuXuXuXuXuXuXuXuXuXuXuXuXuXuXuXuXuXuXuXuX",
"uXuXuXuXuXuXuXuXuXuXuXuXuXuXuXuXuXuXuXuXuXuXuXuXuXuXuXuXuXuXuXuXuXuXuXuXuXuXuXuXuXuXuXuXuXuXuXuXuXuXuXuXuXuXuXuXuXuXuXuXuXuXuXuX",
"uXuXuXuXuXuXuXuXuXuXuXuXuXuXuXuXuXuXuX+.%...t R K =.M f l >.8.8.8.8.8.8.:.F L uXuXuXuXuXuXuXuXuXuXuXuXuXuXuXuXuXuXuXuXuXuXuXuXuX",
"uXuXuXuXuXuXuXuXuXuXuXuXuXuXuXuXuXuXuX$.$...Y R K F z 1 g >.8.8.8.8.8.8.:.F F uXuXuXuXuXuXuXuXuXuXuXuXuXuXuXuXuXuXuXuXuXuXuXuXuX",
"uXuXuXuXuXuXuXuXuXuXuXuXuXuXuX$.I.uXE.h.h.d...O./ / ( B B B B 2.8.8.8.8.,.:.;.L uXL L uXuXuXuXuXuXuXuXuXuXuXuXuXuXuXuXuXuXuXuXuX",
"uXuXuXuXuXuXuXuXuXuXuXuXuXuX$.$.I.~.!.M.m.h.$.$.+.+.6.3.>.g f B 8.3.8.8.8.8.3.=.L L L L uXuXuXuXuXuXuXuXuXuXuXuXuXuXuXuXuXuXuXuX",
"uXuXuXuXuXuXuXuXuXuXuXuXuXuXi.i.U.W.E.v.n.h.%.S.A.A.6.0.9.c g B >.>.5.8.8.8.>.-.L L -.L uXuXuXuXuXuXuXuXuXuXuXuXuXuXuXuXuXuXuXuX",
"uXuXuXuXuXuXuXuXuXuXuXuX$.i.c.M.j.%.i.i.i.U.W.W.W.R.E.T.G.5.>.B g c >.8.8.8.8.>.3.3.>.,.-.L z f f uXuXuXuXuXuXuXuXuXuXuXuXuXuXuX",
"uXuXuXuXuXuXuXuXuXuXuXuX$.p.n.m.g.+.$.$.$.I.~.Q.Q.Q.Q.Q.T.0.9.B f l >.8.8.8.8.8.8.8.8.3.=.L z f f uXuXuXuXuXuXuXuXuXuXuXuXuXuXuX",
"uXuXuXuXuXuXuXuXuXuXuXj.h.x.M.m.B.F.I.I.F.I.I.U.V.V.C.V.N.0.8.B f g >.8.8.8.3.8.8.8.8.3.L L A z z j f uXuXuXuXuXuXuXuXuXuXuXuXuX",
"uXuXuXuXuXuXuXuXuX$.$.h.m.m.m.m.V.Q.!.~.~.I.$.p.n.m.m.m.b.0.8.B f g >.3.8.8.8.8.8.8.8.>.=.L L L H l f f uXuXuXuXuXuXuXuXuXuXuXuX",
"uXuXuXuXuXuXuXuXuX$.$.h.m.m.M.M.V.Q.Q.R.Y.D.+.i.v.m.M.n.c.0.8.V f g >.8.>.>.>.>.>.3.3.,.P L L L H j f 1 uXuXuXuXuXuXuXuXuXuXuXuX",
"uXuXuXuXuXuXuXuXuX$.$.h.m.M.!.!.!.Q.Y. .Q X.+.i.n.m.x.i.p.9.8.V f v >.8.V l l l g N P L L L F J H j f ,     uXuXuXuXuXuXuXuXuXuX",
"uXuXuXuXuXuXuXuXuX$.$.x.m.M.!.Q.Q.Q.R.| a ..+.p.M.m.h.$.@.8.8.N 1 g >.9.B 1 f 1 f z L F L L L L J j f @     uXuXuXuXuXuXuXuXuXuX",
"uXuXuXuXuXuXuXuXuXuXuXd.y.r.U.I.I.I.F.&.&.F.H.G.h.x.s.$.p.k.l.4.B B B B B B B N z A L L L F F L L M N <     uXuXuXuXuXuXuXuXuXuX",
"uXuXuXuXuXuXuXuXuXuXuXuXa W o.$.$.$.S.-X%X%X%X$X&.$.%.$.i.M.m.l.3.>.j 1 B 9.3.=.L L L J L F L J F L L h     uXuXuXuXuXuXuXuXuXuX",
"uXuXuXuXuXuXuXuXuXuXuXuXW W +.$.o.X.@.-X%X%X=X%XS.%.A.i.s.c.n.z.3.<.v j B >.<.L L L L L J L L L L L F 2     uXuXuXuXuXuXuXuXuXuX",
"uXuXuXuXuXuXuXuXuXuXuXuXuXuXuXuX% O : /.%X>X1X1X%X-X_.n.c.s.a./ =.L G G N g v H F L L L L L L L L F L 2     uXuXuXuXuXuXuXuXuXuX",
"uXuXuXuXuXuXuXuXuXuXuXuXuXuXuXuXuX  $ /.&X<X0XqX&X%X_.M.n.i.$./ F F F =.z f f H L L L L F L L L J L L 2     uXuXuXuXuXuXuXuXuXuX",
"uXuXuXuXuXuXuXuXuXuXuXuXuXuXuXuX    O #.&.#.{ *.:X,X`.m.n.i.$.f.6.7.-.L N f f z z A J F L L L F L L L k @ @ X   uXuXuXuXuXuXuXuX",
"uXuXuXuXuXuXuXuXuXuXuXuXuXuXuXuXuX  . r t - . & ,X0X'.m.n.a.$.I.^.T.K F z f f 1 f z L L L J L L L L L z f 1       uXuXuXuXuXuXuX",
"uXuXuXuXuXuXuXuXuXuXuXuXuXuXuXuX$ $ & s s u & 8 <X0X'.n.v.a.+.a.R.G.2.1.K C b C C D G G H G J L L L L N f 1       uXuXuXuXuXuXuX",
"uXuXuXuXuXuXuXuXuXuXuXuXuXuX    ] $XJ.|.{.7XeXwXqX0X).i.a.Y.Q.+.Q ..L.L.:X<X<X<X<Xw.j j j j M L L F L z 1 1 X     uXuXuXuXuXuXuX",
"uXuXuXuXuXuXuXuXuXuXuXuXuXuX    ' &X$X}.[.7XrXrX0XqX).$.%.Q.W.+.e  .(.%X>X4X4X0X0XP.f f f f z L L J L z f 1 X     uXuXuXuXuXuXuX",
"uXuXuXuXuXuXuXuXuXuXuXuXuXuX    ' &X$X}.[.7XrXrX0X4X(...X.B.V.d.e  .:X>X1XqX5X*X).{ @ , , @ h z S J L k @ @     uXuXuXuXuXuXuXuX",
"uXuXuXuXuXuXuXuXuXuXuXuXuXuX    ' &X$X}.[.7XrXrX0X0XH.e | v.m.t.e  .<X4X4X0X1XS.$.i         , f j H L 2     uXuXuXuXuXuXuXuXuXuX",
"uXuXuXuXuXuXuXuXuXuXuXuXuXuX    ] /.@X X{.8XrXtX0XqXH.e | v.m.j.Q ..6XwX2X1X>X$.X.q         @ 1 2 A J 2     uXuXuXuXuXuXuXuXuXuX",
"uXuXuXuXuXuXuXuXuXuXuXuXuXuXuXuX$ $ 7 @X$X,X0XqX4XqXH.e | v.m.B.Y.H.oXOX.XD.@.: O .     uXuX  X X f j ,     uXuXuXuXuXuXuXuXuXuX",
"uXuXuXuXuXuXuXuXuXuXuXuXuXuXuXuX    $ /.&X>XqXqX4X0XH.e | v.m.V.E.).XXXX.X+.X.o         uXuX    X 1 j ,     uXuXuXuXuXuXuXuXuXuX",
"uXuXuXuXuXuXuXuXuXuXuXuXuXuXuXuXuX  $ ] ] K.>X>X>X>X(.&.S.r.t.g.C.N._ ]._ i U ! ~ ) e.e.uXuXuX    , , + uXuXuXuXuXuXuXuXuXuXuXuX",
"uXuXuXuXuXuXuXuXuXuXuXuXuXuXuXuXuXuXuX    ' &X%X%X%X%X&X$XQ e y.m.c.%       $ T.^.C.m.m.uXuXuXuXuX    uXuXuXuXuXuXuXuXuXuXuXuXuX",
"uXuXuXuXuXuXuXuXuXuXuXuXuXuXuXuXuXuXuX    T $X/./.L.L./.J.W w t.M.Z.%     X % D.U.h.c.c.uXuXuXuXuX    uXuXuXuXuXuXuXuXuXuXuXuXuX",
"uXuXuXuXuXuXuXuXuXuXuXuXuXuXuXuXuX        o $ & b b b n b o . ~ !.T.%   3 A S % $ % % % uXuXuXuXuXuXuXuXuXuXuXuXuXuXuXuXuXuXuXuX",
"uXuXuXuXuXuXuXuXuXuXuXuXuXuXuXuXuX            X 1 f j f 1     ! ^.Y.$   3 =.G X         uXuXuXuXuXuXuXuXuXuXuXuXuXuXuXuXuXuXuXuX",
"uXuXuXuXuXuXuXuXuXuXuXuXuXuXuXuX* 6 0 } +X`     1 f k M x X   m 6.7.o   , h 3 X uX    uXuXuXuXuXuXuXuXuXuXuXuXuXuXuXuXuXuXuXuXuX",
"uXuXuXuXuXuXuXuXuXuXuXuXuXuX    6 Y ..yXrX+X  X 1 f z =.A X   h F A X         uXuXuXuXuXuXuXuXuXuXuXuXuXuXuXuXuXuXuXuXuXuXuXuXuX",
"uXuXuXuXuXuXuXuXuXuXuXuXuXuX    6 Y ~ 9XeX} X + f g M F H + . j L A 4 & o     uXuXuXuXuXuXuXuXuXuXuXuXuXuXuXuXuXuXuXuXuXuXuXuXuX",
"uXuXuXuXuXuXuXuXuXuXuXuXuXuX    6 Y e 5 & h A A H H J F K U e Z =.1.9XyX}         uXuXuXuXuXuXuXuXuXuXuXuXuXuXuXuXuXuXuXuXuXuXuX",
"uXuXuXuXuXuXuXuXuXuXuXuXuXuX    6 Q e .   3 F F J L L F K R t T F 1.yXrX+X        uXuXuXuXuXuXuXuXuXuXuXuXuXuXuXuXuXuXuXuXuXuXuX",
"uXuXuXuXuXuXuXuXuXuXuXuXuXuXuXuX* 6 6 b C q.k.4.-.J F L H 7 6 ' ;X.X@X@X[ ; ;       uXuXuXuXuXuXuXuXuXuXuXuXuXuXuXuXuXuXuXuXuXuX",
"uXuXuXuXuXuXuXuXuXuXuXuXuXuXuXuXuX  + <.3.l.M.b.;.J F L N . . .XrXtXp 9 y y 9 .         uXuXuXuXuXuXuXuXuXuXuXuXuXuXuXuXuXuXuXuX",
"uXuXuXuXuXuXuXuXuXuXuXuXuXuXuXuX    + <.3.k.b.Z.2.K K K D # . } eX9Xp y y y 0 O .       uXuXuXuXuXuXuXuXuXuXuXuXuXuXuXuXuXuXuXuX",
"uXuXuXuXuXuXuXuXuXuXuXuXuXuXuXuX    @ ,.9.0.0.0.! R R R R e w 0 & 5 u y i d d w e >         uXuXuXuXuXuXuXuXuXuXuXuXuXuXuXuXuXuX",
"uXuXuXuXuXuXuXuXuXuXuXuXuXuXuXuXuX  + <.8.8.8.5.E t t d W Y W 6   . 9 y s t t t d -           uXuXuXuXuXuXuXuXuXuXuXuXuXuXuXuXuX",
"uXuXuXuXuXuXuXuXuXuXuXuX      uX    X ;.:.<.8.8.^ ^ ^ ^ ^ ^ ^ m 3 2 ; * 0 t Q #.&.~ - - .     uXuXuXuXuXuXuXuXuXuXuXuXuXuXuXuXuX",
"uXuXuXuXuXuXuXuXuXuXuX              X A F :.8.8.8.8.8.8.8.8.8.:.F A X   6 t  .$X=X&.Y e .     uXuXuXuXuXuXuXuXuXuXuXuXuXuXuXuXuX",
"uXuXuXuXuXuXuXuXuXuXuX. . o . . .   X S A ;.,.>.8.8.8.8.8.8.8.:.L H @ X 6 e W J.L.#.e s .     uXuXuXuXuXuXuXuXuXuXuXuXuXuXuXuXuX",
"uXuXuXuXuXuXuXuXuX    - e e w w -     X X k =.-.>.8.8.8.8.8.8.3.8.,.H A 2 . o $ $ 7 y y .     uXuXuXuXuXuXuXuXuXuXuXuXuXuXuXuXuX",
"uXuXuXuXuXuXuXuXuX    6 W Y Y Q 6         3 L =.3.9.8.8.8.8.9.8.8.3.-.=.3         ; y u .     uXuXuXuXuXuXuXuXuXuXuXuXuXuXuXuXuX",
"uXuXuXuXuXuXuXuXuX    6 W a r i 9 ; ; ; ; 4 3 h c n n n n n n n n c h 3 @   . ; ; ; ; * .   uXuXuXuXuXuXuXuXuXuXuXuXuXuXuXuXuXuX",
"uXuXuXuXuXuXuXuXuX    6 W d y y y y y y y ;                                 . 9 y ;     uXuXuXuXuXuXuXuXuXuXuXuXuXuXuXuXuXuXuXuX",
"uXuXuXuXuXuXuXuXuX    - e r y y y y u y y ;                                 . 7 9 ;     uXuXuXuXuXuXuXuXuXuXuXuXuXuXuXuXuXuXuXuX",
"uXuXuXuXuXuXuXuXuXuXuX. . O 9 y y y y y y ;     uXuXuXuXuXuXuXuXuXuXuXuX      . . . uXuXuXuXuXuXuXuXuXuXuXuXuXuXuXuXuXuXuXuXuXuX",
"uXuXuXuXuXuXuXuXuXuXuX    X 9 y y y y y y ;     uXuXuXuXuXuXuXuXuXuXuXuX            uXuXuXuXuXuXuXuXuXuXuXuXuXuXuXuXuXuXuXuXuXuX",
"uXuXuXuXuXuXuXuXuXuXuXuX  . ; ; ; ; ; ; ; $ uXuXuXuXuXuXuXuXuXuXuXuXuXuXuX        uXuXuXuXuXuXuXuXuXuXuXuXuXuXuXuXuXuXuXuXuXuXuX",
"uXuXuXuXuXuXuXuXuXuXuXuXuXuX              uXuXuXuXuXuXuXuXuXuXuXuXuXuXuXuXuXuXuXuXuXuXuXuXuXuXuXuXuXuXuXuXuXuXuXuXuXuXuXuXuXuXuX",
"uXuXuXuXuXuXuXuXuXuXuXuXuXuX              uXuXuXuXuXuXuXuXuXuXuXuXuXuXuXuXuXuXuXuXuXuXuXuXuXuXuXuXuXuXuXuXuXuXuXuXuXuXuXuXuXuXuX",
"uXuXuXuXuXuXuXuXuXuXuXuXuXuXuXuXuXuXuXuXuXuXuXuXuXuXuXuXuXuXuXuXuXuXuXuXuXuXuXuXuXuXuXuXuXuXuXuXuXuXuXuXuXuXuXuXuXuXuXuXuXuXuXuX",
"uXuXuXuXuXuXuXuXuXuXuXuXuXuXuXuXuXuXuXuXuXuXuXuXuXuXuXuXuXuXuXuXuXuXuXuXuXuXuXuXuXuXuXuXuXuXuXuXuXuXuXuXuXuXuXuXuXuXuXuXuXuXuXuX"
};
