/* XPM */
static char *f0149db0264145fe9d0fe04fbe3da1dfWEFzpIShlvrMieNY[] = {
/* columns rows colors chars-per-pixel */
"64 64 198 2 ",
"   c None",
".  c #000101",
"X  c #0B0604",
"o  c #020C05",
"O  c #0B0B09",
"+  c #110D08",
"@  c #110C07",
"#  c #061205",
"$  c #071808",
"%  c #1B1B01",
"&  c #1A1919",
"*  c #23170E",
"=  c #381E0E",
"-  c #331D0F",
";  c #361F10",
":  c #391F10",
">  c #231310",
",  c #062107",
"<  c #072409",
"1  c #072C0C",
"2  c #0A260A",
"3  c #152A08",
"4  c #0C3C0C",
"5  c #09360B",
"6  c #083C14",
"7  c #063C14",
"8  c #392111",
"9  c #382617",
"0  c #3D3E15",
"q  c #262105",
"w  c #172837",
"e  c gray13",
"r  c #44261C",
"t  c #542F1D",
"y  c #44361E",
"u  c #5B341A",
"i  c #663B1D",
"p  c #6A3B1D",
"a  c #653719",
"s  c #713E1D",
"d  c #523E21",
"f  c #5E3520",
"g  c #53362E",
"h  c #743E20",
"j  c #783F20",
"k  c #633F21",
"l  c #0C420D",
"z  c #16430F",
"x  c #18400E",
"c  c #0B4313",
"v  c #0D4910",
"b  c #0C491A",
"n  c #134C10",
"m  c #1D4813",
"M  c #1A4712",
"N  c #0E5D1B",
"B  c #0D5216",
"V  c #1A5B14",
"C  c #234F1A",
"Z  c #264814",
"A  c #225115",
"S  c #23501B",
"D  c #325113",
"F  c #0F611C",
"G  c #18641B",
"H  c #27741B",
"J  c #2A731C",
"K  c #0A4F28",
"L  c #1C532A",
"P  c #285420",
"I  c #0E6E25",
"U  c #166B24",
"Y  c #0E7225",
"T  c #0E7C29",
"R  c #0B7C26",
"E  c #117526",
"W  c #107827",
"Q  c #117C29",
"!  c #1C7727",
"~  c #2C6D2D",
"^  c #434318",
"/  c #5B461E",
"(  c #414810",
")  c #68421E",
"_  c #73401F",
"`  c #777803",
"'  c #425E25",
"]  c #4D5E26",
"[  c #584728",
"{  c #6E4B21",
"}  c #6C4320",
"|  c #744120",
" . c #784723",
".. c #734A25",
"X. c #684F39",
"o. c #6A5331",
"O. c #597A35",
"+. c #526C25",
"@. c #2C4D6E",
"#. c #077779",
"$. c #6F5440",
"%. c #6A6B54",
"&. c #435A70",
"*. c #45607A",
"=. c #696565",
"-. c #82561D",
";. c #807F00",
":. c #85572F",
">. c #8C5E31",
",. c #835431",
"<. c #8E6333",
"1. c #926E3A",
"2. c #8C723A",
"3. c #93733A",
"4. c #997C3A",
"5. c #98702B",
"6. c #A0763E",
"7. c #A2793F",
"8. c #A57B41",
"9. c #A97E43",
"0. c #A47B4F",
"q. c #A57B56",
"w. c #827561",
"e. c #94744E",
"r. c #188229",
"t. c #298C27",
"y. c #268927",
"u. c #358E25",
"i. c #299129",
"p. c #269029",
"a. c #3A9325",
"s. c #3B9926",
"d. c #379C29",
"f. c #3DA229",
"g. c #789107",
"h. c #469928",
"j. c #408F25",
"k. c #759335",
"l. c #41A529",
"z. c #43A82A",
"x. c #2B8C42",
"c. c #608F4B",
"v. c #78C873",
"b. c #838300",
"n. c #839004",
"m. c #AE9512",
"M. c #87A207",
"N. c #BDA10E",
"B. c #AE893A",
"V. c #A68237",
"C. c #B28C3B",
"Z. c #91AB3C",
"A. c #9DCC19",
"S. c #A0D215",
"D. c #CDCD00",
"F. c #D7DA07",
"G. c #E9E703",
"H. c #F1EC04",
"J. c #F5F107",
"K. c yellow",
"L. c #FCF707",
"P. c #EBF705",
"I. c #AD864E",
"U. c #B58F6A",
"Y. c #B9946F",
"T. c #BD9866",
"R. c #BD9671",
"E. c #A78E73",
"W. c #BDA576",
"Q. c #C3944A",
"!. c #DFAC53",
"~. c #E2B24D",
"^. c #C4A06F",
"/. c #C4A47A",
"(. c #037E89",
"). c #7FAC86",
"_. c #0EA2D0",
"`. c #08ADED",
"'. c #00B0EA",
"]. c #00BDFF",
"[. c #A69482",
"{. c #BEA393",
"}. c #9AA8B7",
"|. c #C3AC82",
" X c #D6B587",
".X c #DCBB93",
"XX c #8AC197",
"oX c #81E182",
"OX c #E4CDA4",
"+X c #E7D4AC",
"@X c #F2D7AF",
"#X c #F7DCB2",
"$X c #EAD7B6",
"%X c #FCE2B9",
"&X c #D0D4D0",
"*X c #FFEBC2",
"=X c white",
"-X c #EAECEA",
/* pixels */
"                                                                                                                                ",
"                                                                                                                                ",
"                                                      . + 1.8.8.8.8.8.8.>._                                                     ",
"                                                    . . @ 1.8.7.8.8.8.8.>.h |                                                   ",
"                                                    @ @ * 7.B.B.B.B.B.B.5. .-.                                                  ",
"                                                . . t 6.4.G.J.J.J.J.J.J.H.H.H.~.!.Q.0.8.                                        ",
"                                                . . d 7.C.J.K.K.K.K.K.K.K.K.L.~.!.Q.8.9.                                        ",
"                                            . o 6 7 ~ k.k.S.S.S.S.S.S.S.S.S.S.Z.Z.k.O.O.4.8.                                    ",
"                                          . . o Y T i.f.z.f.f.f.f.f.f.f.f.l.f.f.z.p.R ! 4.8.8.                                  ",
"                                          . . o E r.t.s.s.s.s.s.s.s.s.s.s.s.s.s.s.y.W ! 2.3.2.                                  ",
"                                          . . # u.f.H n n n n n n n n n n n n n n v v v m m ^ | |                               ",
"                                            . # a.z.H 4 l l 4 l l 4 l l 4 l 4 4 4 l z 6 l 4 ^ | _                               ",
"                                          $ < 1 H H H H H H H H H H H H H H H H H V l l N N ] >.>.                              ",
"                                      . . < l l 4 4 H l.z.z.l.l.l.l.l.l.l.l.z.l.z.H l v Y R O.9.8.                              ",
"                                      . . , l l v v H l.l.f.l.l.l.l.l.l.l.l.l.l.z.H v v Y W O.3.3.                              ",
"                                      . . , l l Y Y t.l.f.h.l.l.l.l.l.l.l.l.l.l.l.t.Y Y v v v m Z ) |                           ",
"                                      . . $ l v W Q i.z.l.l.l.l.l.l.l.l.l.l.l.l.l.i.T E v l l l z p _                           ",
"                              7.T.  E.3 < c F F N N ! t.i.f.l.l.l.l.l.l.l.l.l.l.l.i.Y W F F v l m e.q.0.                        ",
"                            8.7.T. X|.C l F T W v l N T r.f.l.l.l.l.f.l.l.h.l.l.l.i.T T Q R N 4 S W..XT.7.8.                    ",
"                            I.I.^..X|.C 4 N Q W c 5 N Q Q d.f.l.l.l.l.l.l.f.l.f.d.p.T T I Y N l S |..X^.I.I.                    ",
"                        s ,.OX#X#X%XOXP l N Q Y $ . c Q Q Q r.i.l.l.l.l.l.l.f.r.r.Q Q I $ o < l P OX%X%X#XOX,._                 ",
"                      | _ ,.@X*X*X*X+XS 4 F Q I o . 7 T Q Q Q t.l.l.l.l.l.l.d.r.Q Q Q I o . , l P +X*X%X%X@X,.| |               ",
"                        _ ,.U.Y././.W.A l v F B o . 6 T Q W Q r.i.i.f.l.l.l.f.Q Q N 6 6 < , 5 l S W./.^.R.U. ...                ",
"                            s p >.I.3.M l l l 4 . . 6 Q Q Q Q T Q Q d.l.l.l.d.r.Q 6 . . 4 l 4 l m 3.I.>._ _                     ",
"                            | _ >.7.3.P K b l 4 . . 6 W W Q Q Q Q Q s.f.f.l.s.Q Q 7 . . 4 l b K L 3.6.>._ |                     ",
"                                _ _ X._.'.#.l 4 o . < l v E W Q Q Q r.Q Q Q r.Q T c . o 4 l #.'._.X. . .                        ",
"                                  | X.`.].(.l 4 . . , l v W Q Q Q Q Q E Q T Q Q T 6 . o 4 4 (.].`.X._                           ",
"                                8 8 y v.oXc.0 0 2 , , < < N N I Q Q Q Q Q Q W F F 1 . X 0 0 c.oXv.y 8 8                         ",
"                                . . % G.K.N.h p M l , . o 4 l N Q Q W Q T Q Y c l $ . X i h N.K.G.% . .                         ",
"                                  . % D.G.m. .{ D A 3 o o 5 5 N T T Q Q Q W W l 4 3 % q }  .m.G.D.% .                           ",
"                                      % % / 7.V.G.G.g.5 5 o . c Q Q Q T Q T I # . ` G.F.7.7./ % %                               ",
"                                      . . d 9.C.L.K.M.l 5 . . c Q T Q T Q Q I o . b.K.L.B.I.d . .                               ",
"                                          9 [ / ` ;.n.M.g.+ . 5 N U Q Q I N B o . ( ;.` / d 9                                   ",
"                                            . . . . b.K.G.% . $ 4 c Y Q N 4 4 . . . . . . .                                     ",
"                                          . . . . . ` P.D.3 o < 4 l I W N l 4 o . . X X . . .                                   ",
"                                          . . . 5 4 V t.y.W I 6 . o l v z l 4 . . ; p u X . .                                   ",
"                                          . . . 4 l N Q T Q Q 7 . . 4 l l l l . . - _ i X . .                                   ",
"                                          . . o B F N N F W Q N 6 6 < , , , < 6 7 %.{.E.+ . .                                   ",
"                                            . o I R N l c W Q Q r.I o . . . o Y R XX=X-Xe . .                                   ",
"                                          O O $ ~ x.~ z M I Y Q R I $ o o o $ U U ).-X&X& .                                     ",
"                                      . . > r g &X-X[.k } M n F T T I I I I I / { y & &                                         ",
"                                      . . > r g -X=X|...} z l F T T T T r.r.E ) | : . .                                         ",
"                                  . X ; 9 $.E.E.}.}.=.- 9 y D ^ ' ' ' ' ' ' ] +.O.P 6 6 o .                                     ",
"                                . . X p h R.*X$X*.@.w . . p j s h | h | _ _ _ l.z.i.Q I o . .                                   ",
"                                . . X p h Y.*X$X&.@.w . + ) { { { { { { { { o.h.z.t.T I o . .                                   ",
"                                . . @ f s Y.*XOXe O < 4 l j.h.h.h.h.h.h.h.h.h.z.z.t.W I o . .                                   ",
"                                . . X p h Y.*X+X& . , l n s.l.l.l.l.l.l.l.z.z.z.z.i.Q Y o . .                                   ",
"                                  . X ; ; X.w.%.O . 1 F G f.l.l.l.l.l.l.J A A A A M 6 6 o .                                     ",
"                                      . . . . . . . 6 Q Q l.l.l.l.l.l.z.A . . . . . . .                                         ",
"                                      . . . . . . . 6 Y E u.a.a.a.a.a.a.A @ @ X @ . . .                                         ",
"                                                    o o o # # # # # # # / 1.1.p p - . .                                         ",
"                                                    . . . . . . . . . . d 8.6.| | = . .                                         ",
"                                                      . . . . .   . . . d 8.7.<.>.} ; ; X .                                     ",
"                                                                    . . [ 8.8.8.8.>.| i X . .                                   ",
"                                                                    . . d 8.8.8.8.>.h i @ . .                                   ",
"                                                                    . . d 8.8.8.8.>.h i X . .                                   ",
"                                                                    . . d I.7.7.0.>.j p X . .                                   ",
"                                                                    . . r <.>.>.<...f t X . .                                   ",
"                                                                    . . 8 _ _ _ h f r r X . .                                   ",
"                                                                    . . = p i p k t r : . .                                     ",
"                                                                        X X X X X X X X                                         ",
"                                                                        . . . . . . . .                                         ",
"                                                                          .         .                                           ",
"                                                                                                                                "
};
