/* XPM */
static char *result[] = {
/* columns rows colors chars-per-pixel */
"64 64 225 2 ",
"   c #000101",
".  c #0A0504",
"X  c #020B04",
"o  c #09090A",
"O  c #140C08",
"+  c #061205",
"@  c #051E06",
"#  c #0B1408",
"$  c #16130E",
"%  c #1A1705",
"&  c #171310",
"*  c #1A1815",
"=  c #23140E",
"-  c #371D0E",
";  c #251511",
":  c #271B14",
">  c #371F11",
",  c #062007",
"<  c #07280B",
"1  c #0C3C0C",
"2  c #0B350B",
"3  c #073D15",
"4  c #083D15",
"5  c #1A2605",
"6  c #3A2211",
"7  c #382415",
"8  c #2B2116",
"9  c #172B35",
"0  c #2B3035",
"q  c #43251D",
"w  c #48281E",
"e  c #5A351D",
"r  c #4F331E",
"t  c #663A1C",
"y  c #6C3B1D",
"u  c #63361C",
"i  c #713E1E",
"p  c #4C2A21",
"a  c #452C23",
"s  c #5E3520",
"d  c #523C20",
"f  c #53392F",
"g  c #6F3E20",
"h  c #623A26",
"j  c #743E20",
"k  c #0D420D",
"l  c #114B0F",
"z  c #0C4214",
"x  c #0D4910",
"c  c #0B4E18",
"v  c #134C10",
"b  c #174B17",
"n  c #0E5E1B",
"m  c #0E5216",
"M  c #175415",
"N  c #224C19",
"B  c #3C4A1F",
"V  c #0F611C",
"C  c #15641D",
"Z  c #27731B",
"A  c #2A781D",
"S  c #236819",
"D  c #285624",
"F  c #335623",
"G  c #0E6E24",
"H  c #0D6221",
"J  c #0E7C29",
"K  c #0D7425",
"L  c #107526",
"P  c #117827",
"I  c #1A7528",
"U  c #107C29",
"Y  c #1C702B",
"T  c #2B6D2C",
"R  c #154521",
"E  c #5E401E",
"W  c #6E421E",
"Q  c #77700C",
"!  c #425E24",
"~  c #415722",
"^  c #5C4A2F",
"/  c #6A4623",
"(  c #744222",
")  c #7A4824",
"_  c #6E542B",
"`  c #4D752E",
"'  c #647F31",
"]  c #284857",
"[  c #2F4F6E",
"{  c #1A6A77",
"}  c #645543",
"|  c #6B5A46",
" . c #655450",
".. c #706D53",
"X. c #737A75",
"o. c #82551C",
"O. c #87572E",
"+. c #885A33",
"@. c #936C36",
"#. c #9C773E",
"$. c #A97A3D",
"%. c #9C7846",
"&. c #927253",
"*. c #A37A41",
"=. c #A97E43",
"-. c #A37A46",
";. c #A57C56",
":. c #877964",
">. c #14802A",
",. c #268828",
"<. c #348822",
"1. c #299129",
"2. c #3A9325",
"3. c #3C9A26",
"4. c #379928",
"5. c #288539",
"6. c #388536",
"7. c #3DA229",
"8. c #469A2A",
"9. c #688937",
"0. c #79943B",
"q. c #41A529",
"w. c #46A72A",
"e. c #54A929",
"r. c #629A17",
"t. c #79915E",
"y. c #808000",
"u. c #B69C16",
"i. c #B49E12",
"p. c #B9A00F",
"a. c #BFA613",
"s. c #AE893A",
"d. c #A9873A",
"f. c #B28C3C",
"g. c #B89733",
"h. c #B29023",
"j. c #8E873F",
"k. c #D3BD1E",
"l. c #C5AF18",
"z. c #D2BD21",
"x. c #C9AD2D",
"c. c #94C517",
"v. c #A3D414",
"b. c #A0C819",
"n. c #D1CE11",
"m. c #E8E507",
"M. c #F1EB07",
"N. c #F6F206",
"B. c #FFFF00",
"V. c #FBF608",
"C. c #EBF604",
"Z. c #D9CC2E",
"A. c #EDD428",
"S. c #F2D829",
"D. c #E7CB2C",
"F. c #E0DB08",
"G. c #AB8246",
"H. c #B48A47",
"J. c #B88F53",
"K. c #BEA754",
"L. c #B9946D",
"P. c #B59979",
"I. c #AB9476",
"U. c #BEA57C",
"Y. c #889667",
"T. c #C1944A",
"R. c #C69A47",
"E. c #D39E4D",
"W. c #CCA84B",
"Q. c #D4A24D",
"!. c #D9AC4C",
"~. c #DEAC53",
"^. c #D8A651",
"/. c #DCB047",
"(. c #E3B64A",
"). c #E1AE54",
"_. c #E7B156",
"`. c #C2A47E",
"'. c #C5A67C",
"]. c #CEB371",
"[. c #E6D545",
"{. c #FAED59",
"}. c #FAEB62",
"|. c #005D82",
" X c #2B4E9A",
".X c #395393",
"XX c #435D9A",
"oX c #47598C",
"OX c #506497",
"+X c #5CA0A3",
"@X c #0CBDF8",
"#X c #30BBE5",
"$X c #18C0FC",
"%X c #828183",
"&X c #A49791",
"*X c #BFAE80",
"=X c #8DAAA7",
"-X c #C7AA88",
";X c #D6B48C",
":X c #DBB98F",
">X c #D4B385",
",X c #DCBB92",
"<X c #D0AE84",
"1X c #E1BE92",
"2X c #89C097",
"3X c #D8C299",
"4X c #DCCDAC",
"5X c #EBCEA4",
"6X c #E5CCA9",
"7X c #E7D4AB",
"8X c #F6DBB1",
"9X c #EDDBB2",
"0X c #FFE6BD",
"qX c #FFE8BF",
"wX c #FAE0B6",
"eX c #98A9CE",
"rX c #A1ACC9",
"tX c #D0D6CF",
"yX c #FFE9C2",
"uX c #FEE7C2",
"iX c #EEE7CE",
"pX c #FFFEFC",
"aX c #FFFAF1",
"sX c #EAEDEA",
"dX c None",
/* pixels */
"dXdXdXdXdXdXdXdXdXdXdXdXdXdXdXdXdXdXdXdXdXdXdXdXdXdXdXdXdXdXdXdXdXdXdXdXdXdXdXdXdXdXdXdXdXdXdXdXdXdXdXdXdXdXdXdXdXdXdXdXdXdXdXdX",
"dXdXdXdXdXdXdXdXdXdXdXdXdXdXdXdXdXdXdXdXdXdXdXdXdXdXdXdXdXdXdXdXdXdXdXdXdXdXdXdXdXdXdXdXdXdXdXdXdXdXdXdXdXdXdXdXdXdXdXdXdXdXdXdX",
"dXdXdXdXdXdXdXdXdXdXdXdXdXdXdXdXdXdXdXdXdXdXdXdXdXdXdXdXdXdXdXdXdXdXdXdXdXdXdXdXdXdXdXdXdXdXdXdXdXdXdXdXdXdXdXdXdXdXdXdXdXdXdXdX",
"dXdXdXdXdXdXdXdXdXdXdXdXdXdXdXdXdXdXdXdXdXdXdXdXdXdXdXdXdXdXdXdXdXdXdXdXdXdXdXdXdXdXdXdXdXdXdXdXdXdXdXdXdXdXdXdXdXdXdXdXdXdXdXdX",
"dXdXdXdXdXdXdXdXdXdXdXdXdXdXdXdXdXdXdXdXdXdXdXdXdXdXdXdXdXdXdXdXdXdXdXdXdXdXdXdXdXdXdXdXdXdXdXdXdXdXdXdXdXdXdXdXdXdXdXdXdXdXdXdX",
"dXdXdXdXdXdXdXdXdXdXdXdXdXdXdXdXdXdXdXdXdXdXdXdXdXdXdXdXdXdXdXdXdXdXdXdXdXdXdXdXdXdXdXdXdXdXdXdXdXdXdXdXdXdXdXdXdXdXdXdXdXdXdXdX",
"dXdXdXdXdXdXdXdXdXdXdXdXdXdXdXdXdXdXdX*.*.+.g / I J V k v 3.q.q.q.q.q.q.1.P U U U dXdXdXdXdXdXdXdXdXdXdXdXdXdXdXdXdXdXdXdXdXdXdX",
"dXdXdXdXdXdXdXdXdXdXdXdXdXdXdXdXdXdXdX*.*.+.g / I >.n 1 v 3.q.q.q.q.q.q.1.J J J U dXdXdXdXdXdXdXdXdXdXdXdXdXdXdXdXdXdXdXdXdXdXdX",
"dXdXdXdXdXdXdXdXdXdXdXdXdXdXdX*.T.dX/.z.z.l.u.i.9.` ` Z Z Z Z <.q.q.q.q.4.1.1.1.1.,.dXdXdXdXdXdXdXdXdXdXdXdXdXdXdXdXdXdXdXdXdXdX",
"dXdXdXdXdXdXdXdXdXdXdXdXdXdX*.*.T.).(.V.B.B.B.N.s.$.0.7.3.l k Z q.q.q.q.q.q.q.q.q.1.J J dXdXdXdXdXdXdXdXdXdXdXdXdXdXdXdXdXdXdXdX",
"dXdXdXdXdXdXdXdXdXdXdXdXdXdXs.s.T.~.!.M.N.V.V.M.f.G.0.e.w.M l Z 3.3.7.q.q.q.3.q.w.1.U U dXdXdXdXdXdXdXdXdXdXdXdXdXdXdXdXdXdXdXdX",
"dXdXdXdXdXdXdXdXdXdXdXdX*.f.m.N.z.=.=.d.s.R.(.(.!.Q.W.W.W.8.4.A l M 3.q.q.q.q.q.q.q.7.3.U U V k k dXdXdXdXdXdXdXdXdXdXdXdXdXdXdX",
"dXdXdXdXdXdXdXdXdXdXdXdX*.s.N.B.z.*.*.*.*.T.).).~.~.~.).!.e.7.A 1 v 3.q.q.q.q.q.q.q.q.7.>.U n 1 k dXdXdXdXdXdXdXdXdXdXdXdXdXdXdX",
"dXdXdXdXdXdXdXdXdXdXdXx.z.z.z.z.x.T.T.T.J.T.T.R.D.S.A.S.Z.e.7.A k v 3.q.q.q.q.q.q.q.7.7.U U G n n l k dXdXdXdXdXdXdXdXdXdXdXdXdX",
"dXdXdXdXdXdXdXdXdX*.*.z.B.N.s.%.T.).)._.).T.*.d.N.B.B.B.C.e.q.Z 1 v 3.q.q.q.q.q.q.q.q.7.>.U U U P x k k dXdXdXdXdXdXdXdXdXdXdXdX",
"dXdXdXdXdXdXdXdXdX*.*.z.B.N.f.=.T.)./.Q.Q.H.*.s.N.B.V.N.m.e.q.Z k v 3.q.3.3.3.3.3.3.3.4.>.U U U L v x k dXdXdXdXdXdXdXdXdXdXdXdX",
"dXdXdXdXdXdXdXdXdX*.*.k.B.N./.Q.~.).Q.O.o.@.$.s.N.B.Z.d.d.8.q.Z k v 3.w.A v v v v C U U U U J L U L P 4     dXdXdXdXdXdXdXdXdXdX",
"dXdXdXdXdXdXdXdXdX*.*.Z.B.V.(.).~.).Q.) i O.*.d.N.B.k.$.j.8.7.Z 1 v 3.w.Z 1 k 1 k n U U U U U U J U U 3     dXdXdXdXdXdXdXdXdXdX",
"dXdXdXdXdXdXdXdXdXdXdXh.p.u.R.T.T.J.T.;.;.J.L.T.z.z.g.-.d.b.v.r.Z Z Z Z Z Z Z V n G U J U U U U U U U 4     dXdXdXdXdXdXdXdXdXdX",
"dXdXdXdXdXdXdXdXdXdXdXdXg ( #.*.$.*.G.<X;X;X;X;X-.*.*.-.s.N.B.v.7.3.v 1 Z w.q.>.U P U U P J U J U U J 4     dXdXdXdXdXdXdXdXdXdX",
"dXdXdXdXdXdXdXdXdXdXdXdX( ) $.*.#.@.%.-X;X;X,X;XG.G.G.s.f.m.N.c.7.4.x k Z 7.4.U U U U U U P J U U J U 4   X dXdXdXdXdXdXdXdXdXdX",
"dXdXdXdXdXdXdXdXdXdXdXdXdXdXdXdX& O ; `.;X6X8X9X;X<X[.N.M.g.f.' >.P x k V >.>.U U U U U U U U U U U U n 4 2 X   dXdXdXdXdXdXdXdX",
"dXdXdXdXdXdXdXdXdXdXdXdXdXdXdXdXdX  & *X:X7XyXuX:X;X[.B.N.G.-.' J L k k n U U U U P U U U U U J U J U n 1 1 .     dXdXdXdXdXdXdX",
"dXdXdXdXdXdXdXdXdXdXdXdXdXdXdXdX    O &.;.&.:.:.3X5X{.B.N.f.=.j.0.9.C n n n V L U U U U J U U J U U U n k 1 X     dXdXdXdXdXdXdX",
"dXdXdXdXdXdXdXdXdXdXdXdXdXdXdXdXdX  . t j > . * 6XuX}.B.N.s.-.T._.W.,.J n 1 k K J J U J U U U P U U U n 1 1 X     dXdXdXdXdXdXdX",
"dXdXdXdXdXdXdXdXdXdXdXdXdXdXdXdX& & : h h q * 0 6XuX}.N.M.f.=.H.E.K.6.5.Y D D T 5.>.L L L L P U U U U n k 1       dXdXdXdXdXdXdX",
"dXdXdXdXdXdXdXdXdXdXdXdXdXdX    } *XP.oX X=XsXsXuXqX].f.f.Q.^.$.) +.U.'.3X7X9X7X9Xt.k x x x V U U U U n k 1 X     dXdXdXdXdXdXdX",
"dXdXdXdXdXdXdXdXdXdXdXdXdXdX    | ,X-XXX XeXpXpXyXqX>X-.=.^.).$.y ) '.;X7XqXqXyXyXY.k k k k V U U U U n k 1 X     dXdXdXdXdXdXdX",
"dXdXdXdXdXdXdXdXdXdXdXdXdXdX    | ;X-XXX XeXpXaXyXqX'.O.@.D.S.h.( ) ,X7X9XqXwX>X>X| < , , @ z n V P U n 1 1       dXdXdXdXdXdXdX",
"dXdXdXdXdXdXdXdXdXdXdXdXdXdX    | :X-XXX XeXpXpXyXyXL.y o.M.B.p.g O.7XyX0XqX9XH.%.E X       @ z x P U n k 1 X     dXdXdXdXdXdXdX",
"dXdXdXdXdXdXdXdXdXdXdXdXdXdX    } -XI.OX.XrXpXaXuXyXL.i o.M.B.p.) +.7XiX9X9X5X%.@.r         @ 1 z P U n k 1 X     dXdXdXdXdXdXdX",
"dXdXdXdXdXdXdXdXdXdXdXdXdXdXdXdX& & 8 &X-X6XyXyXqXuXL.y o.M.B.A.^.K.#X$X+XH.%.: O .     dXdXX   + G U n 1 2 X     dXdXdXdXdXdXdX",
"dXdXdXdXdXdXdXdXdXdXdXdXdXdXdXdX    & `.:X5XqXqXqXyXL.y o.M.B.S.~.'.@X@X+X$.@.+       . dXdXdX  X L U V k 1 X     dXdXdXdXdXdXdX",
"dXdXdXdXdXdXdXdXdXdXdXdXdXdXdXdXdX  $ } | I.5X5X5X5X`.;.-.u.p.k.A.Z.{ |.] d e _ _ Q o.r.dXdX    X m V 4 , @ X   dXdXdXdXdXdXdXdX",
"dXdXdXdXdXdXdXdXdXdXdXdXdXdXdXdXdXdXdX    } :X;X;X;X;X:X<X) i p.B.m.%       $ W._.S.B.B.dXdX.   . 1 k ,     dXdXdXdXdXdXdXdXdXdX",
"dXdXdXdXdXdXdXdXdXdXdXdXdXdXdXdXdXdXdX    } `.U.U.U.U.-XP.( t i.V.F.% X   X $ s.R.z.m.m.dXdXdX  X 2 1 ,     dXdXdXdXdXdXdXdXdXdX",
"dXdXdXdXdXdXdXdXdXdXdXdXdXdXdXdXdXdXdXdXdX& & & N N N N N O   _ (.W.%   @ 1 2 % % % % % dXdXdXdXdXX X   dXdXdXdXdXdXdXdXdXdXdXdX",
"dXdXdXdXdXdXdXdXdXdXdXdXdXdXdXdXdXdXdXdXdXdX  X 1 k k k 2 X   _ _.R.O   , k 2 X         dXdXdXdXdX      dXdXdXdXdXdXdXdXdXdXdXdX",
"dXdXdXdXdXdXdXdXdXdXdXdXdXdXdXdXdXdXdXdXdX< 3 z n V m k 1     ~ 0.9.b 3 c V n 7 6 =     dXdXdXdXdXdX  dXdXdXdXdXdXdXdXdXdXdXdXdX",
"dXdXdXdXdXdXdXdXdXdXdXdXdXdXdXdXdXdXdX    3 J J U J V k 2 X   4 U U U U U U I / ( 6     dXdXdXdXdXdXdXdXdXdXdXdXdXdXdXdXdXdXdXdX",
"dXdXdXdXdXdXdXdXdXdXdXdXdXdXdXdXdXdXdX# X b 1.,.G G C F D + X z I U U U >.I A E y 7 o o dXdXdXdXdXdXdXdXdXdXdXdXdXdXdXdXdXdXdXdX",
"dXdXdXdXdXdXdXdXdXdXdXdXdXdXdXdXdX  X <.2.c.C.n.5 X X.sXtXY G F / / I U F ( t O . 9 [ ] o   dXdXdXdXdXdXdXdXdXdXdXdXdXdXdXdXdXdX",
"dXdXdXdXdXdXdXdXdXdXdXdXdXdXdXdXdX  + 2.7.v.B.m.=   %XpXpX4.>.T ( / I J ! ( t .   9 [ [ o   dXdXdXdXdXdXdXdXdXdXdXdXdXdXdXdXdXdX",
"dXdXdXdXdXdXdXdXdXdXdXdXdXdXdXdX    + 2.7.r.y.Q ; =  .&X&X+X2X..- q F ! ! ! F k 3 9 9 9 } | f dXdXdXdXdXdXdXdXdXdXdXdXdXdXdXdXdX",
"dXdXdXdXdXdXdXdXdXdXdXdXdXdX        + 2.w.M     q p p q f sXpX%X  . t ( ! J J >.U z   $ `.1X|     dXdXdXdXdXdXdXdXdXdXdXdXdXdXdX",
"dXdXdXdXdXdXdXdXdXdXdXdXdXdX. . . . # <.3.N . O p p p p f tXsXX.X # / W ! >.>.P U 3   & I.-X}     dXdXdXdXdXdXdXdXdXdXdXdXdXdXdX",
"dXdXdXdXdXdXdXdXdXdXdXdX  O e t e q 7 # + 6 y t g g s p p 8 * R G I 8.8.q.7.2.m z <     O $ $ dXdXdXdXdXdXdXdXdXdXdXdXdXdXdXdXdX",
"dXdXdXdXdXdXdXdXdXdXdX    . t g s p q .   - ( i g j s p q o   4 U >.3.7.q.q.3.v z ,         dXdXdXdXdXdXdXdXdXdXdXdXdXdXdXdXdXdX",
"dXdXdXdXdXdXdXdXdXdXdX    O t ( s p q .   ^ L.L.;.;.^ ; : 4 3 C 1.1.q.q.<.Z S < , % ; : > - = dXdXdXdXdXdXdXdXdXdXdXdXdXdXdXdXdX",
"dXdXdXdXdXdXdXdXdXdXdX    . y i s p q .   :.yXuX,X,X| . X G J 1.w.q.q.w.Z 1 2 X   ; p p ( ) 6     dXdXdXdXdXdXdXdXdXdXdXdXdXdXdX",
"dXdXdXdXdXdXdXdXdXdXdXdX  . e t s p q O   ..7X6X`.-X}   X H G ,.2.2.2.2.S 1 2     ; p p i ( 6     dXdXdXdXdXdXdXdXdXdXdXdXdXdXdX",
"dXdXdXdXdXdXdXdXdXdXdXdXdXdX. . ; p p q a : ; * & & o     X X X + + + + X X X     ; p w i ( 6     dXdXdXdXdXdXdXdXdXdXdXdXdXdXdX",
"dXdXdXdXdXdXdXdXdXdXdXdXdXdX    ; p p p p ;                                       ; p p g ( 6     dXdXdXdXdXdXdXdXdXdXdXdXdXdXdX",
"dXdXdXdXdXdXdXdXdXdXdXdXdXdXdXdXO ; ; ; ; O           dX                  dX      ; p p s s :     dXdXdXdXdXdXdXdXdXdXdXdXdXdXdX",
"dXdXdXdXdXdXdXdXdXdXdXdXdXdXdXdXdX                  dXdXdXdXdXdXdXdXdXdXdXdXdX    ; p p p p ;     dXdXdXdXdXdXdXdXdXdXdXdXdXdXdX",
"dXdXdXdXdXdXdXdXdXdXdXdXdXdXdXdXdX                  dXdXdXdXdXdXdXdXdXdXdXdXdX    ; q w q q ;     dXdXdXdXdXdXdXdXdXdXdXdXdXdXdX",
"dXdXdXdXdXdXdXdXdXdXdXdXdXdXdXdXdXdXdXdXdXdXdXdXdXdXdXdXdXdXdXdXdXdXdXdXdXdXdXdXdX. . . . . . dXdXdXdXdXdXdXdXdXdXdXdXdXdXdXdXdX",
"dXdXdXdXdXdXdXdXdXdXdXdXdXdXdXdXdXdXdXdXdXdXdXdXdXdXdXdXdXdXdXdXdXdXdXdXdXdXdXdXdX            dXdXdXdXdXdXdXdXdXdXdXdXdXdXdXdXdX",
"dXdXdXdXdXdXdXdXdXdXdXdXdXdXdXdXdXdXdXdXdXdXdXdXdXdXdXdXdXdXdXdXdXdXdXdXdXdXdXdXdXdX        dXdXdXdXdXdXdXdXdXdXdXdXdXdXdXdXdXdX",
"dXdXdXdXdXdXdXdXdXdXdXdXdXdXdXdXdXdXdXdXdXdXdXdXdXdXdXdXdXdXdXdXdXdXdXdXdXdXdXdXdXdXdXdXdXdXdXdXdXdXdXdXdXdXdXdXdXdXdXdXdXdXdXdX",
"dXdXdXdXdXdXdXdXdXdXdXdXdXdXdXdXdXdXdXdXdXdXdXdXdXdXdXdXdXdXdXdXdXdXdXdXdXdXdXdXdXdXdXdXdXdXdXdXdXdXdXdXdXdXdXdXdXdXdXdXdXdXdXdX",
"dXdXdXdXdXdXdXdXdXdXdXdXdXdXdXdXdXdXdXdXdXdXdXdXdXdXdXdXdXdXdXdXdXdXdXdXdXdXdXdXdXdXdXdXdXdXdXdXdXdXdXdXdXdXdXdXdXdXdXdXdXdXdXdX",
"dXdXdXdXdXdXdXdXdXdXdXdXdXdXdXdXdXdXdXdXdXdXdXdXdXdXdXdXdXdXdXdXdXdXdXdXdXdXdXdXdXdXdXdXdXdXdXdXdXdXdXdXdXdXdXdXdXdXdXdXdXdXdXdX",
"dXdXdXdXdXdXdXdXdXdXdXdXdXdXdXdXdXdXdXdXdXdXdXdXdXdXdXdXdXdXdXdXdXdXdXdXdXdXdXdXdXdXdXdXdXdXdXdXdXdXdXdXdXdXdXdXdXdXdXdXdXdXdXdX"
};
