/* XPM */
static char *a1e2ba2165194c469d64f2c5240c1312fh1g07N8YFJ73xrr[] = {
/* columns rows colors chars-per-pixel */
"64 64 215 2 ",
"   c None",
".  c #000001",
"X  c #0B0604",
"o  c #020D05",
"O  c #0E0905",
"+  c #0E0D0B",
"@  c #051907",
"#  c #16110B",
"$  c #1B1815",
"%  c #23150D",
"&  c #251511",
"*  c #231B14",
"=  c #371F11",
"-  c #381E0E",
";  c #0B390B",
":  c #073D15",
">  c #083C15",
",  c #0D3210",
"<  c #3A2111",
"1  c #2C3416",
"2  c #23282D",
"3  c #43251C",
"4  c #48271F",
"5  c #4F3B1E",
"6  c #56381D",
"7  c #66391C",
"8  c #6C3B1C",
"9  c #633618",
"0  c #713E1D",
"q  c #4B2A20",
"w  c #512C21",
"e  c #5B3720",
"r  c #6F3F20",
"t  c #613721",
"y  c #723D21",
"u  c #0A430C",
"i  c #0B4115",
"p  c #144918",
"a  c #1A5315",
"s  c #0C5C1F",
"d  c #215215",
"f  c #3A4116",
"g  c #18671F",
"h  c #26711B",
"j  c #0E6F25",
"k  c #0B7A27",
"l  c #0E7B29",
"z  c #0C7729",
"x  c #1A7628",
"c  c #107C29",
"v  c #147525",
"b  c #186824",
"n  c #237828",
"m  c #307C31",
"M  c #4F411A",
"N  c #73401F",
"B  c #79441F",
"V  c #6D491F",
"C  c #776B15",
"Z  c #534D29",
"A  c #674721",
"S  c #744221",
"D  c #7C4A25",
"F  c #794928",
"G  c #6C5429",
"H  c #6C4D32",
"J  c #577329",
"K  c #243242",
"L  c #075B7A",
"P  c #2D5174",
"I  c #2D4F72",
"U  c #534B4C",
"Y  c #514C53",
"T  c #725D46",
"R  c #736A4F",
"E  c #595267",
"W  c #7B7A7B",
"Q  c #726B6A",
"!  c #5D7F48",
"~  c #81541B",
"^  c #81512E",
"/  c #895C2B",
"(  c #835331",
")  c #895C33",
"_  c #956C34",
"`  c #9A783D",
"'  c #98702B",
"]  c #A97639",
"[  c #A4793E",
"{  c #A5773B",
"}  c #807F00",
"|  c #9B7A42",
" . c #876F57",
".. c #8A6E53",
"X. c #A17643",
"o. c #A37A41",
"O. c #A97E44",
"+. c #A77F49",
"@. c #A47A54",
"#. c #A67D58",
"$. c #887865",
"%. c #14812A",
"&. c #1A8329",
"*. c #0F802A",
"=. c #298B26",
"-. c #299029",
";. c #399827",
":. c #308B2A",
">. c #3CA229",
",. c #3DA627",
"<. c #71981D",
"1. c #718F35",
"2. c #698D33",
"3. c #42A529",
"4. c #4DA12B",
"5. c #56AE25",
"6. c #51A728",
"7. c #4C9F2C",
"8. c #73975A",
"9. c #698D50",
"0. c #7DA052",
"q. c #808001",
"w. c #AC9C13",
"e. c #88BE15",
"r. c #BDA10F",
"t. c #AC863B",
"y. c #AE893A",
"u. c #A58938",
"i. c #B38C38",
"p. c #A8AE34",
"a. c #D3BE1F",
"s. c #D2BD21",
"d. c #D5BE2C",
"f. c #C8B822",
"g. c #D6C41D",
"h. c #E8DE10",
"j. c #E4E70C",
"k. c #F1EB07",
"l. c #EAF504",
"z. c #E7F404",
"x. c #F6F206",
"c. c #FFFE00",
"v. c #FBF609",
"b. c #FBF708",
"n. c #F1E713",
"m. c #D5C022",
"M. c #E5CA2A",
"N. c #EED529",
"B. c #F2D929",
"V. c #AB8247",
"C. c #B48A4F",
"Z. c #BD9866",
"A. c #BA956D",
"S. c #BA9567",
"D. c #BB9772",
"F. c #B28B66",
"G. c #A5A76D",
"H. c #C89B49",
"J. c #D29F4E",
"K. c #D5A54C",
"L. c #D9A752",
"P. c #DDAA54",
"I. c #C7AA43",
"U. c #E2B54A",
"Y. c #E4B944",
"T. c #E1AE54",
"R. c #E3B056",
"E. c #C8A57C",
"W. c #CDB176",
"Q. c #C19C77",
"!. c #EAD944",
"~. c #EBC87C",
"^. c #005C82",
"/. c #2A4D9A",
"(. c #2D519E",
"). c #326799",
"_. c #486683",
"`. c #44609F",
"'. c #4764A5",
"]. c #708F8F",
"[. c #4D8F99",
"{. c #07B4F2",
"}. c #27B3E2",
"|. c #10C1FE",
" X c #828282",
".X c #B69D8B",
"XX c #BBA191",
"oX c #9A9CAA",
"OX c #C7AC82",
"+X c #D6B58D",
"@X c #D8B68D",
"#X c #D5B485",
"$X c #DABA90",
"%X c #D7BA97",
"&X c #D1AF84",
"*X c #E9C897",
"=X c #E9CDA4",
"-X c #ECD3AB",
";X c #F1D5AD",
":X c #F6DBB2",
">X c #EAD7BB",
",X c #FDE4BB",
"<X c #FFE8BE",
"1X c #909EC1",
"2X c #97A8CF",
"3X c #CCC7C5",
"4X c #E9D8C0",
"5X c #E5E2C5",
"6X c #FFEBC2",
"7X c #FFE9C4",
"8X c #FFF3DD",
"9X c #F2EBE5",
"0X c #EDF1F7",
"qX c #FFFFFE",
"wX c #E9EBEF",
/* pixels */
"                                                                                                                                ",
"                                                                                                                                ",
"                                                                                                                                ",
"                                                                                                                                ",
"                                              . . > %.l l c c c l l c > . .                                                     ",
"                                              . . > l c l c c c c l %.> . .                                                     ",
"                                          . o > > s c c c c c c c c c s > > o .                                                 ",
"                                        . . o j c l c c c c c l c l l c c j o . .                                               ",
"                                        o o @ j c c c c c l c c c c c l c j @ o o                                               ",
"                                    . . > j j c c z c c c c c c c c c c c c j j > . .                                           ",
"                                    . . > l l c c c z c z c z l c z l l l l c *.> . .                                           ",
"                                . o > > g -.-.-.-.-.-.-.-.-.-.-.-.-.-.-.-.-.-.-.g > > o .                                       ",
"                              . . o v c -.3.,.,.3.3.3.3.3.3.3.3.3.3.3.3.3.3.3.3.-.l v o . .                                     ",
"                              . . o v c :.7.4.5.5.6.7.7.5.5.5.5.5.5.5.5.5.5.4.4.:.%.v o . .                                     ",
"                              . . o :.>.2.u.u.j.l.f.` u.j.l.l.z.z.z.l.l.l.j.u.` 2.,.:.o . .                                     ",
"                                . o ;.,.1.X.t.b.c.s.| t.x.c.c.c.c.c.c.c.c.x.t.X.1.,.;.o .                                       ",
"                              , > p 2.1.p.a.s.s.s.s.s.g.b.c.h.s.g.b.c.h.s.s.a.a.p.G.G.p : ,                                     ",
"                          . . > l n | o.s.c.x.[ | s.c.c.c.c.s.X.y.k.c.s.| t.x.c.!.+X.X&.l : . .                                 ",
"                          X X > x m ` O.s.c.x.i.t.s.v.v.c.c.s.X.y.x.c.s.X.t.n.x.!.W.W.:.x > X O                                 ",
"                O.o.Z.+XE.F 7 A A G H.L.N.c.c.c.x.N.U.Y.v.c.s.o.y.x.c.s.o.o.y.t.m.b.j.D A A 7 F E.@XZ.o.O.                      ",
"                O.[ Z.+XE.F N N 0 D J.P.N.c.c.c.c.N.P.U.v.c.s.X.t.x.c.a.| [ o.X.m.c.l.~ y S 0 F E.@XZ.O.o.                      ",
"                ) / S.-X=XD.A.@./ _ M.B.n.c.c.B.N.N.N.N.m.s.s.s.a.s.a.I.S.S.O.X.m.l.k.' ) | A.D.*X-XS.) )                       ",
"                N 8 A.6X<X<X6X#Xo.y.x.c.c.c.v.U.P.N.c.x.t.X.s.c.x.t.X.Z.%X&XV.X.s.c.x.y.o.#X6X<X7X7XD.0 N                       ",
"                S 8 A.;X-X5X5XW.` t.n.v.x.x.n.U.P.N.c.x.y.o.s.c.x.y.[ Z.+X&XC.V.d.c.n.y.o.OX5X5X-X;XF.0 N                       ",
"                    ( ^ T }.{.[.0 ~ K.U.H.u.i.L.P.B.c.k.t.X.s.c.x.y.[ Z.+X+X;X:X~.Y.U.O.] ].|.}.T ( ^                           ",
"                    S 0 H {.|.).0 ^ J.R.H.[ O.L.P.B.c.x.t.X.a.c.x.y.{ Z.+X+X,X6X*XU.K.] V.[.{.{.H 0 S                           ",
"                      N Z L ^.! r.r.] ] [ O.O.L.P.B.c.b.g.s.M.N.M.t.` E.=X=X=X=XQ.] ] a.m.9.L L Z y                             ",
"                          . . q.c.k.~ 0 / [ O.L.P.N.c.c.c.c.N.T.L.V.[ &X6X,X$X+X@.0 ~ k.c.<.. .                                 ",
"                          . . q.c.k.~ D / _ ` J.L.M.b.b.v.b.M.J.J.O.O.E.;X-XOXQ.| y / k.c.q.. .                                 ",
"                          . . q.c.k.t.[ e + % ` V.H.U.U.U.U.t.F ( E.@X#.( F * + Z ` t.k.c.q.. .                                 ",
"                          . . q.c.x.y.O.5 . O ..[ H.P.P.T.R.] 8 ^ E.@X@.y 9 X . e V.V.x.c.q.. .                                 ",
"                          . . C B.M._ /  .].$.Q Q ..] ] ] ] C.A.A.#.@.Q Y E $.]. .) ' M.B.C . X                                 ",
"                          . . G R.K.D 8 XXqX0X'./.E 0 r 0 8 A.7X;X^ 8 Y (.'.0XqX.X8 ^ K.T.G . .                                 ",
"                          . . G J.C.D 0 XXqXwX'.(.E ( ( ( ^ Q.6X:X) ( E (.'.wXqX.X9 0 C.H.G . .                                 ",
"                              # # % 7 N A.7X>X'./.1X9X9X;X-X:X<X7X9X9X1X/.'.4X7X$.X O # # #                                     ",
"                              . . O 7 S D.6X>X`./.2XqXqX7X7X,X<X7XqXqX2X/.`.>X7X$.. . . .                                       ",
"                                . X < - ..W.OXoXoX3X8X8X7X,X<X,X,X8X8X3XoXoX&X#XR & & - < %                                     ",
"                                    . . e [ C.:X7X,X7X,X<X<X,X<X<X<X<X7X7X:XV.[ F 4 w S D < . .                                 ",
"                                    . . 5 [ +.=X;X;X:X,X,X:X,X,X:X,X:X:X-X=XV.` H 4 w y 0 < . .                                 ",
"                                    . . < D S ( ^ F.%X@X$X$X+X$X$X@X@XF.^ ^ D D t q w 0 S < . .                                 ",
"                                    . . - y 0 0 r @.$X+X+X+X@X@X@X@X@X#.0 y y B t 4 w y S < . .                                 ",
"                                    . . U OXXXXXOXF.T T 8.8.8.8.8.8.8.! h Z S S 6 1 1 < < %                                     ",
"                                    . .  XqXqXqXqX_.. o j k k k k k z k k x V N f u ; o .                                       ",
"                                    O . W 0XwXwX0XW . o b b x -.=.=.=.n x x A N f ; ; . .                                       ",
"                                . X 9 7 U _._._._.K . X e A w.z.z.z.z.w.A Z n x i . o                                           ",
"                              . . O 7 B U P I I L 2 . X 7 y r.c.c.c.c.r.8 A v c > . .                                           ",
"                              . . O t S H Y U $.F.Y @ , J J <.e.e.e.e.<.J J :.-.a @ , . .                                       ",
"                              . . O t r r S F &X$X! ; a ;.,.-.l z z z -.3.3.3.3.h u ; o . .                                     ",
"                              . . O F ( ( F ) .XE.! > a ;.3.-.c c c c -.3.3.>.>.h ; , o .                                       ",
"                              . . $ %X;X;X:X%X1 # p v v ;.3.3.3.3.>.3.3.3.>.&.%.i . .                                           ",
"                              . . $ -X6X6X<X-X$ . i l %.3.3.3.3.3.4.3.3.3.>.%.c i . .                                           ",
"                                . $ Q  .Q $.R + . @ i i a d d d d d d d d a i : @ . .                                           ",
"                                    . . . . . . . . . . . . . . . . . . . . . . . . .                                           ",
"                                    . . . . . . . . . . . . . . . . . X X . X X o . .                                           ",
"                                                                  . . & q 3 < 3 & . .                                           ",
"                                                                  . . & q q q q & . .                                           ",
"                                                                  . . & q q e t 3 % & X .                                       ",
"                                                                  . . & q q y S t q 3 . . .                                     ",
"                                                                  . . & w q y S t q 4 X . .                                     ",
"                                                                  . . = S S S S y r 9 X . .                                     ",
"                                                                  . . < S S S S S S 8 O . .                                     ",
"                                                                      % < < < < < < = O .                                       ",
"                                                                        . . . . . . .                                           ",
"                                                                      . . . . . . . .                                           "
};
