/* XPM */
static char *result[] = {
/* columns rows colors chars-per-pixel */
"64 64 225 2 ",
"   c #000001",
".  c #090504",
"X  c #020C04",
"o  c #070809",
"O  c #110E0B",
"+  c #051E06",
"@  c #041707",
"#  c #1B1B01",
"$  c #16120D",
"%  c #191409",
"&  c #041316",
"*  c #171410",
"=  c #1B1918",
"-  c #371E0F",
";  c #251410",
":  c #2B1F19",
">  c #391F12",
",  c #26160B",
"<  c #072107",
"1  c #09270A",
"2  c #0B3D0B",
"3  c #0B350B",
"4  c #083D14",
"5  c #073B15",
"6  c #16350B",
"7  c #3B2212",
"8  c #392317",
"9  c #2F311A",
"0  c #182938",
"q  c #1E2226",
"w  c #2B2E30",
"e  c #101B27",
"r  c #42251D",
"t  c #48281E",
"y  c #4D381C",
"u  c #58371C",
"i  c #542F1D",
"p  c #663A1C",
"a  c #6C3B1D",
"s  c #713E1E",
"d  c #4B2A20",
"f  c #5E3520",
"g  c #4B3127",
"h  c #723F20",
"j  c #783F20",
"k  c #6F3E20",
"l  c #0C420D",
"z  c #124B0F",
"x  c #0D4910",
"c  c #0C4615",
"v  c #124C10",
"b  c #1E4D13",
"n  c #0E5D1A",
"m  c #0D5418",
"M  c #195513",
"N  c #215215",
"B  c #2C5E15",
"V  c #28501B",
"C  c #0F621D",
"Z  c #1B671D",
"A  c #27731B",
"S  c #28731B",
"D  c #236A19",
"F  c #164822",
"G  c #355721",
"H  c #0E6E24",
"J  c #0D6322",
"K  c #0E7325",
"L  c #0B7A26",
"P  c #0E7B29",
"I  c #117526",
"U  c #1A7528",
"Y  c #117C29",
"T  c #147726",
"R  c #1C6725",
"E  c #237128",
"W  c #336726",
"Q  c #74411F",
"!  c #7B730D",
"~  c #564526",
"^  c #425D25",
"/  c #5D4A38",
"(  c #684723",
")  c #754221",
"_  c #784321",
"`  c #7A4A29",
"'  c #715828",
"]  c #6B5629",
"[  c #587324",
"{  c #426025",
"}  c #487D15",
"|  c #2D465E",
" . c #2D4B6A",
".. c #315476",
"X. c #34516F",
"o. c #544C52",
"O. c #645542",
"+. c #6B5B46",
"@. c #717C4C",
"#. c #756C54",
"$. c #4E667D",
"%. c #797B7A",
"&. c #776F6D",
"*. c #50665C",
"=. c #82551C",
"-. c #865833",
";. c #83542A",
":. c #956E38",
">. c #9E743D",
",. c #A8783B",
"<. c #8F671A",
"1. c #91774E",
"2. c #A47A41",
"3. c #A67D45",
"4. c #A67C57",
"5. c #877964",
"6. c #18832A",
"7. c #278728",
"8. c #2A9129",
"9. c #27902A",
"0. c #3C9A26",
"q. c #399A28",
"w. c #328931",
"e. c #3DA229",
"r. c #7BAF14",
"t. c #4E9529",
"y. c #72913C",
"u. c #41A529",
"i. c #47A728",
"p. c #55AF24",
"a. c #7E8513",
"s. c #73985B",
"d. c #7AA869",
"f. c #808000",
"g. c #B99E17",
"h. c #B9A010",
"j. c #AE893A",
"k. c #AC873B",
"l. c #B28A39",
"z. c #95AB3C",
"x. c #93B234",
"c. c #D2BD21",
"v. c #CCB12F",
"b. c #D1BD1F",
"n. c #91C516",
"m. c #A0D313",
"M. c #E4DD09",
"N. c #D8E709",
"B. c #EAE506",
"V. c #F1EC05",
"C. c #E9F404",
"Z. c #F6F206",
"A. c #FFFE01",
"S. c #FBF609",
"D. c #FEFA08",
"F. c #F8ED12",
"G. c #FDFA18",
"H. c #D7C128",
"J. c #EFD529",
"K. c #E4D12B",
"L. c #EED329",
"P. c #CDCD00",
"I. c #90844F",
"U. c #AB8143",
"Y. c #AC844C",
"T. c #B68F4C",
"R. c #859465",
"E. c #BB9567",
"W. c #B3916D",
"Q. c #88AA70",
"!. c #BEA07C",
"~. c #C49648",
"^. c #CAA64A",
"/. c #DBAD4A",
"(. c #D5A449",
"). c #DDAA53",
"_. c #D8A752",
"`. c #E2B54A",
"'. c #E5BA45",
"]. c #E2AD54",
"[. c #E5B354",
"{. c #C2A37E",
"}. c #C09A64",
"|. c #2B4F9D",
" X c #4765A8",
".X c #456281",
"XX c #76AE8E",
"oX c #6DB4AB",
"OX c #04B1F1",
"+X c #10A0D1",
"@X c #7ED2E2",
"#X c #838495",
"$X c #8A888F",
"%X c #8FAF92",
"&X c #99ABB9",
"*X c #BFB39F",
"=X c #CDAA81",
"-X c #C4A782",
";X c #D6B58C",
":X c #D9B78D",
">X c #DCBA8D",
",X c #D5B383",
"<X c #DBBB91",
"1X c #D6BD99",
"2X c #CDB287",
"3X c #E0BE92",
"4X c #8BC097",
"5X c #DDC69D",
"6X c #E7CCA5",
"7X c #EAD3AB",
"8X c #F1D5AD",
"9X c #F5DAB0",
"0X c #FCE5A9",
"qX c #FEE4BB",
"wX c #FFE8BF",
"eX c #FBE1B7",
"rX c #88CDD4",
"tX c #CFD5D3",
"yX c #FFEAC2",
"uX c #FFECCE",
"iX c #FFF3DF",
"pX c #F8ECCE",
"aX c white",
"sX c #ECEEEF",
"dX c None",
/* pixels */
"dXdXdXdXdXdXdXdXdXdXdXdXdXdXdXdXdXdXdXdXdXdXdXdXdXdXdXdXdXdXdXdXdXdXdXdXdXdXdXdXdXdXdXdXdXdXdXdXdXdXdXdXdXdXdXdXdXdXdXdXdXdXdXdX",
"dXdXdXdXdXdXdXdXdXdXdXdXdXdXdXdXdXdXdXdXdXdXdXdXdXdXdXdXdXdXdXdXdXdXdXdXdXdXdXdXdXdXdXdXdXdXdXdXdXdXdXdXdXdXdXdXdXdXdXdXdXdXdXdX",
"dXdXdXdXdXdXdXdXdXdXdXdXdXdXdXdXdXdXdXdXdXdXdXdXdXdXdXdXdXdXdXdXdXdXdXdXdXdXdXdXdXdXdXdXdXdXdXdXdXdXdXdXdXdXdXdXdXdXdXdXdXdXdXdX",
"dXdXdXdXdXdXdXdXdXdXdXdXdXdXdXdXdXdXdXdXdXdXdXdXdXdXdXdXdXdXdXdXdXdXdXdXdXdXdXdXdXdXdXdXdXdXdXdXdXdXdXdXdXdXdXdXdXdXdXdXdXdXdXdX",
"dXdXdXdXdXdXdXdXdXdXdXdXdXdXdXdXdXdXdXdXdXdXdXdXdXdXdXdXdXdXdXdXdXdXdXdXdXdXdXdXdXdXdXdXdXdXdXdXdXdXdXdXdXdXdXdXdXdXdXdXdXdXdXdX",
"dXdXdXdXdXdXdXdXdXdXdXdXdXdXdXdXdXdXdXdXdXdXdXdXdXdXdXdXdXdXdXdXdXdXdXdXdXdXdXdXdXdXdXdXdXdXdXdXdXdXdXdXdXdXdXdXdXdXdXdXdXdXdXdX",
"dXdXdXdXdXdXdXdXdXdXdXdXdXdXdXdXdXdXdXdXdXdXdXdXY Y Y Y u.u.u.u.u.u.u.S 2 x I Y ^ ) ` >.2.dXdXdXdXdXdXdXdXdXdXdXdXdXdXdXdXdXdXdX",
"dXdXdXdXdXdXdXdXdXdXdXdXdXdXdXdXdXdXdXdXdXdXdXP Y P P Y 0.u.u.u.u.u.u.A 2 x P P ^ s _ >.2.2.dXdXdXdXdXdXdXdXdXdXdXdXdXdXdXdXdXdX",
"dXdXdXdXdXdXdXdXdXdXdXdXdXdXdXdXdXdXdXdXdXdXdX6.Y 6.6.6.0.u.u.u.u.0.0.S z M 7.7.[ =.=.,.U.U.dXdXdXdXdXdXdXdXdXdXdXdXdXdXdXdXdXdX",
"dXdXdXdXdXdXdXdXdXdXdXdXdXdXdXdXdXdXdXdXdXY 6.q.e.e.0.0.u.u.u.u.0.M v S 0.i.N.C.B.V.B./._.).]./.U.2.dXdXdXdXdXdXdXdXdXdXdXdXdXdX",
"dXdXdXdXdXdXdXdXdXdXdXdXdXdXdXdXdXdXdXdXdXP Y e.u.u.u.u.u.u.i.u.0.z 2 A u.p.C.A.A.A.D.`.).).]._.3.2.dXdXdXdXdXdXdXdXdXdXdXdXdXdX",
"dXdXdXdXdXdXdXdXdXdXdXdXdXdXdXdXl x I dX7.9.8.e.u.u.u.u.u.u.8.A S S S t.z.z.K.J.J.J.J.J.J.J.J.K.~.~.T.dXdXdXdXdXdXdXdXdXdXdXdXdX",
"dXdXdXdXdXdXdXdXdXdXdXdXdXdXdXl x x I I 8.u.u.u.u.u.u.u.u.u.S 2 x u.e.z.].].).).).).'.S.A.A.A.S.`.).~.2.3.dXdXdXdXdXdXdXdXdXdXdX",
"dXdXdXdXdXdXdXdXdXdXdXdXdXdXdXx x x P P 8.u.u.u.u.u.u.u.u.u.S l z 0.0.z.`.[.`.`./._./.F.S.S.S.F.'.'.^.k.j.dXdXdXdXdXdXdXdXdXdXdX",
"dXdXdXdXdXdXdXdXdXdXdXdXdXl l n I I I Y 8.u.u.u.0.u.u.u.u.u.S 2 z 0.u.m.D.S.S.D.c.3.Y./.`.`.`.'.F.S.Z.Z.B.j.2.dXdXdXdXdXdXdXdXdX",
"dXdXdXdXdXdXdXdXdXdXdXdXdXl 2 n Y Y Y Y 8.u.u.u.u.u.u.u.u.u.S l z 0.0.m.A.A.A.A.c.2.U.).].).).'.D.A.A.A.Z.j.2.2.dXdXdXdXdXdXdXdX",
"dXdXdXdXdXdXdXdXdXdXdX  @ m C H Y Y Y P 6.8.8.u.u.u.u.u.u.u.A 2 v 0.u.x.J.J.D.A.c.2.,.,.,.T.).`.J.J.F.A.Z.k.2.2.dXdXdXdXdXdXdXdX",
"dXdXdXdXdXdXdXdXdXdX    X H Y P Y Y Y Y Y Y Y 0.u.u.u.u.u.u.A 2 v 0.e.z.].`.S.A.c.2.>.=.s ,.].).).).J.A.Z.k.2.2.dXdXdXdXdXdXdXdX",
"dXdXdXdXdXdXdXdXdXdX    X H Y Y Y Y Y Y Y Y 6.q.u.u.u.u.0.0.A z M p.p.z./.`.F.Z.v.3.T.;.` ,._._._._.H.Z.B.k.U.dXdXdXdXdXdXdXdXdX",
"dXdXdXdXdXdXdXdXdXdX    X K Y Y P I Y P Y Y Y Y Y 8.u.0.M z A 0.i.N.C.K.]._.l.j.}.,X{.{.{.E.U.U.,.3.:.=.=.dXdXdXdXdXdXdXdXdXdXdX",
"dXdXdXdXdXdXdXdXdXdXdX  X H Y P P Y Y P Y Y Y Y Y 8.u.0.v 4 A u.p.C.A.J.)._.3.2.E.;X;X;X:XE.3.2.3.,.-.Q Q dXdXdXdXdXdXdXdXdXdXdX",
"dXdXdXdXdXdXdXdXdXdX@ < 1 H Y Y I Y Y Y Y Y Y Y Y 6.8.7.z 2 Z 9.0.C.A.J.).).}.E.,X6X6X;X:X1.f ~ :.dX-.) dXdXdXdXdXdXdXdXdXdXdXdX",
"dXdXdXdXdXdXdXdX    < l x I Y Y Y Y Y Y Y Y Y Y Y Y Y K x 2 n P 7.C.A.J.).).;X;X6XyX9X3X<X+.    dXdXdXdXdXdXdXdXdXdXdXdXdXdXdXdX",
"dXdXdXdXdXdXdXdX    < l x I Y P P Y Y P Y Y P Y P I I K v x Z 7.0.N.Z.J.`.`.>X:X5X6X6X=X,X/     dXdXdXdXdXdXdXdXdXdXdXdXdXdXdXdX",
"dXdXdXdXdXdXdXdX    < l x K Y Y Y Y P Y P Y Y P P C l x H K y.^.~.l.,.c.S.G.0XqX5.* : ) ;.8     dXdXdXdXdXdXdXdXdXdXdXdXdXdXdXdX",
"dXdXdXdXdXdXdXdX    < l x I Y Y Y Y Y Y P P Y P P n 2 x K K y.[.).3.2.c.A.G.0XyX&.. . p Q 7     dXdXdXdXdXdXdXdXdXdXdXdXdXdXdXdX",
"dXdXdXdXdXdXdXdX    < l x I P Y Y I n n C n R d.Q.Q.R.s.s.s.I.,.,.T.~.v.H.v.0XyX*X%..Xo.o.o.+.O.*   dXdXdXdXdXdXdXdXdXdXdXdXdXdX",
"dXdXdXdXdXdXdXdX    < l c I Y Y Y I x 4 l l V 7XyXyXyXqX>X:X4.a ;.(.].~.2.Y.9XqXiXaXaX X|.#X3X-X$     dXdXdXdXdXdXdXdXdXdXdXdXdX",
"dXdXdXdXdXdXdXdX    < l v I Y I I H l 2 2 3 V 5X9X9XwXeX5X>X4.s ;.(.'.~.>.Y.9XwXiXaXsX X|.#X>X!.*     dXdXdXdXdXdXdXdXdXdXdXdXdX",
"dXdXdXdXdXdXdXdX    < l x I P C x l X X X   % 1.Y.:XwXwXeXeXE.a =.B.D.g._ -.8XwXiXaXsX X|.#X:X!.*     dXdXdXdXdXdXdXdXdXdXdXdXdX",
"dXdXdXdXdXdXdXdX    < l x I Y n l 2 .       O :.3.,XyXwXqXwXE.a _ Z.A.h.h ` 8XqXiXaXsX X|.#X>X{.*     dXdXdXdXdXdXdXdXdXdXdXdXdX",
"dXdXdXdXdXdXdXdX    < l x I Y m + +   dX    . y u 1.,X2XrX@X%X,.l.Z.A.g.k ;.8XwXiXiXpX$X#X&.+.O.$   dXdXdXdXdXdXdXdXdXdXdXdXdXdX",
"dXdXdXdXdXdXdXdX    < l x I Y 4     dXdXdX        y ,.5.OXOXoX[.'.S.A.h.s -.8XyXyXyX9X3X3X+.    dXdXdXdXdXdXdXdXdXdXdXdXdXdXdXdX",
"dXdXdXdXdXdXdXdX    < 2 l H Y 4     dXdX# # # % % ~ :.1.+XOXXX`.'.B.V.g.` -.8X9X9XqX9X-X-XO.    dXdXdXdXdXdXdXdXdXdXdXdXdXdXdXdX",
"dXdXdXdXdXdXdXdXdXdXX   X l x 1     dXdXB.M.B.^.~.] O O & & f.G.B.<.=.3.=X=X:X:X:X<X-X9 $ $ dXdXdXdXdXdXdXdXdXdXdXdXdXdXdXdXdXdX",
"dXdXdXdXdXdXdXdXdXdX      2 l <     dXdXA.A.D.'.[.'       o f.D.V.=.s 4.:X:X:X:X;X;X-X$     dXdXdXdXdXdXdXdXdXdXdXdXdXdXdXdXdXdX",
"dXdXdXdXdXdXdXdXdXdXdX    < < @ dXdXdXdXf.f.<.' ' 9 1 +     ! J.H.y 7 ~ @.@.@.@.#./ +.$   dXdXdXdXdXdXdXdXdXdXdXdXdXdXdXdXdXdXdX",
"dXdXdXdXdXdXdXdXdXdXdXdXdX    dXdXdXdXdX    X     < z 2     ] ].~.$   < c 2 2 2 +     dXdXdXdXdXdXdXdXdXdXdXdXdXdXdXdXdXdXdXdXdX",
"dXdXdXdXdXdXdXdXdXdXdXdXdX    dXdXdXdXdX      . O 1 l l @ X ] ^.T.#   < x l x x 6 # # dXdXdXdXdXdXdXdXdXdXdXdXdXdXdXdXdXdXdXdXdX",
"dXdXdXdXdXdXdXdXdXdXdXdXdXdXdXdXdXdXdXdX  . . u a G I I K K U 7.E X   5 P P K K r.B.P.#   dXdXdXdXdXdXdXdXdXdXdXdXdXdXdXdXdXdXdX",
"dXdXdXdXdXdXdXdXdXdXdXdXdXdXdXdXdXdXdXdXdX  . p s ^ T Y Y Y P P H X   5 6.L L L n.A.N.#   dXdXdXdXdXdXdXdXdXdXdXdXdXdXdXdXdXdXdX",
"dXdXdXdXdXdXdXdXdXdXdXdXdXdXdXdXdXdXdXdXe 0 0 8 - G ^ { T P W ^ G c l *.%XXXF 5 } n.r.B N 6 dXdXdXdXdXdXdXdXdXdXdXdXdXdXdXdXdXdX",
"dXdXdXdXdXdXdXdXdXdXdXdXdXdXdXdXdXdX    0 .. .o   7 Q ( U P { s ( Y 6.4XaXsX=   5 P Y e.i.M     dXdXdXdXdXdXdXdXdXdXdXdXdXdXdXdX",
"dXdXdXdXdXdXdXdXdXdXdXdXdXdXdXdXdXdX* $ 0  .| & X 7 ( ( E U ^ p / w.9.XXsXtXq   5 H I e.i.N     dXdXdXdXdXdXdXdXdXdXdXdXdXdXdXdX",
"dXdXdXdXdXdXdXdXdXdXdXdXdXdXdXdX  * W.-X+.o & C H I U E ( ( 7 . : tXsX&X$.$. . .0 X + 0.u.N         dXdXdXdXdXdXdXdXdXdXdXdXdXdX",
"dXdXdXdXdXdXdXdXdXdXdXdXdXdXdX    * -X3X+.  X H 6.Y L U ( s 7   = sXaX&X . .....0   X q.i.N         dXdXdXdXdXdXdXdXdXdXdXdXdXdX",
"dXdXdXdXdXdXdXdXdXdXdXdXdXdXdXdX  * O.+.9   X m C U 8.8.[ [ G 5 F %.%.$...X.o.o.g 7 7 b N 9 * ; - 7 , dXdXdXdXdXdXdXdXdXdXdXdXdX",
"dXdXdXdXdXdXdXdXdXdXdXdXdXdXdXdXdXdX    .     2 l S u.i.e.i.9.P H     0 ....( Q ) ) p .   ; d i h _ 7     dXdXdXdXdXdXdXdXdXdXdX",
"dXdXdXdXdXdXdXdXdXdXdXdXdXdXdXdXdXdX. . . . o 3 2 A 0.0.u.u.8.6.I @ X 0  . .( Q ` -.` .   ; d d k ) 7     dXdXdXdXdXdXdXdXdXdXdX",
"dXdXdXdXdXdXdXdXdXdXdXdXdXdXdXdX  O p p i r > o   1 v M 0.u.u.e.q.I K 5 o O a a W.9X1X=   ; d d k ) 7     dXdXdXdXdXdXdXdXdXdXdX",
"dXdXdXdXdXdXdXdXdXdXdXdXdXdXdX    . p _ p d 8     + l v 0.u.u.u.e.6.6.5   . p Q W.uX7X=   ; d d h ) 7     dXdXdXdXdXdXdXdXdXdXdX",
"dXdXdXdXdXdXdXdXdXdXdXdXdXdXdX    . p h f d d .   @ < 1 N N N N b c 4 +   . - > / 5.#.: ; > d d 7 7 , dXdXdXdXdXdXdXdXdXdXdXdXdX",
"dXdXdXdXdXdXdXdXdXdXdXdXdXdXdX    O p h f d r .                                       r d d d d     dXdXdXdXdXdXdXdXdXdXdXdXdXdX",
"dXdXdXdXdXdXdXdXdXdXdXdXdXdXdX    . p k f d r o                                     . 8 8 d d : .   dXdXdXdXdXdXdXdXdXdXdXdXdXdX",
"dXdXdXdXdXdXdXdXdXdXdXdXdXdXdX    o r d d d r       dXdXdXdXdXdXdXdXdXdXdXdX          . . . . . dXdXdXdXdXdXdXdXdXdXdXdXdXdXdXdX",
"dXdXdXdXdXdXdXdXdXdXdXdXdXdXdX    . > d d d d .   dXdXdXdXdXdXdXdXdXdXdXdXdX                    dXdXdXdXdXdXdXdXdXdXdXdXdXdXdXdX",
"dXdXdXdXdXdXdXdXdXdXdXdXdXdXdX    . d d d d > o     dXdXdXdXdXdXdXdXdXdXdXdXdX                dXdXdXdXdXdXdXdXdXdXdXdXdXdXdXdXdX",
"dXdXdXdXdXdXdXdXdXdXdXdXdXdXdX    . 8 d d d d .     dXdXdXdXdXdXdXdXdXdXdXdXdXdXdXdXdXdXdXdXdXdXdXdXdXdXdXdXdXdXdXdXdXdXdXdXdXdX",
"dXdXdXdXdXdXdXdXdXdXdXdXdXdXdXdX  . : d d d : .   dXdXdXdXdXdXdXdXdXdXdXdXdXdXdXdXdXdXdXdXdXdXdXdXdXdXdXdXdXdXdXdXdXdXdXdXdXdXdX",
"dXdXdXdXdXdXdXdXdXdXdXdXdXdXdXdXdXdX. o   o . dXdXdXdXdXdXdXdXdXdXdXdXdXdXdXdXdXdXdXdXdXdXdXdXdXdXdXdXdXdXdXdXdXdXdXdXdXdXdXdXdX",
"dXdXdXdXdXdXdXdXdXdXdXdXdXdXdXdXdXdX          dXdXdXdXdXdXdXdXdXdXdXdXdXdXdXdXdXdXdXdXdXdXdXdXdXdXdXdXdXdXdXdXdXdXdXdXdXdXdXdXdX",
"dXdXdXdXdXdXdXdXdXdXdXdXdXdXdXdXdXdXdX      dXdXdXdXdXdXdXdXdXdXdXdXdXdXdXdXdXdXdXdXdXdXdXdXdXdXdXdXdXdXdXdXdXdXdXdXdXdXdXdXdXdX",
"dXdXdXdXdXdXdXdXdXdXdXdXdXdXdXdXdXdXdXdXdXdXdXdXdXdXdXdXdXdXdXdXdXdXdXdXdXdXdXdXdXdXdXdXdXdXdXdXdXdXdXdXdXdXdXdXdXdXdXdXdXdXdXdX",
"dXdXdXdXdXdXdXdXdXdXdXdXdXdXdXdXdXdXdXdXdXdXdXdXdXdXdXdXdXdXdXdXdXdXdXdXdXdXdXdXdXdXdXdXdXdXdXdXdXdXdXdXdXdXdXdXdXdXdXdXdXdXdXdX"
};
