/* XPM */
static char *d489d81105d14197d3fa111da7abe1759hpp1q56e3eoFq3n[] = {
/* columns rows colors chars-per-pixel */
"64 64 239 2 ",
"   c None",
".  c black",
"X  c #000100",
"o  c #010101",
"O  c #000200",
"+  c #020202",
"@  c gray1",
"#  c #000700",
"$  c #030703",
"%  c #040404",
"&  c gray2",
"*  c #060606",
"=  c #070607",
"-  c #070707",
";  c #000800",
":  c #010901",
">  c #010C01",
",  c #000E00",
"<  c #000F00",
"1  c #090809",
"2  c gray4",
"3  c gray6",
"4  c #001100",
"5  c #001200",
"6  c #011201",
"7  c #001400",
"8  c #001A00",
"9  c #021802",
"0  c #0F120F",
"q  c #0C1A0C",
"w  c #0C1E0C",
"e  c #100E10",
"r  c #101110",
"t  c gray7",
"y  c gray8",
"u  c #111A11",
"i  c #003200",
"p  c #003800",
"a  c #003900",
"s  c #003C00",
"d  c #003D00",
"f  c #013F01",
"g  c #162416",
"h  c #162816",
"j  c #1F291F",
"k  c #211E21",
"l  c #232023",
"z  c gray14",
"x  c #323232",
"c  c gray22",
"v  c #3A383A",
"b  c #004000",
"n  c #004300",
"m  c #024302",
"M  c #004400",
"N  c #004500",
"B  c #004700",
"V  c #014402",
"C  c #004800",
"Z  c #004900",
"A  c #004C00",
"S  c #004F00",
"D  c #0C500E",
"F  c #006000",
"G  c #006600",
"H  c #006800",
"J  c #006C00",
"K  c #006E00",
"L  c #096709",
"P  c #007700",
"I  c #057305",
"U  c #067307",
"Y  c #007C00",
"T  c #007D00",
"R  c #2A462A",
"E  c #2D592D",
"W  c #206522",
"Q  c #266B26",
"!  c #5F5F5F",
"~  c gray47",
"^  c #7E7E7E",
"/  c #008300",
"(  c #008400",
")  c #018501",
"_  c #008600",
"`  c #008900",
"'  c #018801",
"]  c #008A00",
"[  c #008B00",
"{  c #00860B",
"}  c #01870C",
"|  c #009400",
" . c #009B00",
".. c #009E00",
"X. c #069B07",
"o. c #1C891C",
"O. c #02A300",
"+. c #00A600",
"@. c #04A904",
"#. c #09AE08",
"$. c #0CAC0C",
"%. c #00B100",
"&. c #00B400",
"*. c #00B900",
"=. c #00BB00",
"-. c #00BD00",
";. c #00BE00",
":. c #00BF00",
">. c #06BB06",
",. c #378C37",
"<. c #02C303",
"1. c #05C105",
"2. c #06C206",
"3. c #00CC00",
"4. c #00CD00",
"5. c #00CE00",
"6. c #03CE02",
"7. c #0AC40A",
"8. c #0EC90E",
"9. c #00D200",
"0. c #00D900",
"q. c #00DD00",
"w. c #00DF00",
"e. c #00E200",
"r. c #00E500",
"t. c #00E900",
"y. c #00EF00",
"u. c #00F000",
"i. c #00F200",
"p. c #00F300",
"a. c #00F400",
"s. c #00F600",
"d. c #00F700",
"f. c #00F800",
"g. c #00F900",
"h. c #00FA00",
"j. c #00FB00",
"k. c #00FD00",
"l. c #00FE00",
"z. c green",
"x. c #01FF00",
"c. c #03FE00",
"v. c #02FF00",
"b. c #03FF00",
"n. c #04FF04",
"m. c #07FF05",
"M. c #0EFF00",
"N. c #0DF70D",
"B. c #0AFF0A",
"V. c #0EFF0D",
"C. c #11FF0F",
"Z. c #12FF12",
"A. c #12FF13",
"S. c #16FF15",
"D. c #22FF1A",
"F. c #31D42E",
"G. c #3DDF38",
"H. c #24ED23",
"J. c #22FF20",
"K. c #29FF20",
"L. c #31FF30",
"P. c #39FF39",
"I. c #3AFF3A",
"U. c #3CFF38",
"Y. c #3CFF3B",
"T. c #44FF3D",
"R. c #7A857B",
"E. c #7E8A7F",
"W. c #46CB40",
"Q. c #4EED48",
"!. c #4AFF42",
"~. c #4FFF49",
"^. c #50FF4C",
"/. c #63FF5A",
"(. c #64FF5B",
"). c #7EC47D",
"_. c #63FF62",
"`. c #67FF63",
"'. c #6EFF66",
"]. c #6FFF6F",
"[. c #7BFF7A",
"{. c #82FF7F",
"}. c #848484",
"|. c #878987",
" X c #9A9A9A",
".X c #9C9A9C",
"XX c #98A997",
"oX c #9DA79D",
"OX c #B1B1B1",
"+X c gray74",
"@X c #8CCE8B",
"#X c #89FF87",
"$X c #89FE88",
"%X c #8AFF8A",
"&X c #8EFF8E",
"*X c #90FF8E",
"=X c #9BFF9A",
"-X c #A1FC9F",
";X c #A2C8A3",
":X c #BFC2BF",
">X c #A5FFA4",
",X c #A6FFA5",
"<X c #A7FFA7",
"1X c #B5FFB4",
"2X c #B7FFB6",
"3X c gray77",
"4X c gray78",
"5X c #C3CEC3",
"6X c #C8C8C8",
"7X c #C9C8C9",
"8X c gray86",
"9X c #C3FFC2",
"0X c #C8FFC8",
"qX c #CAFFC9",
"wX c #CBFFCA",
"eX c #CFFFCF",
"rX c #D2FFD3",
"tX c #D3FFD3",
"yX c #D3FFD4",
"uX c gray90",
"iX c gray92",
"pX c #EEEEEE",
"aX c #EDFEED",
"sX c #EFFFEF",
"dX c #F4FEF4",
"fX c #F4FFF4",
"gX c #F5FFF5",
"hX c #F6FFF6",
"jX c #F7FFF7",
"kX c #F8FFF7",
"lX c gray98",
"zX c #FBFBFB",
"xX c #F9FFF9",
"cX c #FAFFFB",
"vX c #FCFFFC",
"bX c #FEFDFE",
"nX c #FEFEFE",
"mX c #FEFFFE",
"MX c white",
/* pixels */
"                                                                                                                                ",
"                                                                                                                                ",
"                                                                                                                                ",
"                                                                                                                                ",
"                                                                                                                                ",
"                                                                                                                                ",
"                                                                                                                                ",
"                                                                                                                                ",
"                                                                                                                                ",
"                                                                                                                                ",
"                                                          & $ $ :                                                               ",
"                                                        OX4X).7.>.Q                                                             ",
"                                                    & t +XnX,XV.t.p @                                                           ",
"                                                    ~ ^ 8XnX,XV.a.| P ,.                                                        ",
"                                                @ c lXnXnXnX,XV.z.z.z./ @                                                       ",
"                                                x ! lXnXnXnX>XV.z.z.z. .i W                                                     ",
"                                            @ }.uXiXnXnXnXnX,XV.z.z.z.u.r.2., t                                                 ",
"                                            2 }.xXxXnXnXxXgX-XN.a.z.z.g.a.5.4 u                                                 ",
"                                        z  X.X@X'.*XnXxX=X'.W.U T e.z.=.K T  .X.D e                                             ",
"                                      @ y 6XnX$Xz.U.xXgX^.c.O., 8 5.z.( @ d g.u.n &                                             ",
"                                      @ t 6XnX<XT._.0X9XU.z.=.Z S %.5.` n K g.a.n @                                             ",
"                                      @ t 6XnXxXsXwXD.S.n.z.g.u.q.N 7 ` u.u.z.u.n @                                             ",
"                                      @ t 6XnXnXnXyXM.z.z.z.z.z.t.p @ ` z.z.z.a.n @                                             ",
"                                      @ t 6XnXnXnXrXM.z.z.z.z.z.t.p @ ` z.z.z.u.n @                                             ",
"                                      @ t 6XnXnXnXrXM.z.z.z.z.z.t.p @ ( z.z.z.u.n @                                             ",
"                                      @ t 6XnXnXnXyXM.z.z.z.z.z.t.p @ ` z.z.z.a.n @                                             ",
"                                      @ t 6XnXnXnXrXM.z.z.z.z.z.t.p @ ` z.z.z.u.n @                                             ",
"                                      @ t 6XnXnXnXrXM.z.z.z.z.z.t.p @ ( z.z.z.a.n @                                             ",
"                                      @ t 4XnXnXnXyXM.z.z.z.z.z.t.p @ ` z.z.z.u.n @                                             ",
"                                      @ t 4XnXnXnXrXM.z.z.z.z.z.t.p @ ` z.z.z.a.n @                                             ",
"                                      @ t 6XnXnXnXrXM.z.z.z.z.z.t.p @ ( z.z.z.u.n @                                             ",
"                                      @ t 4XnXnXnXyXM.z.z.z.z.z.t.p @ ` z.z.z.a.n @                                             ",
"                                      @ t 6XnXnXnXrXM.z.z.z.z.z.t.p @ ( z.z.z.u.n @                                             ",
"                                      @ t 6XnXnXnXrXM.z.z.z.z.z.t.p @ ` z.z.z.a.n @                                             ",
"                                      @ t 6XnXnXnXyXM.z.z.z.z.z.t.p @ ` z.z.z.u.n @                                             ",
"                                      @ t 6XnXnXnXrXM.z.z.z.z.z.t.p @ ` z.z.z.a.n @                                             ",
"                                      @ t 6XnXnXnXyXM.z.z.z.z.z.t.p @ ` z.z.z.u.n @                                             ",
"                                      @ t 6XnX0X$X*X#X[.K.z.z.z.t.p @ ` z.z.z.a.n @                                             ",
"                                      @ t 6XnX#Xz.I.xXfX^.z.z.z.t.p @ ( z.z.z.u.n @                                             ",
"                                      @ 0 ;XeX].z.L.0X0X`.I.H.6.2.E c o.5.0.z.a.n @                                             ",
"                                      @ 4 8.A.B.z.n.S.J.1XaXXXw g :XpXR.4 S g.u.N @                                             ",
"                                      @ 7 <.a.g.z.z.z.C.1XgXoXq g 5XfXE., N u.t.Z @                                             ",
"                                          U F &.z.z.z.m.!.(.G.@.#.Q./.F.+. .G L                                                 ",
"                                            @ ( z.z.z.z.z.z.z.z.z.z.z.z.z.9.$ t                                                 ",
"                                            k { -.5.z.z.z.z.z.z.z.z.z.q.<.$.j                                                   ",
"                                                4 Z g.z.z.z.z.z.z.z.z.[ 4 R                                                     ",
"                                                = d a.z.z.z.z.z.z.z.z.( =                                                       ",
"                                                    N N 5.z.z.z.y.H p                                                           ",
"                                                    2 , -.z.z.z.t.p @                                                           ",
"                                                        { ( ( ( `                                                               ",
"                                                        l @ @ @ @                                                               ",
"                                                                                                                                ",
"                                                                                                                                ",
"                                                                                                                                ",
"                                                                                                                                ",
"                                                                                                                                ",
"                                                                                                                                ",
"                                                                                                                                ",
"                                                                                                                                ",
"                                                                                                                                ",
"                                                                                                                                ",
"                                                                                                                                ",
"                                                                                                                                ",
"                                                                                                                                "
};
