/* XPM */
static char *d7895b2b98a34753f2090c4c9e4ee75akF1rwtFCZnCfB78d[] = {
/* columns rows colors chars-per-pixel */
"63 64 256 2 ",
"   c #2D382A",
".  c #2D3B16",
"X  c #284C0C",
"o  c #295408",
"O  c #33560E",
"+  c #2C4C13",
"@  c #2C4D1C",
"#  c #274817",
"$  c #324D1C",
"%  c #334B16",
"&  c #2B5215",
"*  c #2D531B",
"=  c #2A5518",
"-  c #345414",
";  c #345B13",
":  c #32541C",
">  c #335B1C",
",  c #3A571B",
"<  c #386317",
"1  c #2D6214",
"2  c #2D4B23",
"3  c #2B4526",
"4  c #334C24",
"5  c #334C2C",
"6  c #394928",
"7  c #2D5422",
"8  c #2A5329",
"9  c #345324",
"0  c #3A5425",
"q  c #345B23",
"w  c #3A5B24",
"e  c #34532A",
"r  c #3A532C",
"t  c #3B5A2B",
"y  c #35592B",
"u  c #344D33",
"i  c #394C38",
"p  c #3B5532",
"a  c #3D5A32",
"s  c #3D543C",
"d  c #385536",
"f  c #2E4F32",
"g  c #3D6326",
"h  c #3C672A",
"j  c #3E6436",
"k  c #3E7327",
"l  c #1F4410",
"z  c #435D3B",
"x  c #455A37",
"c  c #42572C",
"v  c #456B2C",
"b  c #456829",
"n  c #4B732E",
"m  c #48772A",
"M  c #52772D",
"N  c #456B33",
"B  c #4A6D34",
"V  c #466B3B",
"C  c #4B6B3C",
"Z  c #476538",
"A  c #526C3C",
"S  c #526935",
"D  c #467134",
"F  c #4B7435",
"G  c #4D7B34",
"H  c #4D733B",
"J  c #4D7B3B",
"K  c #467836",
"L  c #527A34",
"P  c #53743C",
"I  c #537C3C",
"U  c #587939",
"Y  c #506A2D",
"T  c #3D5846",
"R  c #3A4842",
"E  c #3D6640",
"W  c #455C43",
"Q  c #455C4B",
"!  c #455847",
"~  c #4C5D53",
"^  c #4C5B59",
"/  c #535D5B",
"(  c #555C57",
")  c #48495B",
"_  c #4B6545",
"`  c #4D6B43",
"'  c #4C644C",
"]  c #496749",
"[  c #516B44",
"{  c #526B4C",
"}  c #55674A",
"|  c #4B7645",
" . c #537343",
".. c #547B43",
"X. c #5A7D44",
"o. c #54744C",
"O. c #5A7C4C",
"+. c #587748",
"@. c #4D6453",
"#. c #4C6757",
"$. c #526454",
"%. c #536B54",
"&. c #53645B",
"*. c #5B645C",
"=. c #546A5B",
"-. c #5A6A5B",
";. c #5A6B55",
":. c #597656",
">. c #4F7955",
",. c #627B49",
"<. c #647A58",
"1. c #717A5D",
"2. c #4D5C65",
"3. c #535C6C",
"4. c #575D64",
"5. c #565F70",
"6. c #4F6562",
"7. c #546464",
"8. c #5A6463",
"9. c #5C6B64",
"0. c #5C6B6B",
"q. c #556569",
"w. c #5D7366",
"e. c #5B6571",
"r. c #5E7173",
"t. c #626B6B",
"y. c #606A67",
"u. c #627364",
"i. c #64736E",
"p. c #687B69",
"a. c #666B79",
"s. c #6B7474",
"d. c #6C737B",
"f. c #6D7B7B",
"g. c #667675",
"h. c #72757D",
"j. c #747B7D",
"k. c #797E7B",
"l. c #737874",
"z. c #71796E",
"x. c #4E8636",
"c. c #55843B",
"v. c #5B833C",
"b. c #5B8A3C",
"n. c #578637",
"m. c #528A36",
"M. c #62873E",
"N. c #528242",
"B. c #5B8344",
"V. c #5D8A44",
"C. c #5C844B",
"Z. c #5C8A4B",
"A. c #548647",
"S. c #5D8655",
"D. c #528644",
"F. c #618B44",
"G. c #63844B",
"H. c #628A4B",
"J. c #658647",
"K. c #648553",
"L. c #678857",
"P. c #6B9256",
"I. c #6F9156",
"U. c #6B8864",
"Y. c #738B6B",
"T. c #6D9661",
"R. c #77956A",
"E. c #74827C",
"W. c #7B837D",
"Q. c #768775",
"!. c #7B9274",
"~. c #6C8276",
"^. c #819B6B",
"/. c #859877",
"(. c #87A978",
"). c #8CAC78",
"_. c #94C37D",
"`. c #6B7783",
"'. c #737584",
"]. c #757C84",
"[. c #797D85",
"{. c #767D8A",
"}. c #7A7E8B",
"|. c #767789",
" X c #777C91",
".X c #7A7E92",
"XX c #7A7F98",
"oX c #817E89",
"OX c #758185",
"+X c #7A8285",
"@X c #76818A",
"#X c #7B828B",
"$X c #7B8987",
"%X c #7C8293",
"&X c #7B8596",
"*X c #748A84",
"=X c #818484",
"-X c #82848C",
";X c #848C88",
":X c #849384",
">X c #85938B",
",X c #899986",
"<X c #929D8B",
"1X c #828492",
"2X c #858B94",
"3X c #888D96",
"4X c #8B9397",
"5X c #939997",
"6X c #918E97",
"7X c #8CAA85",
"8X c #94A889",
"9X c #98B689",
"0X c #9CAC9D",
"qX c #97A795",
"wX c #9CB494",
"eX c #9AB797",
"rX c #8CB281",
"tX c #A2AB9A",
"yX c #A3BC93",
"uX c #A3B49C",
"iX c #A3BA9C",
"pX c #AABC9C",
"aX c #ADBD97",
"sX c #959AA4",
"dX c #8F95A3",
"fX c #9BA7A5",
"gX c #9EB7A5",
"hX c #99A4B5",
"jX c #A3ACA4",
"kX c #A3ACAB",
"lX c #A6A8AA",
"zX c #A4B4A4",
"xX c #AAB5A4",
"cX c #A4BBA2",
"vX c #AABCA5",
"bX c #A5B3AB",
"nX c #AAB4AC",
"mX c #ACBCAA",
"MX c #A5BAA8",
"NX c #B2BAAB",
"BX c #A5ACB1",
"VX c #ABADB5",
"CX c #A8ABB7",
"ZX c #AAB3B3",
"AX c #AEBAB3",
"SX c #A9B4B7",
"DX c #B2B7B6",
"FX c #B3AFB0",
"GX c #9DC38D",
"HX c #9CC195",
"JX c #A7C398",
"KX c #A7D19F",
"LX c #AAC3A6",
"PX c #B3C3B0",
"IX c #ACB3C2",
"UX c #B7C0C7",
/* pixels */
"fXfXhXIXhXhXIX$Xe 9 % % S Z _ -.0X0XfXtXjXfXlXlXlXlXlXlXFXlXCXlXCXlXlXqX{ ` N v L c.U c.& * 9 e $ $ c   <XuX5XjX].h.h.].[.'.[.",
"SXSXhXIXhXCXIX4Xp 0 , , X.A o.w.bXbXbXnXnXZXZXDXZXDXIXVXIXIXIXIXhXCXbX0X:.[ H I F.V.V.B.* * * e r 6 c . uXAXnXDX+X].].}.[.[.[.",
"SXBXhXIXIXIXIXqX6 % + + P Z _ ;.bXbXbXZXZXZXZXZXBXVXVXVXVXVXVXVXlXVXDX0X:.` Z H B.B.F.F.> * q 0 c   c   qXjXnXBX2X#X@X#X}.}.[.",
"ZXgXSXSXBXVXNX<X6 % - - ,.+.:.w.bXbXZXkXBXBXZXBXVXVXVXVXVXVXDXVXlXlXjXqXY.<.O.O.O.B.G.J.> : : : 6 6 x x <X0XZXZX;X#X}.[.'.}.[.",
";XW.-X[.t.t.u.} ,.,.,.I.).9XwXwXOX+X$X#X+X+X+X#X-X+X#X#X=X-X}.=X[././.:XqXqX8XrXeXGXGX_.J.J.,.U <XtXqX8X:X+X+X].#X@X}.'.].}.#X",
"=Xk.;Xh.4.( *.} ,.,.,.,.9XyXwX0X+X#X+X$X#X+X#X#X[.}.[.[.[.].[.[.k.l.l.W.zXmXmXcXeXyXyX9XI.J.v.X.8XaXvXmX;XW.$X$X].#X{.{.#X#X#X",
"=Xz.oXl.( *.*.,.1.J.K.L.yXLXcXfX@X}.{.{.].[.].].+X#X#X#X+X[.+X+X=Xk.j.Q.bXbXbXgX0XeXwX9XK.J.M.J.9XuXxXzXQ.p.OXg.].@X@X}.#X#X-X",
";Xh.oXl.( *.;.;.1.,.,.K.eXzXgXfX$X@X#X@X#X}.{.@X[.+X[.].].].[.j.k.k.k.].BXBXCXSXbXzXuXyXL.J.J.B.9XtXiXuX$Xf.4Xf.].@X@X}.@X#X#X",
"-X-X[.s.*.( W z x c r z !.$X$X$X#X#X{.}.@XOX#X#X].@X].OXOXOX@X@X+Xk.[.-X%X{..X&Xr.t.w.%.x : - , Z _ W ! #.&.7.7.`.$X@X].@X#X].",
"[.oX[.s.9.;.} } r $ 5 d f.E.OXOX{.{.].{.].#X#X#XOX].#X@X{.OXOXOXk.[.[.}.XX X X X3.7.&.' a : - , @ 2 3 3 W @.&.6.d.OX].f.[.].h.",
"[.}.+Xz.;.' _ ` e 3 5 T ~.*X&X@X#X+X[.}.#X#X#X$XOX#XOXOXOXOXOXOX+X].|..XXXXXXX&X5.7.&.' a * X & y e 4 p W %.&.&.OX$X@XOX#X+X].",
"'.k.E.u.;.{ ` Z e 4 u Q E.OX@X@X].j.h.j.OX+X+XOX+XOXOXOXOXOXOXOX#X@X}.%X XXXXX&Xe.7.&.' Z w > > = # 7 r E ' &.#.g.*XOXf.+XOXj.",
"t.0.-.%.:.C.O.P 9 7 5 s w.q.0.4.t.y.y.t.j.+XOXj.OXOXOXOXOXOXOX`.OXOX].].{.{. X{.2.^ ' { +.P L L g g N Z r p s i &.9.0.8.t.t.8.",
"&.^ ' ` O.K.B.I * @ 2 u =.( 4./ / ( ( y.f.+X+XOX+XOXOXOX@X@XOXOXOX+XOXOX{.{.OXE.&.@._ o.C.H.F.F.n.L B.I y 2 u 3 Q &.&./ &.4.^ ",
"=.#.] ` B.F.v.n = * e 5 ;.( 4.y.( ( ( 9.z.$X$XE.OXOXOXOXOX*X@XOXE.*X+XOXOX+XOXf.9.%._  .X.V.b.b.m < n B * 2 s u ' &.&./ 8.8./ ",
"@.] ` P I V.n.x.< = 9 e { Q $.( ;.( ~ -.z.Q.f.g.~.OXOX@X@XOXOXOX].OXOXE.~.E.Q.~.:._ Z A X.v.v.n.J.F I H * @ y # _ %.{ ' &.*.( ",
"c r 0 w G G m x.m x.N.H y e p p W s u ! -.y.9.0.@X@X@X@X@XOXW.].a.2.d.t.-.%.:.o...N.I B.g h > 0 R.8X).9XS.>.A.x.h 7 1 j f T T ",
"r r $ q n n m m m.m.V.J q @ 8 4 3 5 5 d W } ~ 8.`.{.{.{.].].Q.j.5.) q./ ' _ | N N.V.V.B.> & X $ qXNXiXiXU.A.S.D.1 o l = 7 8 u ",
"6 5 5 t B I F x.D.Z.P...y 2 e 5 2 9 4 a _ ' $.0.OX@X&X&X#X$X+X+Xt.) 8.Q ' ` H B J V.V.B.q + # 0 8XuXxXwXT.A.Z.Z.1 o o o * 4 5 ",
"6 6 6 r C H C J ....O.` e 3 u 3 r 0 @ 0 [ o.{ &.OXOXOX{.@X+XOXj.y.( =.Q o.| I H I B.X.H h y 4 c <XuXuXqX!.S.Z.D.1 o o 1 & + : ",
"5X<X,X7X8X7X).rX9XrX8X8X/.<X>X/.C B t b O.K.:.-.9.q.0.0.0.0.9.9.! u s p o...J J I I P ..R.^.R././.:X<X,X7X7X!.R.V.G G n.M M P ",
"AXAXjXbXmXMXeXcXcXiXiXcXbXNXDXjXA U I I G.K.K.U.@.@.#.2.^ &.( ' 5 3 y 7 +.Z.B.N.J F C O.9XPXNXPXl.z.Q.z.qXMXKXKXH.L c.n.L v Y ",
"ZXZXkXfXbXzXgXzXxX0XjXjXlXFXFXtXZ H D B ..B.O.:.] $.$.$.&.#.$.' 8 7 y * B.P.H.B.X. .Z [ 8XtXtXtX;Xk./.i.qXgXeXHXT.Z.V.F.n.Y M ",
"IXIXSXSXSXZXkXZXAXnXDXZXlXFXFXtXo. .B B G.P.K.<.] ' { %.' ' ` ` y = q l J C.....P  ._ { tXNXDXDX=Xk.oX].SXUXgXgXU.C.U J.M g b ",
"4X3X2X2X3X2X2X$X4X3X3X;X6X6XoX5X(.R.(.!.g q N y t a p d t a r 0 j D N D R.R.).rX(./.,X,X:X;X;X6X[.].OXOX`.~.~.w.j j t q R.).^.",
"%X}.{..X}.}.].].}.'.[.j.-XoXk.6XMXeXHXGX7 X @ # * e e e 6 0 0 0 H H | +.GXJXHXJXLXLXmXjX>Xk.j.[.}.{.{.`.e.6.6.@.f 2 2 9 (.JXGX",
"}.}.|.|.}.}.'.'.[.'.[.[.oX=Xk.;XgXHXKXrXq + , 0 $ 0 0 @ 4 # # $  .` V O.9XLXLXeXgXxXZXlX6X].j.oX#X#X&XOXe.6.6.@.s p 2 2 /.iXyX",
"1X#X}.#X}.#X%X#X1X}.-XoXk.oXl.:XgXHXKX!.q + : , $ 4 5 # c 6 $ 0 ` ` _ <.7XcXcXgXjXbXZXlX6X}.}.1X@X].@X`.0.#.=.%.d 5 4 4 /.pXtX",
"#X#X#X[.}.#X#X}.#X'.$Xj.t.y.9.u.!.T.R.I., & - , b Z S Z !.!.!.!.,X8X,X,X>X>X:X>X4X3XdX2X1X}.#X%Xg.0.i.w.~ i T x c x S x 7XnXjX",
"#X+X[.[.#X}.#X{.[.f.+Xz.&.$.~ %.>.A.X.B.; - , , +.+.;.;.vXmXLXmXAXPXAXkX;XOXd.].`.|.`.'.|.}.}.%X8.~ &.@.i 3 3 4 ,.} ,.} qXxXlX",
"+X+X+X+X+X#X}.].#X].$Xf.&.$.' { S.K.G.B.- O X % S C _ ' bXbXzXgXfXlXlXBX-X1XoX2X3XoX%X1X%X%X}.OX&.' ' @.s 4 4 0 S S A } qXDXkX",
"+Xk.[.+X+X+X[.j.$Xj.>X~.#.$.%.{ S.G.v.U ; - O , } } ( ~ AXnXZXZXDXDXCXCX1X1X|.|.'.'.|.}.@X{.OXOXw.$.' { x 6 % % S Y S x <XZXBX",
"-X'.].j.t.t.s.t.i.r.i.9.Q s z r M M m M O , % c /.:X<X>XqX$X>X:X3XdX4X3X1X.X.X.X X&X&X`.`.q.9.w.Q T W s u 6 r 4 I./.^.8X/.>X4X",
".X'.[.h.&./ 8.&.^ ^ @.! u 5 u e G m m M O % , c pXxXAXfX>XE.E.E.].{.[.].|.@X%X}. X&X@X`.e.#.#.{ s 5 5 5 5 6 r $ ).JXyXtX;Xk.f.",
"%X}.#Xj.*.~ $.$.9.=.&.' i 2 $ : F G n M O % 0 a tXxXAXkX$Xj.f.+X].+X].[.#X#X}.].@X&X&X`.0.#.@.] y 2 3 2 8 e 0 $ ).yXyXaX:XE.].",
"}.@XOXf.9.$.&.;.%.;.' z a 9 % % C P B M + % @ d eXAXSXSX$X@X].#X=X-X+X+X+X+X{.`.OX@XOX~.w.#.#.] y 7 7 q * 9 9 @ ).aXyXaX:X+X+X",
"a.g.r.w.w.:.;.o.p s x r S c , Y R.^.R.T.k j | | !.*X*X&X{.&X`.}.j.oX=X[.].].+XOXr.r.i.w.w.:.:.o.h h h h * * * * I.(.^./.p.u.t.",
"6.6.#.#.:.U.o.:.# e 0 c +.U U ,.JXPXJX9XT.T.Z.S.j T T w.`.&X&X Xj.[.+X[.].j.j.E.&.=.#.%.:.:.:.C.K k x.D q = > > Y ,.P ,.} { *.",
"E #.E | L.L.C.O.# 9 @ 4 S A Y ,.uXvXcX9XS.A.D.>.S.>.#.r.{.@XoX|.oXoX%X}.@XOXE.f.=.' ] ` :.K.K.H.c.G I F g * 7 * I K.B.K.[ { } ",
"E | j D G.H.I X.$ c 4 4 A S Y <.tXnXuX8XS.A.D.D.E E E #.OX X2X}.oXoX}.}.@X$XE.~.o.` N H U H.J.M.D v Z N 7 # = l P F.B.H.H J H ",
"D.| G x.n < b b : @ 5 r /./././.NXbXuX9X+.N.N.K D.D.>.r.r.r.a.a.`.a.'.a.`.r.r.w.| K.I v.b m ; Y I.^./.R.Y.Y.R.T.B.F D.m b.m.x.",
"V.D.m.m < o o X w 4 r ! xXxXxXxXxXFXNX9XP D K K Z.S.S.>.>.#.( / 3.3.3.3.3.6.T #.O.Z.v.n.< O O , tXaXPXNXvXvXvXJXC.B G k b.D.x.",
"m.m.b.x.o o ; - 0 3 3 ! jXAXAXjXfXlXNX8X .N G c.D.D.S.O.] _ ' $.4.5.3.3.6.6.#.] B.M.M.n.; O - , /.tXlXFXkXzXgXeXL.V D k m.V.x.",
"F.b.b.x.o o ; + @   u Q fXBXDXBXFXFXAXqXO.V H k S.S.S.:.o.{ } } *.4.4.3.q.6.#.| G.b.M.M ; X + . tXFXFXDXDXZXSXMX:.` D G m.m.m.",
"D h m b < < b c U.U.Q.E.5XsXsX5XsX5X5X,X/.R.R.I.H V Z V A [ A [ x ! ! T T T T y I G M n.M.,.U.p.<X6X6X6X4X4X4X4X!.!.R.R.D.h b ",
"= = o q n v.B.G.yXMXAXfX&X].'.].'.d.k.W.qXJXJX9X8 # # 9 Z +. .A $ 6 5 u R f 8 8 v v n J.rXpXPXDX/.oXk.=X X X@X#XbXvXaXaX..X o ",
"y y * y ..P B O.eXgXMXfX$X].[.}.1X}.[.+XxXLXcX8X_ p e t C +.P F , , 0 e f 8 8 = F G v B 9XuXbXDX$XQ.k.[.@X X X{.fXbXxXaX;.. 0 ",
"# 7 l * X.Z c <.MXPXDXfX#XOX+X'..X|.#X+XnXNXLXqXu 3 . 2 Z [ P Z + + @ @ 8 8 8 = h G N Z tXZXCXUX;XW.j.[.@X{.{.'.BXBXtXNX} . % ",
"k F b P ^.R.!.E.fXdXdXdX1X#X+X+X XXX1X2X3X5XqXqXu.u.p.Y.Q.!./.Y.0 w 9 + H D h h T.T.Y.!.>XdXsXhX{.@X@X@X#X@X#X#XsXsX5X<Xk.1.1.",
"c.b.b.P.JXyXmXZX{.{. X.X}.}.W.W.}.}. X|.].].j.E.bXtXjXxXzXxXxXqXe : = > C.A.C.H.GXHXiX0X3X|.|.oX X@X@X&X#X+X#X#Xh.h.j.6XtXaXaX",
"F.F.v.I.JXpXmXfX].{. XXX|.].OXj.oX}.}.oXOX+XW.W.nXzXnXmXnXmXnXuXt * & q H.B.X.I.rXeXLXtX;Xh.'.oX{.}.$X@X+X}.}.oX1X[.h.=XtXFXtX",
"F.J.I L.iXeXzXfX%X&XoXXX@X}.+XE.j.j.k.k.OX+X+X;XkXkXnXnXjXbXmXuX9 & X & X.I P +.7XiXNXjX>Xh.[.1X|.[.}.#X+X}.}.}.1X}.|.3XtXNXFX",
"B C Z ,.yXcXbXfX}. X.X X%X}.#X+Xj.k.h.h.k.j.].].fXsXqX5X>X$X;X!.v n v b I.^././.8XqX<X5X;X[.k.#X'.}.}.[.l.s.s.h.a.a.a.a.h.oX/.",
": $ @ ` wXuXmXfX{.|. X X}.}.}.k./.W./.[.+X+X#X@X].f.j.s.8.$.$._ X.Z.H.C.9XJXJXuXQ.z.l.l.j.+X+X$X}.}.[.h.t.8.4.8.4.t.4.^ R     ",
"e 4 2 [ yXvXmXfX#X%XXX.X}.[.[.k.l.l.j.].].[.XX X{.{.+Xj.9.%.;._ B.D.B.O.8XpXpXjX>X=X[.=X#XOXOX@X}.}.}.l.y.( ( $.( &.7.$.! x R ",
"p 4 2 { iXLXmXfX+X@X@X.X}.#X[.}.+X+X+X@X@X%X&X&X&X@X$Xf.;.~ } Z H.Z.S.L.yXvXFXDXoX[.oX}.{.{.OX&X X%X#Xf.y.%.{ %.' @.~ ! i c   ",
"5 5 5 Z U.!.Q.Q.i.g.f.d.d.d.d.s.a.d.a.`.`.`.`.`.a.f.g.u.;.} } +.H K V O.!.:X:X3X[.oXoX X|.}.@X@X`.r.`.~.=.] o.E o.o.>.o.j 7 = ",
"5 5 3 4 r e 3 5 @.&./ 2./ / / ^ 7.3.3.3.3.3.3.3.3.7.&.@.{ [ S P + = # e ] &.*.q.h.|. X|.|. X{.{.3.2.6.#.] ] A.H A.A.C.A.j 7 * ",
"5 5 2 2 $ @ @ p ' ' $.#.&.&.$.&.2.2.2.2.2.2.2.6.^ @.Q _ { +.P P = 7 7 8 _ $.~ / '.}.}..X X.X%X&X5.2.#.#.| | N.K A.A.S.D.j = & ",
"u p 4 9 9 @ @ y ` ] ' @.@.$.$.$.9.7.7.7.2.7.6.=.#.] { [ P P P H 7 q 7 8 _ %.$.&.OX$X#X@X X%X1X&X`.6.#.#.| K K k N.A.Z.| g = l ",
"5 4 2 9 b g > g C | ] _ _ W W W %.%.@.' _ W z Z o.o.O. .N t b g & = + q V o.{ %.p.i.i.d.h.h.a.h.T T T E J I G K Z.P.T.S.>.{ { ",
"4 2 @ g J.H.F.F.J ..` V a p e p ` ` C Z y * @ : C...G.X.q = q & = - = q ..S.S.S.o.%.#.=.4.4.4.4.T f 8 8 H b.c.b.GXGXKXLXLXMXmX",
"p 8 @ g v.F.b.c.v F H j 2 # # 4 C P L v > X O ; v.c.F.B.q & q & - X o > ..H.C.O.` ] _ ( ( ( 4.( i u # 7 L F.b.b.)._.eXeXgXbXBX",
"e 2 X , n.b.n.n.G J ..V e 2 4 r Y M L b O o o ; v.L V.v.> = y & ; O X ; c.Z.A...[ Z _ ;.*.*.4.( x p @ * U M.n.m._.GXcXzXZXSXCX"
};
