/* XPM */
static char *_cab829ee275400e8584c4f6f198cb95PIuUwTEMXX0HXqkp[] = {
/* columns rows colors chars-per-pixel */
"77 64 83 1 ",
"  c None",
". c gray35",
"X c #5B5B5B",
"o c gray36",
"O c #5D5D5D",
"+ c gray37",
"@ c #5F5F5F",
"# c #606060",
"$ c gray38",
"% c #626262",
"& c gray39",
"* c #646464",
"= c #656565",
"- c gray40",
"; c #676767",
": c #686868",
"> c DimGray",
", c #6A6A6A",
"< c gray42",
"1 c #6C6C6C",
"2 c #6D6D6D",
"3 c gray43",
"4 c #6F6F6F",
"5 c gray44",
"6 c #717171",
"7 c #727272",
"8 c gray45",
"9 c #747474",
"0 c gray46",
"q c #767676",
"w c #777777",
"e c gray47",
"r c #797979",
"t c gray48",
"y c #7B7B7B",
"u c #7C7C7C",
"i c gray49",
"p c #7E7E7E",
"a c gray50",
"s c #808080",
"d c #818181",
"f c gray51",
"g c #838383",
"h c #848484",
"j c gray52",
"k c #868686",
"l c gray53",
"z c #888888",
"x c #898989",
"c c gray54",
"v c #8B8B8B",
"b c gray55",
"n c #8D8D8D",
"m c #8E8E8E",
"M c gray56",
"N c #909090",
"B c gray57",
"V c #929292",
"C c #939393",
"Z c gray58",
"A c #959595",
"S c gray59",
"D c #979797",
"F c #989898",
"G c gray60",
"H c #9A9A9A",
"J c #9B9B9B",
"K c gray61",
"L c #9D9D9D",
"P c gray62",
"I c #9F9F9F",
"U c #A0A0A0",
"Y c gray63",
"T c #A2A2A2",
"R c gray64",
"E c #A4A4A4",
"W c #A5A5A5",
"Q c gray65",
"! c #A7A7A7",
"~ c gray66",
"^ c #A9A9A9",
"/ c #AAAAAA",
"( c gray67",
/* pixels */
"                                                                             ",
"                                                                             ",
"                                                                             ",
"                                                                             ",
"       @e2::::::@w2::::::::::;u::::::::;;e;:::::::;:e::::::::#6w::::::#.     ",
"       #Lheeeeee;Jheeeeeeeee62Uueeeeeee6wLeeeeeeee2uLeeeeeeee2vVeeeeee2X     ",
"       #Jheueeee;Jveeueueeuew2UueueueeewwLueeueueu6uJeueueeee2hAeuueeu2X     ",
"       @JUUUUUUUwAUULUULUUUUA6EULUUUUUUbw~UULUULUUveEUULUUUUUfhELUULUUf.     ",
"       X26262666#:62622662222#266226626:#266226662:#2262w2662;;2222662;X     ",
"       @Vu6w;eb66ww66w:ub6ww6w666w;vf66ww6w6w#Vu66wwww6#Vu66w6w666:Aww;.     ",
"       #Jfwe:fJweeweww:hAweeeeeeww;Vvwwwwewww;Jhwweewww;Lfwewewwww:Uue2X     ",
"       @LAbbefUvbbbbbv2hUbbbbbbbbb6VJbbbbbbvb2JAbbbbbvb2LAbbbbbbbv2UVbeX     ",
"       XfVbVu6VVbVVVVh;6VbVbVbVVVb6uVbbVVbVbV:fVVVbVVbb2fVbVVVbVVb:vVVe.     ",
"       @e:;e::;;:#e:;:::::::;#e:::::::;;:e::::::;#;e::::::::;#2w::::;:#.     ",
"       @Lu6Ueeeee:Lhweeeeeee66Ueeeeeeee2wLeeeeeee2eLeeeeeeeee:hAeeeewe2X     ",
"       @Jf6Uuueee:Lheeueueue2VbueueuueuwwLeueueuu6wLueueueueu2hAeeueeu2X     ",
"       @JA6EUULUL6JUUULUUUUJ6UUUULLLUULVwEULUUUUUbwEUULUULULUffEULULLUfX     ",
"       X62#266666#2262266222#2266626626:#262226662;2266262666:;6262w66;X     ",
"       @buw66;fv66w6w6:uv66ww6666w;vf66ww66w6;Vu666w66w66;Aw666w66;Aew;X     ",
"       #Jfwwe:hAwwwwww2hAwwewweeww:Vvwwwwewww:bbewwwwwwe6wJewwwwww:Uue:X     ",
"       #LAbvvwvLbbbbvbehLbbbbbvvvb6AJvvvbbbbbv2UVbbbbbbv2UVvbbbbvv:UVbeX     ",
"       @hVVVVwwVVbVVbVewVVVbVbVVbV6eVVbVVbVVVb:hVVbVVVbb:hVVVbVVVb:vVVeX     ",
"       @e:;e;;:;:;#e:;::;;;;#e2::::::;::;:w;;;::;;:#2w;;:::;:#26;;::::#X     ",
"       @Lu2Ueweeww2Uueeeeeww2Uueeeeeeeee2eJweeeewwe2hAwweeeee:vAweeeee:X     ",
"       #Jebbeueuew:Lfeeeueuw2Lfeeeeueeue2uJeueeuuee2hAeeeueue2vVeueeue2X     ",
"       #V6EUULULUJ6UUUUUULLJ6ULUUULLUUUUve~LUUULLUUff~UUUULLUfhELLUUUUf.     ",
"       X:;26266626#262266662#26662266266:;266662w66:;26662w66:;26662w6;X     ",
"       @Vu666;fv666w66w;fv66w6666w;vfw666w66666;Vw66w6662:Vw66w6666:Vw:X     ",
"       #Jfwwe:hAwewwwwe:vVwwwwwwee:Vvwwwwwwweew:Uueewwwww2Uuewwwww62Uu:.     ",
"       @LVvvbfvVvvvvvvb6vLvvvvvbbb2AJvvvbbvvvbh2UVvvvvvbh2Ebvvvvvbh6EbeX     ",
"       XhVVVVVweVVVVbVAwwVVVbVVVVV6uVVVbVVVbVVb:vVVVVVVVv:vVVVVVVVb:bAuX     ",
"       @e2#:w:;;;;;#e:;;;;;;;#e:;;;;;;:::#:w;;;;;;;;#26;;:;;;;@66;;;::#X     ",
"       #Lf2wUeeeeew2Uueeeeee66Uuweeeeeee6wbheeeeeeee:bVwweeeee:VVwweee2X     ",
"       #Jh6wLeueue62Uueeueuew2Uueeueeuue6uLeueueeuue:vVeeeeeeu:bVeeeeu:X     ",
"       @JUbw~UULLUA6EULULULUA6EUULULLULUve~LLULLLULUuv~LULULLLuvEULLULhX     ",
"       X262#662ww66#66666w662#2666666666:;666666w666;;66666w66;;6666w6:X     ",
"       @Ve6w66;hf66w666:fv26666666#vh6666666666;Vw66w66662:Aw6w6666:Ae;.     ",
"       #Lfwwww;bbwwweee:vbwewweeee:Avwwewweewww:Uuwwwwwwe66Uewwwwe62Lu:X     ",
"       @LVvvvv6VJvvvbhw6ALvvvvbbbu6LAvvvvvvvvvv2Ubbbvvvvbh6Evvvvvvh2EbeX     ",
"       @hVVVVVweVVVVVh;6AVVVVVVVAweAVVVVVVVVVVb:bAVVVVVVVv2bVVVVVAb2bAuX     ",
"       @w:;;w;::;;;#e:::::::;#e:;;;;::::#:e::::;;;::@66:;;::;:#66:::;;#X     ",
"       @Jh6wLweeeww2Lueeeeeew2Uuweeeeeee6eLeeeeeeeee:bVeeweeee:bbweeee:.     ",
"       #Jf2wLeeeeew2Uueeeeee62Uueeeeeeee6uJeeeeeeeeu:bVeeeeeee:bVeeeee2X     ",
"       @LUVw~UULLUA6EULULLUUA6EUULULULULve~LULLLULLLuvELLLUUUUubEUULLUh@     ",
"       X262#6666w66#6w662w666#666666w666:;66662w666w;;6666w66w;;6666w6;X     ",
"       @Ve6w666#vf666666;hh66662w66#bu66666662;Ve66666662;Vw6666662:Vw;X     ",
"       #Jfwweee;Vvwwwwwe:Vvweewwwww;Jhwwewwwee;Luwwwwweew:Uuwwwwww62Lu:X     ",
"       #JVvvvhw6LAhvvvvv2VAvvvvvvvv:JAvvvvvvvewEVvvvvvvbh2Ubvvvvvvh6EbwX     ",
"       XhAVAVf#uAVAAAVAV6uAVVVAVAVV2fAVAAVVVV2fAVVAVAVVVb:bAVVAVVAv:bAuX     ",
"       @w2#;w;;:;;;#;w::::;:;;;w;::;;;;:#:w;:;:;;;;;#26:::;;;;#26:;;::#.     ",
"       #Jh6wLewewew62Ueeeweee6wLeeweeeee2uLweeeeewee:bVweeewee:bbeewee2X     ",
"       #LA6A~JLJJLAwA~LLLJJLLb6EJLLJJLLLvu~JJLJLJLLLuvEJLLLJLLubEJLLLLhX     ",
"       X6w;weeweeew#weeeweeeew;weeeweeee2;weeeeweeee2:eeeweuew::weweee:X     ",
"       @vw2266#ff2262626;uu66266266#ve626262622;vw26666622:b666662;vw6:X     ",
"       #Jfeeee:Vbeeeeeeew2Ahweeeeew;Jheeeeeeee:Aheeeeeeeew2Uueeeee:Jfw:X     ",
"       #Lbfvhh2bJhhhhhhhfwVbfhhhhhh:JVhhhhhhhwwUvhhhhhhhhu6UvhhhhhuwUh6.     ",
"       @bJJJAJwuJJAJAJJAJA6vJAJJJJJ6vJJAJJJAJ2vJJJJJAJAJJb2JAJAJAJV2ALfX     ",
"       @6:#;w;#;;;;;;#;w;:#;;;;#:6;##;;;#:6;;;#;;#X:6#62;;#;;;;@62;##@@.     ",
"       #LAbhVVAVAVVAvwVEVVVVVVVbhVVVVVVVfuEVVVVAv6uAEwbLVVVAVVV6VLVAbhuX     ",
"       @uvve:hvhhhvhe:hhvhhvhhvhw2hvvhvhe:hvhhvhu;hvh2wvhvhhhhv2whvhvvwX     ",
"                                                                             ",
"                                                                             ",
"                                                                             ",
"                                                                             "
};
